<svg width="838" height="567" viewBox="0 0 838 567" fill="none" xmlns="http://www.w3.org/2000/svg">
<g clip-path="url(#clip0_339_497)">
<path d="M828.813 165.525C831.52 168.716 836.935 169.172 840.544 165.525C844.154 161.878 843.703 156.407 840.544 153.671C837.386 150.48 831.971 150.48 828.813 153.671C825.655 157.319 825.655 162.79 828.813 165.525ZM829.264 134.067C826.106 136.803 825.655 142.274 829.264 145.921C832.423 149.112 837.837 149.112 840.995 145.921C844.154 142.729 844.605 137.714 840.995 134.067C836.935 130.42 831.971 130.876 829.264 134.067ZM860.397 145.465C863.555 142.274 863.555 137.258 860.397 134.067C857.69 130.876 852.275 130.42 849.117 134.067C845.958 137.258 845.958 142.274 849.117 145.465C852.726 149.112 857.69 148.2 860.397 145.465ZM840.544 185.585C843.251 182.85 843.703 177.835 840.544 174.187C836.935 170.54 831.971 171.452 829.264 174.187C826.557 176.923 825.655 181.938 829.264 185.585C832.874 189.232 837.837 188.321 840.544 185.585ZM820.691 165.525C823.399 162.79 823.85 157.775 820.691 154.127C817.082 150.48 812.119 151.392 809.411 154.127C806.704 156.863 805.802 161.878 809.411 165.525C813.021 169.172 817.984 168.261 820.691 165.525ZM860.397 174.187C857.69 171.452 852.726 170.54 849.117 174.187C845.958 177.379 846.41 182.394 849.117 185.585C851.824 188.321 856.787 188.777 859.946 185.585C863.555 182.394 863.104 176.923 860.397 174.187ZM809.863 174.187C807.155 176.923 806.704 181.938 809.863 185.129C813.021 188.321 817.984 187.865 820.691 185.129C823.399 182.394 823.85 177.379 820.691 174.187C817.082 170.996 812.119 171.452 809.863 174.187ZM829.715 124.949C832.423 127.684 836.935 128.596 840.544 124.949C843.703 121.757 843.251 116.742 840.544 114.007C837.386 110.816 832.874 110.816 829.715 114.007C826.557 117.198 826.557 122.213 829.715 124.949ZM859.946 124.949C862.653 122.213 863.104 117.198 859.946 114.007C857.238 111.272 852.275 110.816 849.117 114.007C845.958 117.198 846.41 122.213 849.117 124.949C852.726 128.596 857.69 127.684 859.946 124.949ZM879.798 145.009C882.506 142.274 882.957 137.258 879.798 134.067C877.091 131.332 872.128 130.876 868.97 134.067C865.811 137.258 866.262 142.274 868.97 145.009C872.579 148.656 877.542 147.744 879.798 145.009ZM869.421 185.129C872.128 187.865 877.091 188.321 879.798 185.129C882.506 182.394 882.957 177.379 879.798 174.643C876.64 171.452 871.677 171.908 868.97 174.643C866.714 177.379 866.262 182.394 869.421 185.129ZM800.839 154.583C797.68 151.392 793.168 151.848 790.461 154.583C787.303 157.775 787.754 162.334 790.461 165.525C793.168 168.261 797.68 168.716 800.839 165.525C803.546 161.878 803.546 157.319 800.839 154.583ZM829.715 205.189C831.971 207.925 836.935 208.381 840.093 205.189C843.251 201.998 842.8 197.439 840.093 194.703C836.935 191.512 832.423 191.968 829.715 194.703C826.557 197.439 827.008 202.454 829.715 205.189ZM859.946 205.189C862.653 202.454 863.104 197.895 859.946 194.703C857.238 191.968 852.726 191.512 849.568 194.703C846.41 197.895 846.861 202.454 849.568 205.189C852.726 208.381 857.238 207.925 859.946 205.189ZM810.314 194.703C807.607 197.439 807.155 201.998 810.314 205.189C813.021 207.925 817.533 208.381 820.691 205.189C823.399 202.454 823.85 197.895 820.691 194.703C817.082 191.512 812.57 192.424 810.314 194.703ZM790.01 185.129C792.717 187.865 797.229 188.321 800.388 185.129C803.095 182.394 803.546 177.835 800.388 174.643C797.229 171.452 792.717 171.908 790.01 174.643C787.754 177.379 787.303 181.938 790.01 185.129ZM869.421 114.463C866.714 117.198 866.262 121.757 869.421 124.949C872.128 127.684 876.64 128.14 879.798 124.949C882.506 122.213 882.957 117.654 879.798 114.463C876.64 111.272 871.677 112.183 869.421 114.463ZM840.093 104.433C842.8 102.153 843.251 97.5941 840.093 94.4027C837.386 91.6673 832.874 91.6673 830.167 94.4027C827.459 97.1382 827.008 101.697 830.167 104.433C833.325 107.624 837.837 107.168 840.093 104.433ZM899.2 164.613C901.907 161.878 902.358 157.775 899.2 154.583C896.493 151.848 891.981 151.848 889.273 154.583C886.566 157.319 886.115 161.878 889.273 164.613C892.432 168.261 896.944 167.349 899.2 164.613ZM879.798 204.734C882.506 201.998 882.957 197.895 879.798 194.703C877.091 191.968 872.579 191.968 869.872 194.703C867.165 197.439 866.714 201.998 869.872 204.734C873.03 208.381 877.091 207.469 879.798 204.734ZM899.2 174.643C896.944 172.364 892.432 171.908 889.273 174.643C886.566 177.835 887.017 181.938 889.273 184.673C891.981 186.953 896.041 187.409 899.2 184.673C901.907 181.938 901.907 177.379 899.2 174.643ZM800.388 204.734C803.095 202.454 803.095 197.895 800.388 195.159C797.68 192.424 793.62 192.424 790.461 195.159C787.754 197.895 787.754 201.998 790.461 204.734C793.62 207.925 797.68 207.469 800.388 204.734ZM839.642 224.794C841.898 222.514 842.349 217.955 839.642 215.219C836.935 212.484 832.423 212.94 830.167 215.219C827.911 217.499 827.459 222.058 830.167 224.794C833.325 227.985 837.386 227.073 839.642 224.794ZM780.535 164.613C782.791 162.334 783.242 157.775 780.535 155.039C777.828 152.304 773.316 152.76 771.06 155.039C768.804 157.319 768.352 161.878 771.06 164.613C773.767 167.805 778.279 166.893 780.535 164.613ZM850.019 224.794C852.275 227.073 856.787 227.529 859.494 224.794C862.202 222.058 862.202 217.499 859.494 215.219C856.787 212.484 852.275 212.94 850.019 215.219C847.312 217.955 847.312 222.058 850.019 224.794ZM889.725 124.493C891.981 126.773 896.493 127.684 899.2 124.493C901.907 121.757 901.907 117.654 899.2 114.919C896.493 112.183 891.981 112.183 889.725 114.919C887.018 117.654 887.018 121.757 889.725 124.493ZM869.872 104.433C872.128 106.712 876.64 107.168 879.347 104.433C882.054 101.697 882.054 97.1382 879.347 94.8587C876.64 92.1232 872.128 92.5791 869.872 94.8587C867.165 97.5941 867.165 101.697 869.872 104.433ZM819.789 215.219C817.533 212.94 813.472 212.028 810.314 215.219C807.607 217.955 808.058 222.514 810.314 224.794C813.021 227.529 817.082 227.529 819.789 224.794C822.496 222.058 822.496 217.499 819.789 215.219ZM899.2 204.734C901.456 202.454 901.907 198.351 899.2 195.159C896.493 192.424 892.432 192.424 889.725 195.159C887.469 197.439 887.018 201.998 889.725 204.734C892.432 207.469 896.944 207.013 899.2 204.734ZM869.872 224.794C872.128 227.073 876.189 227.529 878.896 224.794C881.603 222.058 881.152 217.955 878.896 215.675C876.189 212.94 872.128 213.396 869.872 215.675C867.616 217.955 867.165 222.058 869.872 224.794ZM918.601 144.097C920.857 141.818 921.309 137.714 918.601 134.979C915.894 132.243 912.285 132.243 909.577 134.979C907.321 137.259 906.87 141.362 909.577 144.097C912.736 147.289 916.797 146.377 918.601 144.097ZM859.043 83.9168C861.299 81.6372 861.75 77.534 859.043 74.7985C856.787 72.063 852.726 72.063 850.019 74.7985C847.763 77.0781 847.312 81.1813 850.019 83.9168C853.178 87.1082 857.238 86.1963 859.043 83.9168ZM799.936 224.338C802.192 222.058 802.644 217.955 799.936 215.219C797.229 212.484 793.62 212.94 790.912 215.219C788.656 217.499 788.205 221.602 790.912 224.338C793.62 227.529 797.68 226.617 799.936 224.338ZM780.084 204.278C782.34 201.998 782.791 197.895 780.084 195.159C777.376 192.424 773.767 192.424 771.06 195.159C768.804 197.439 768.352 201.542 771.06 204.278C773.767 207.469 777.828 206.557 780.084 204.278ZM889.725 94.8587C887.469 97.1382 887.018 101.241 889.725 103.977C892.432 106.712 896.493 106.256 898.749 103.977C901.005 101.697 901.456 97.5941 898.749 94.8587C896.041 92.1232 891.981 93.035 889.725 94.8587ZM909.577 175.555C907.321 177.835 906.87 181.938 909.577 184.673C911.833 186.953 915.894 187.409 918.601 184.673C920.857 182.394 921.309 178.291 918.601 175.555C915.894 172.364 911.833 173.276 909.577 175.555ZM839.191 244.398C841.447 242.118 841.898 238.471 839.191 235.736C836.935 233.456 832.874 233.456 830.618 235.736C828.362 238.015 827.911 242.118 830.618 244.398C833.325 247.133 837.386 246.677 839.191 244.398ZM878.896 83.9168C881.152 81.6372 881.603 77.534 878.896 75.2544C876.64 72.9749 872.579 72.9749 870.323 75.2544C868.067 77.534 868.067 81.6372 870.323 83.9168C873.03 86.6522 877.091 86.1963 878.896 83.9168ZM918.601 124.037C920.857 121.757 921.309 118.11 918.601 115.375C916.345 113.095 912.285 113.095 910.029 115.375C907.773 117.654 907.321 121.757 910.029 124.037C912.736 126.773 916.345 126.317 918.601 124.037ZM850.471 235.736C848.215 237.559 847.763 241.662 850.471 244.398C853.178 247.133 856.787 246.677 859.043 244.398C861.299 242.118 861.75 238.471 859.043 235.736C856.336 233 852.275 233.456 850.471 235.736ZM890.176 215.675C887.92 217.499 887.469 221.602 890.176 224.338C892.883 227.073 896.493 226.617 898.749 224.338C901.005 222.058 901.456 218.411 898.749 215.675C896.041 212.94 891.981 213.396 890.176 215.675ZM780.084 103.977C782.34 101.697 782.791 98.05 780.084 95.3146C777.376 92.5791 773.316 93.035 771.511 95.3146C769.706 97.5941 768.804 101.241 771.511 103.977C774.218 106.712 777.828 106.256 780.084 103.977ZM791.364 83.9168C793.168 86.1963 797.229 86.6522 799.936 83.9168C802.644 81.1813 802.192 77.534 799.936 75.2544C797.68 72.9749 793.62 72.9749 791.364 75.2544C788.656 77.9899 788.656 81.6372 791.364 83.9168ZM751.658 184.217C753.463 186.497 757.524 186.953 760.231 184.217C762.938 181.482 762.487 177.835 760.231 175.555C757.975 173.276 753.914 173.276 751.658 175.555C748.951 178.291 749.402 181.938 751.658 184.217ZM810.765 244.398C812.57 246.677 816.631 247.133 819.338 244.398C822.045 241.662 821.594 238.015 819.338 235.736C817.082 233.456 813.021 233.456 810.765 235.736C808.509 238.471 808.509 242.118 810.765 244.398ZM918.601 195.615C916.345 193.336 912.285 193.336 910.029 195.615C907.773 197.895 907.773 201.998 910.029 204.278C911.833 206.101 915.894 207.013 918.601 204.278C920.857 201.542 920.406 197.895 918.601 195.615ZM779.632 224.338C781.888 222.058 781.888 218.411 779.632 216.131C777.376 213.852 773.316 213.852 771.06 216.131C768.804 218.411 768.804 222.058 771.06 224.338C774.218 227.073 777.828 226.161 779.632 224.338ZM878.896 244.398C881.152 242.118 881.603 238.471 878.896 236.191C876.189 233.456 872.579 234.368 870.774 236.191C868.518 238.015 868.067 242.118 870.774 244.398C872.579 246.677 876.64 246.677 878.896 244.398ZM759.78 124.037C762.036 121.757 762.487 118.11 759.78 115.831C757.073 113.095 753.463 114.007 751.658 115.831C749.402 117.654 748.951 121.757 751.658 124.037C753.914 126.317 757.524 125.861 759.78 124.037ZM898.297 75.2544C896.041 72.9749 892.432 72.9749 890.176 75.2544C887.92 77.534 887.92 81.6372 890.176 83.4609C891.981 85.2845 895.59 86.1963 898.297 83.4609C901.005 81.1813 900.553 77.534 898.297 75.2544ZM918.15 95.3146C915.894 93.035 912.285 93.035 910.029 95.3146C907.773 97.5941 907.773 101.697 910.029 103.521C911.833 105.345 915.443 106.256 918.15 103.521C920.857 101.241 920.406 97.5941 918.15 95.3146ZM799.485 243.942C801.741 241.662 801.741 238.015 799.485 235.736C797.68 233.912 794.071 233 791.364 235.736C788.656 238.471 789.559 242.118 791.364 243.942C793.62 246.677 797.229 246.222 799.485 243.942ZM759.78 203.822C762.036 201.542 762.036 197.895 759.78 195.615C757.975 193.792 754.365 192.88 751.658 195.615C748.951 198.351 749.853 201.998 751.658 203.822C753.914 206.101 757.524 206.101 759.78 203.822ZM938.003 163.701C940.259 161.878 940.259 157.775 938.003 155.495C935.747 153.215 932.588 153.215 929.881 155.495C927.625 157.775 927.625 161.422 929.881 163.701C932.588 166.437 936.198 165.981 938.003 163.701ZM811.216 55.6502C808.96 57.4739 808.96 61.1211 811.216 63.8566C813.472 65.6803 816.631 66.1362 818.887 63.8566C821.143 61.5771 821.143 57.9298 818.887 55.6502C816.631 52.9147 813.021 53.3706 811.216 55.6502ZM910.48 223.882C912.285 225.705 915.894 226.161 918.15 223.882C920.406 221.602 919.955 217.955 918.15 216.131C915.894 213.852 912.285 213.852 910.48 216.131C907.773 218.411 908.224 222.058 910.48 223.882ZM898.297 236.191C896.493 234.368 892.883 233.912 890.627 236.191C888.371 238.471 888.822 242.118 890.627 243.942C892.883 245.766 896.041 246.222 898.297 243.942C900.553 241.662 900.102 238.015 898.297 236.191ZM831.069 256.252C829.264 258.075 828.813 261.723 831.069 264.002C833.325 266.282 836.483 266.282 838.739 264.002C840.544 262.178 840.995 258.531 838.739 256.252C836.483 253.972 832.874 254.428 831.069 256.252ZM732.257 143.641C734.061 145.465 737.22 145.921 739.927 143.641C742.183 141.362 741.732 137.714 739.927 135.891C737.671 133.611 734.513 134.067 732.257 135.891C730.001 138.17 730.001 141.362 732.257 143.641ZM937.552 196.071C935.296 194.248 932.137 194.248 929.881 196.071C928.077 198.351 928.076 201.542 930.332 203.822C932.137 205.645 935.296 206.101 938.003 203.366C939.808 201.086 939.808 197.895 937.552 196.071ZM759.329 216.131C757.524 214.308 754.365 213.852 752.109 216.131C749.853 218.411 750.305 222.058 752.109 223.882C753.914 225.705 757.524 226.161 759.329 223.882C761.585 221.602 761.585 217.955 759.329 216.131ZM779.181 236.191C777.376 234.368 774.218 233.912 771.962 236.191C769.706 238.471 770.157 242.118 771.962 243.942C773.767 245.766 777.376 246.222 779.181 243.942C781.437 241.662 780.986 238.015 779.181 236.191ZM917.699 83.4609C919.504 81.6372 919.955 77.9899 917.699 76.1663C915.894 74.3426 912.736 73.8867 910.48 76.1663C908.224 78.4458 908.675 81.6372 910.48 83.4609C912.736 85.7404 915.894 85.2845 917.699 83.4609ZM818.887 264.002C820.691 262.178 821.143 258.531 818.887 256.252C817.082 254.428 813.923 253.972 811.667 256.252C809.411 258.531 809.863 261.723 811.667 264.002C813.923 266.282 817.082 265.826 818.887 264.002ZM870.774 256.252C868.97 258.075 868.518 261.267 870.774 263.546C873.03 265.826 876.189 265.826 877.994 263.546C879.798 261.723 880.25 258.531 877.994 256.252C875.738 253.972 872.579 254.884 870.774 256.252ZM930.332 103.065C932.137 104.889 935.296 105.345 937.552 103.065C939.808 100.786 939.356 97.5941 937.552 95.7705C935.296 93.4909 932.137 93.9468 930.332 95.7705C928.528 98.05 928.528 101.241 930.332 103.065ZM890.627 62.9448C892.432 64.7684 895.59 65.2244 897.846 62.9448C900.102 60.6652 899.651 57.4739 897.846 55.6502C895.59 53.3706 892.432 53.8266 890.627 55.6502C888.822 57.9298 888.822 61.1211 890.627 62.9448ZM759.329 83.0049C761.133 81.1813 761.585 77.9899 759.329 75.7103C757.524 73.8867 754.365 73.4308 752.109 75.7103C749.853 77.9899 750.305 81.1813 752.109 83.0049C754.365 85.2845 757.524 84.8286 759.329 83.0049ZM739.476 203.366C741.281 201.542 741.732 198.351 739.476 196.071C737.671 194.248 734.513 193.792 732.257 196.071C730.001 198.351 730.452 201.542 732.257 203.366C734.513 205.645 737.671 205.189 739.476 203.366ZM917.699 243.486C919.504 241.662 919.955 238.471 917.699 236.191C915.894 234.368 912.736 233.912 910.48 236.191C908.224 238.471 908.675 241.662 910.48 243.486C912.736 245.766 915.894 245.31 917.699 243.486ZM758.877 243.486C760.682 241.662 761.133 238.927 758.877 236.647C757.073 234.824 754.365 234.368 752.109 236.647C750.305 238.471 750.305 241.662 752.109 243.486C754.365 245.766 757.524 244.854 758.877 243.486ZM739.476 103.065C741.281 101.241 741.732 98.506 739.476 96.2264C737.671 94.4027 734.964 93.9468 732.708 96.2264C730.903 98.05 730.903 101.241 732.708 103.065C734.964 105.345 737.671 104.433 739.476 103.065ZM772.413 263.546C773.767 265.37 776.925 265.37 778.73 263.546C780.535 261.723 780.084 258.531 778.73 257.163C777.376 255.34 774.218 254.884 772.413 257.163C770.157 258.987 770.608 261.723 772.413 263.546ZM739.025 216.587C737.671 214.764 734.513 214.308 732.708 216.587C730.452 218.867 731.354 221.602 732.708 222.97C734.061 224.338 737.22 224.794 739.025 222.97C741.281 221.146 740.829 218.411 739.025 216.587ZM719.172 162.79C720.526 161.422 721.428 158.686 719.172 156.407C717.367 154.583 714.66 154.583 712.855 156.407C711.05 158.23 711.05 160.966 712.855 162.79C715.111 165.069 717.818 164.613 719.172 162.79ZM712.855 136.347C711.05 137.714 711.05 140.906 712.855 142.729C714.66 144.553 717.367 144.553 719.172 142.729C720.977 140.906 720.977 138.17 719.172 136.347C717.367 134.523 714.66 134.979 712.855 136.347ZM937.1 243.03C938.905 241.206 938.905 238.471 937.1 237.103C935.747 235.736 933.04 234.824 931.235 237.103C929.43 238.927 929.881 241.662 931.235 243.486C932.588 244.854 935.296 244.854 937.1 243.03ZM733.159 76.6222C731.354 77.9899 731.354 80.7254 733.159 82.549C734.964 84.3727 737.671 83.9168 739.025 82.549C740.378 81.1813 740.829 78.4458 739.025 76.6222C737.22 74.7985 734.513 74.7985 733.159 76.6222ZM917.248 263.09V257.163C917.248 257.163 912.736 255.34 911.382 257.163C909.577 258.987 909.577 261.723 911.382 263.09C913.187 265.37 915.894 264.458 917.248 263.09ZM713.306 116.742C711.953 118.11 711.502 120.846 713.306 122.669C715.111 124.493 717.367 124.493 719.172 122.669C720.526 121.302 720.977 118.566 719.172 116.742C717.367 114.919 714.66 115.375 713.306 116.742ZM753.012 257.163C751.658 258.531 751.207 261.267 753.012 262.634C754.365 264.002 757.073 264.458 758.426 262.634C759.78 261.267 759.78 258.531 758.426 257.163C756.621 255.34 754.365 255.796 753.012 257.163ZM733.159 237.103C731.805 238.471 731.354 241.207 733.159 242.574C734.513 243.942 737.22 244.398 739.025 242.574C740.378 241.207 740.378 238.471 739.025 237.103C736.769 235.28 734.513 235.736 733.159 237.103ZM718.721 96.6823C717.367 95.3146 715.111 94.8587 713.306 96.6823C711.502 98.506 711.953 100.786 713.306 102.153C715.111 103.977 717.367 103.521 718.721 102.153C720.526 100.786 720.526 98.506 718.721 96.6823ZM713.758 222.514C715.111 223.882 717.367 223.882 718.721 222.514C720.074 221.146 720.074 218.867 718.721 217.499C717.367 216.131 715.111 215.675 713.758 217.499C711.953 219.323 712.404 221.602 713.758 222.514ZM738.122 262.178C739.476 260.811 739.476 258.987 738.122 257.619C736.769 256.252 734.964 256.252 733.61 257.619C732.257 258.987 732.708 261.267 733.61 262.178C735.415 263.546 737.22 263.546 738.122 262.178ZM718.27 238.015C717.367 236.647 715.111 236.647 714.209 238.015C712.855 239.383 713.306 241.207 714.209 242.118C715.111 243.03 716.916 243.486 718.27 242.118C719.623 240.751 719.172 238.927 718.27 238.015ZM790.461 114.463C787.754 116.742 787.303 121.302 790.461 124.493C793.62 127.684 798.132 127.228 800.388 124.493C802.644 121.757 803.095 117.654 800.388 114.463C797.229 111.272 792.717 112.183 790.461 114.463ZM770.608 144.553C772.864 146.833 777.376 147.744 780.084 144.553C782.791 141.818 782.791 137.259 780.084 134.979C777.376 132.243 772.864 132.699 770.608 134.979C768.352 137.714 768.352 141.818 770.608 144.553ZM799.936 104.433C802.192 102.153 802.644 98.05 799.936 94.8587C797.229 92.1232 793.168 92.1232 790.461 94.8587C788.205 97.1382 787.754 101.697 790.461 104.433C793.62 107.168 797.68 106.712 799.936 104.433ZM771.06 114.919C768.804 117.198 768.352 121.757 771.06 124.037C773.316 126.317 777.376 126.773 780.084 124.037C782.791 121.302 782.791 117.198 780.084 114.919C777.376 112.183 773.316 112.639 771.06 114.919ZM839.642 83.9168C841.898 81.6372 841.898 77.0781 839.642 74.7985C837.386 72.519 833.325 72.063 830.618 74.7985C827.911 77.534 828.362 81.6372 830.618 83.9168C833.325 86.6522 837.386 86.6522 839.642 83.9168ZM810.765 74.7985C808.509 77.0781 808.058 81.1813 810.765 83.9168C813.021 86.1963 817.082 86.6522 819.789 83.9168C822.045 81.6372 822.496 77.534 819.789 74.7985C817.082 72.063 813.021 72.9749 810.765 74.7985ZM760.231 164.157C762.487 161.878 762.938 158.23 760.231 155.495C757.975 153.215 753.914 153.215 751.658 155.495C749.402 157.775 748.951 161.878 751.658 164.157C754.365 166.893 757.975 166.437 760.231 164.157ZM751.658 135.435C749.402 137.259 748.951 141.362 751.658 144.097C754.365 146.833 757.975 146.377 760.231 144.097C762.487 141.818 762.938 138.17 760.231 135.435C757.524 132.699 753.463 133.155 751.658 135.435ZM859.043 63.4007C861.299 61.5771 861.299 57.9298 859.043 55.1943C856.787 52.9147 853.178 52.9147 850.922 55.1943C848.666 57.4739 848.666 61.1212 850.922 63.4007C853.629 65.6803 857.238 65.2244 859.043 63.4007ZM739.476 183.762C741.281 181.938 741.732 178.291 739.476 176.467C737.671 174.643 734.513 174.187 732.257 176.467C730.001 178.747 730.452 181.938 732.257 184.217C734.513 186.041 737.671 185.585 739.476 183.762ZM719.172 176.923C717.818 175.099 714.66 175.099 712.855 176.923C711.05 178.747 711.502 181.482 712.855 183.306C714.209 184.673 716.916 185.129 719.172 183.306C720.977 181.026 720.977 178.291 719.172 176.923ZM719.172 196.983C717.818 195.615 715.562 195.159 713.306 196.983C711.502 198.807 711.953 201.542 713.306 202.91C715.111 204.734 717.367 204.278 719.172 202.91C720.526 201.086 720.526 198.351 719.172 196.983ZM738.573 61.1212C739.927 59.7534 739.927 57.4739 738.573 56.1061C737.22 54.7384 734.964 54.7384 733.61 56.1061C732.257 57.4739 732.257 59.7534 733.61 61.1212C734.964 62.033 737.22 62.033 738.573 61.1212ZM718.27 82.0931C719.623 80.7254 719.623 78.4458 718.27 77.0781C716.916 75.7103 714.66 75.7103 713.306 77.0781C711.953 78.4458 711.953 80.7254 713.306 82.0931C714.66 83.4609 716.916 83.4609 718.27 82.0931Z" fill="url(#paint0_linear_339_497)" fill-opacity="0.5"/>
<path d="M611.923 185.205C614.631 188.406 620.045 188.863 623.654 185.205C627.264 181.547 626.813 176.06 623.654 173.316C620.496 170.116 615.082 170.116 611.923 173.316C608.765 176.974 608.765 182.461 611.923 185.205ZM632.227 173.774C629.069 176.517 628.618 182.004 632.227 185.662C635.386 188.863 640.8 188.863 643.958 185.662C647.117 182.461 647.568 177.432 643.958 173.774C639.898 170.116 634.934 170.573 632.227 173.774ZM643.507 165.086C646.666 161.885 646.666 156.855 643.507 153.654C640.8 150.454 635.386 149.996 632.227 153.654C629.069 156.855 629.069 161.885 632.227 165.086C635.837 168.744 640.8 167.829 643.507 165.086ZM623.654 205.324C626.362 202.58 626.813 197.551 623.654 193.893C620.045 190.235 615.082 191.149 612.375 193.893C609.667 196.636 608.765 201.666 612.375 205.324C615.984 208.982 620.947 208.067 623.654 205.324ZM603.802 185.205C606.509 182.461 606.96 177.432 603.802 173.774C600.192 170.116 595.229 171.03 592.522 173.774C589.815 176.517 588.912 181.547 592.522 185.205C596.131 188.863 601.095 187.948 603.802 185.205ZM603.802 153.654C601.095 150.911 596.131 149.996 592.522 153.654C589.363 156.855 589.815 161.885 592.522 165.086C595.229 167.829 600.192 168.287 603.351 165.086C606.96 161.885 606.96 156.398 603.802 153.654ZM592.973 193.893C590.266 196.636 589.815 201.666 592.973 204.867C596.131 208.067 601.095 207.61 603.802 204.867C606.509 202.123 606.96 197.093 603.802 193.893C600.192 190.692 595.229 191.149 592.973 193.893ZM643.056 144.509C645.763 141.766 646.214 136.736 643.056 133.535C640.349 130.792 635.386 130.335 632.227 133.535C629.069 136.736 629.52 141.766 632.227 144.509C635.837 148.167 640.8 147.253 643.056 144.509ZM662.909 164.628C665.616 161.885 666.067 156.855 662.909 153.654C660.202 150.911 655.238 150.454 652.08 153.654C648.922 156.855 649.373 161.885 652.08 164.628C655.69 168.287 660.653 167.372 662.909 164.628ZM652.531 204.867C655.238 207.61 660.202 208.067 662.909 204.867C665.616 202.123 666.067 197.093 662.909 194.35C659.75 191.149 654.787 191.606 652.08 194.35C649.824 197.093 649.373 202.123 652.531 204.867ZM592.973 133.993C590.266 136.736 589.815 141.766 592.973 144.509C595.68 147.253 600.192 147.71 603.351 144.509C606.058 141.766 606.509 136.736 603.351 133.993C600.192 130.335 595.68 131.249 592.973 133.993ZM583.949 174.231C580.791 171.03 576.279 171.487 573.572 174.231C570.413 177.432 570.864 182.004 573.572 185.205C576.279 187.948 580.791 188.406 583.949 185.205C586.656 181.547 586.656 176.974 583.949 174.231ZM612.826 224.986C615.082 227.729 620.045 228.187 623.203 224.986C626.362 221.785 625.91 217.213 623.203 214.469C620.045 211.268 615.533 211.726 612.826 214.469C609.667 217.213 610.119 222.242 612.826 224.986ZM583.498 164.628C586.205 161.885 586.656 157.312 583.498 154.112C580.791 151.368 576.279 150.911 573.12 154.112C569.962 157.312 570.413 161.885 573.12 164.628C576.279 167.829 581.242 167.372 583.498 164.628ZM643.056 224.986C645.763 222.242 646.214 217.67 643.056 214.469C640.349 211.726 635.837 211.268 632.678 214.469C629.52 217.67 629.971 222.242 632.678 224.986C635.837 228.187 640.349 227.729 643.056 224.986ZM593.424 214.469C590.717 217.213 590.266 221.785 593.424 224.986C596.131 227.729 600.643 228.187 603.802 224.986C606.509 222.242 606.96 217.67 603.802 214.469C600.192 211.268 595.68 212.183 593.424 214.469ZM652.531 133.993C649.824 136.736 649.373 141.309 652.531 144.509C655.238 147.253 659.75 147.71 662.909 144.509C665.616 141.766 666.067 137.193 662.909 133.993C659.75 130.792 654.787 131.706 652.531 133.993ZM623.203 123.933C625.91 121.647 626.362 117.074 623.203 113.873C620.496 111.13 615.984 111.13 613.277 113.873C610.57 116.617 610.119 121.189 613.277 123.933C616.435 127.134 620.947 126.677 623.203 123.933ZM682.31 184.29C685.017 181.547 685.469 177.432 682.31 174.231C679.603 171.487 675.091 171.487 672.384 174.231C669.677 176.974 669.225 181.547 672.384 184.29C675.542 187.948 680.054 187.034 682.31 184.29ZM662.909 224.529C665.616 221.785 666.067 217.67 662.909 214.469C660.202 211.726 655.69 211.726 652.982 214.469C650.275 217.213 649.824 221.785 652.982 224.529C656.141 228.187 660.202 227.272 662.909 224.529ZM682.31 194.35C680.054 192.064 675.542 191.606 672.384 194.35C669.677 197.551 670.128 201.666 672.384 204.409C675.091 206.696 679.152 207.153 682.31 204.409C685.017 201.666 685.017 197.093 682.31 194.35ZM583.498 224.529C586.205 222.242 586.205 217.67 583.498 214.926C580.791 212.183 576.73 212.183 573.572 214.926C570.864 217.67 570.864 221.785 573.572 224.529C576.73 227.729 580.791 227.272 583.498 224.529ZM622.752 244.648C625.008 242.361 625.459 237.789 622.752 235.045C620.045 232.302 615.533 232.759 613.277 235.045C611.021 237.332 610.57 241.904 613.277 244.648C616.435 247.848 620.496 246.934 622.752 244.648ZM563.645 184.29C565.901 182.004 566.352 177.432 563.645 174.688C560.938 171.945 556.426 172.402 554.17 174.688C551.914 176.974 551.463 181.547 554.17 184.29C556.877 187.491 561.389 186.577 563.645 184.29ZM633.13 244.648C635.386 246.934 639.898 247.391 642.605 244.648C645.312 241.904 645.312 237.332 642.605 235.045C639.898 232.302 635.386 232.759 633.13 235.045C630.422 237.789 630.422 241.904 633.13 244.648ZM672.835 144.052C675.091 146.338 679.603 147.253 682.31 144.052C685.017 141.309 685.017 137.193 682.31 134.45C679.603 131.706 675.091 131.706 672.835 134.45C670.128 137.193 670.128 141.309 672.835 144.052ZM563.194 194.807C560.938 192.521 556.877 191.606 553.719 194.807C551.012 197.551 551.463 202.123 553.719 204.409C556.426 207.153 560.487 207.153 563.194 204.409C565.901 201.666 565.901 197.093 563.194 194.807ZM602.899 235.045C600.643 232.759 596.583 231.845 593.424 235.045C590.717 237.789 591.168 242.361 593.424 244.648C596.131 247.391 600.192 247.391 602.899 244.648C605.607 241.904 605.607 237.332 602.899 235.045ZM682.31 224.529C684.566 222.242 685.017 218.127 682.31 214.926C679.603 212.183 675.542 212.183 672.835 214.926C670.579 217.213 670.128 221.785 672.835 224.529C675.542 227.272 680.054 226.815 682.31 224.529ZM652.982 244.648C655.238 246.934 659.299 247.391 662.006 244.648C664.714 241.904 664.262 237.789 662.006 235.503C659.299 232.759 655.238 233.216 652.982 235.503C650.726 237.789 650.275 241.904 652.982 244.648ZM701.712 183.833C703.968 181.547 704.419 176.974 701.712 174.688C699.456 172.402 695.395 171.945 692.688 174.688C689.981 177.432 690.432 181.547 692.688 183.833C695.395 187.034 699.456 186.577 701.712 183.833ZM701.712 163.714C703.968 161.428 704.419 157.312 701.712 154.569C699.005 151.825 695.395 151.825 692.688 154.569C690.432 156.855 689.981 160.97 692.688 163.714C695.846 166.915 699.907 166 701.712 163.714ZM642.154 103.357C644.41 101.07 644.861 96.9551 642.154 94.2116C639.898 91.468 635.837 91.468 633.13 94.2116C630.874 96.4978 630.422 100.613 633.13 103.357C636.288 106.557 640.349 105.643 642.154 103.357ZM583.047 244.19C585.303 241.904 585.754 237.789 583.047 235.045C580.34 232.302 576.73 232.759 574.023 235.045C571.767 237.332 571.316 241.447 574.023 244.19C576.73 247.391 580.791 246.477 583.047 244.19ZM563.194 224.071C565.45 221.785 565.901 217.67 563.194 214.926C560.487 212.183 556.877 212.183 554.17 214.926C551.914 217.213 551.463 221.328 554.17 224.071C556.877 227.272 560.938 226.358 563.194 224.071ZM672.835 114.331C670.579 116.617 670.128 120.732 672.835 123.476C675.542 126.219 679.603 125.762 681.859 123.476C684.115 121.189 684.566 117.074 681.859 114.331C679.152 111.587 675.091 112.502 672.835 114.331ZM692.688 195.264C690.432 197.551 689.981 201.666 692.688 204.409C694.944 206.696 699.005 207.153 701.712 204.409C703.968 202.123 704.419 198.008 701.712 195.264C699.005 192.064 694.944 192.978 692.688 195.264ZM622.301 264.31C624.557 262.023 625.008 258.365 622.301 255.622C620.045 253.336 615.984 253.336 613.728 255.622C611.472 257.908 611.021 262.023 613.728 264.31C616.435 267.053 620.496 266.596 622.301 264.31ZM662.006 103.357C664.262 101.07 664.714 96.9551 662.006 94.6688C659.75 92.3826 655.69 92.3826 653.434 94.6688C651.178 96.9551 651.178 101.07 653.434 103.357C656.141 106.1 660.202 105.643 662.006 103.357ZM701.712 143.595C703.968 141.309 704.419 137.651 701.712 134.907C699.456 132.621 695.395 132.621 693.139 134.907C690.883 137.193 690.432 141.309 693.139 143.595C695.846 146.338 699.456 145.881 701.712 143.595ZM633.581 255.622C631.325 257.451 630.874 261.566 633.581 264.31C636.288 267.053 639.898 266.596 642.154 264.31C644.41 262.023 644.861 258.365 642.154 255.622C639.446 252.878 635.386 253.336 633.581 255.622ZM563.194 123.476C565.45 121.189 565.901 117.531 563.194 114.788C560.487 112.044 556.426 112.502 554.621 114.788C552.816 117.074 551.914 120.732 554.621 123.476C557.328 126.219 560.938 125.762 563.194 123.476ZM534.769 203.952C536.573 206.238 540.634 206.696 543.341 203.952C546.048 201.209 545.597 197.551 543.341 195.264C541.085 192.978 537.025 192.978 534.769 195.264C532.061 198.008 532.513 201.666 534.769 203.952ZM701.712 215.384C699.456 213.097 695.395 213.097 693.139 215.384C690.883 217.67 690.883 221.785 693.139 224.071C694.944 225.9 699.005 226.815 701.712 224.071C703.968 221.328 703.517 217.67 701.712 215.384ZM562.743 244.19C564.999 241.904 564.999 238.246 562.743 235.96C560.487 233.674 556.426 233.674 554.17 235.96C551.914 238.246 551.914 241.904 554.17 244.19C557.328 246.934 560.938 246.019 562.743 244.19ZM542.89 143.595C545.146 141.309 545.597 137.651 542.89 135.364C540.183 132.621 536.573 133.535 534.769 135.364C532.513 137.193 532.061 141.309 534.769 143.595C537.025 145.881 540.634 145.424 542.89 143.595ZM701.261 114.788C699.005 112.502 695.395 112.502 693.139 114.788C690.883 117.074 690.883 121.189 693.139 123.018C694.944 124.847 698.553 125.762 701.261 123.018C703.968 120.732 703.517 117.074 701.261 114.788ZM542.89 223.614C545.146 221.328 545.146 217.67 542.89 215.384C541.085 213.555 537.476 212.64 534.769 215.384C532.061 218.127 532.964 221.785 534.769 223.614C537.025 225.9 540.634 225.9 542.89 223.614ZM562.743 95.1261C560.487 92.8398 556.877 92.8398 555.072 95.1261C552.816 97.4123 553.268 101.07 555.072 102.899C556.877 104.728 560.487 105.186 562.743 102.899C564.999 100.613 564.548 96.9551 562.743 95.1261ZM542.89 115.245C541.085 113.416 537.476 112.959 535.22 115.245C532.964 117.531 533.415 121.189 535.22 123.018C537.476 124.847 540.634 125.305 542.89 123.018C545.146 120.732 544.695 117.074 542.89 115.245ZM515.367 163.257C517.172 165.086 520.33 165.543 523.037 163.257C525.293 160.97 524.842 157.312 523.037 155.483C520.781 153.197 517.623 153.654 515.367 155.483C513.111 157.77 513.111 160.97 515.367 163.257ZM542.439 235.96C540.634 234.131 537.476 233.674 535.22 235.96C532.964 238.246 533.415 241.904 535.22 243.733C537.025 245.562 540.634 246.019 542.439 243.733C544.695 241.447 544.695 237.789 542.439 235.96ZM562.292 256.079C560.487 254.25 557.328 253.793 555.072 256.079C552.816 258.365 553.268 262.023 555.072 263.852C556.877 265.681 560.487 266.139 562.292 263.852C564.548 261.566 564.096 257.908 562.292 256.079ZM700.809 102.899C702.614 101.07 703.065 97.4123 700.809 95.5833C699.005 93.7543 695.846 93.2971 693.59 95.5833C691.334 97.8696 691.785 101.07 693.59 102.899C695.846 105.186 699.005 104.728 700.809 102.899ZM515.367 143.138C517.623 144.967 520.781 144.967 522.586 143.138C524.391 141.309 524.391 138.108 522.586 135.822C520.33 133.535 517.172 133.993 515.367 135.822C513.562 137.651 513.111 140.851 515.367 143.138ZM673.737 82.323C675.542 84.152 678.701 84.6093 680.957 82.323C683.213 80.0367 682.761 76.836 680.957 75.0069C678.701 72.7207 675.542 73.1779 673.737 75.0069C671.933 77.2932 671.933 80.494 673.737 82.323ZM542.439 102.442C544.244 100.613 544.695 97.4123 542.439 95.1261C540.634 93.2971 537.476 92.8398 535.22 95.1261C532.964 97.4123 533.415 100.613 535.22 102.442C537.476 104.728 540.634 104.271 542.439 102.442ZM522.586 223.157C524.391 221.328 524.842 218.127 522.586 215.841C520.781 214.012 517.623 213.555 515.367 215.841C513.111 218.127 513.562 221.328 515.367 223.157C517.623 225.443 520.781 224.986 522.586 223.157ZM555.072 75.4642C553.268 77.2932 553.268 80.494 555.072 82.323C556.877 84.152 560.036 84.152 561.84 82.323C563.645 80.494 563.645 77.2932 561.84 75.4642C560.036 73.1779 556.877 73.6352 555.072 75.4642ZM541.988 263.395C543.792 261.566 544.244 258.823 541.988 256.536C540.183 254.707 537.476 254.25 535.22 256.536C533.415 258.365 533.415 261.566 535.22 263.395C537.476 265.681 540.634 264.767 541.988 263.395ZM522.586 122.561C524.391 120.732 524.842 117.989 522.586 115.702C520.781 113.873 518.074 113.416 515.818 115.702C514.013 117.531 514.013 120.732 515.818 122.561C518.074 124.847 520.781 123.933 522.586 122.561ZM502.282 182.461C503.636 181.09 504.538 178.346 502.282 176.06C500.477 174.231 497.77 174.231 495.966 176.06C494.161 177.889 494.161 180.632 495.966 182.461C498.221 184.748 500.929 184.29 502.282 182.461ZM495.966 155.941C494.161 157.312 494.161 160.513 495.966 162.342C497.77 164.171 500.477 164.171 502.282 162.342C504.087 160.513 504.087 157.77 502.282 155.941C500.477 154.112 497.77 154.569 495.966 155.941ZM496.417 136.279C495.063 137.651 494.612 140.394 496.417 142.223C498.221 144.052 500.477 144.052 502.282 142.223C503.636 140.851 504.087 138.108 502.282 136.279C500.477 134.45 497.77 134.907 496.417 136.279ZM516.269 256.994C514.916 258.365 514.465 261.109 516.269 262.481C517.623 263.852 520.33 264.31 522.135 262.481C523.489 261.109 523.489 258.365 522.135 256.994C519.879 255.165 517.623 255.622 516.269 256.994ZM496.868 242.361C498.221 243.733 500.477 243.733 501.831 242.361C503.185 240.99 503.185 238.703 501.831 237.332C500.477 235.96 498.221 235.503 496.868 237.332C495.063 239.161 495.514 241.447 496.868 242.361ZM481.978 182.004C483.332 180.632 483.332 178.803 481.978 177.432C481.076 176.517 478.82 175.603 477.466 177.432C476.113 178.803 476.113 181.09 477.466 182.461C478.82 183.376 481.076 182.919 481.978 182.004ZM477.015 161.885C478.369 163.257 480.625 163.257 481.527 161.885C482.43 160.97 482.881 158.684 481.527 157.312C480.174 155.941 477.918 155.941 477.015 157.312C476.113 158.227 475.662 160.056 477.015 161.885ZM521.233 282.142C522.586 280.771 522.586 278.942 521.233 277.57C519.879 276.198 518.074 276.198 516.721 277.57C515.367 278.942 515.818 281.228 516.721 282.142C518.525 283.514 520.33 283.514 521.233 282.142ZM553.719 164.171C555.975 166.457 560.487 167.372 563.194 164.171C565.901 161.428 565.901 156.855 563.194 154.569C560.487 151.825 555.975 152.283 553.719 154.569C551.463 157.312 551.463 161.428 553.719 164.171ZM583.047 123.933C585.303 121.647 585.754 117.531 583.047 114.331C583.047 114.331 576.279 111.587 573.572 114.331C571.316 116.617 570.864 121.189 573.572 123.933C576.73 126.677 580.791 126.219 583.047 123.933ZM534.769 155.026C532.513 156.855 532.061 160.97 534.769 163.714C537.476 166.457 541.085 166 543.341 163.714C545.597 161.428 546.048 157.77 543.341 155.026C540.634 152.283 536.573 152.74 534.769 155.026ZM515.367 183.376C517.623 185.662 520.781 185.662 523.037 183.376C524.842 181.09 525.293 177.889 523.037 175.603C520.781 173.316 517.172 173.774 515.367 175.603C513.562 177.432 513.111 181.09 515.367 183.376ZM522.586 203.495C524.391 201.666 524.842 198.008 522.586 196.179C520.781 194.35 517.623 193.893 515.367 196.179C513.111 198.465 513.562 201.666 515.367 203.952C517.623 205.781 520.781 205.324 522.586 203.495ZM502.282 196.636C500.929 194.807 497.77 194.807 495.966 196.636C494.161 198.465 494.612 201.209 495.966 203.038C497.319 204.409 500.026 204.867 502.282 203.038C504.087 200.751 504.087 198.008 502.282 196.636ZM502.282 216.755C500.929 215.384 498.673 214.926 496.417 216.755C494.612 218.584 495.063 221.328 496.417 222.7C498.221 224.529 500.477 224.071 502.282 222.7C503.636 220.871 503.636 218.127 502.282 216.755ZM477.918 241.447C478.82 242.361 480.174 242.361 481.076 241.447C481.978 240.532 481.978 239.161 481.076 238.246C480.174 237.332 478.369 237.332 477.918 238.246C477.015 239.161 477.015 240.532 477.918 241.447ZM521.684 80.494C523.037 79.1222 523.037 76.836 521.684 75.4642C520.33 74.0924 518.074 74.0924 516.721 75.4642C515.367 76.836 515.367 79.1222 516.721 80.494C518.074 81.4085 520.33 81.4085 521.684 80.494Z" fill="url(#paint1_linear_339_497)" fill-opacity="0.5"/>
</g>
<defs>
<linearGradient id="paint0_linear_339_497" x1="816.32" y1="73.0268" x2="816.32" y2="322.997" gradientUnits="userSpaceOnUse">
<stop stop-color="#F7B114"/>
<stop offset="0.2" stop-color="#F7B114"/>
<stop offset="0.541" stop-color="#62B67C"/>
<stop offset="1" stop-color="#62B67C"/>
</linearGradient>
<linearGradient id="paint1_linear_339_497" x1="599.431" y1="92.4346" x2="599.431" y2="343.14" gradientUnits="userSpaceOnUse">
<stop stop-color="#F7B114"/>
<stop offset="0.2" stop-color="#F7B114"/>
<stop offset="0.541" stop-color="#62B67C"/>
<stop offset="1" stop-color="#62B67C"/>
</linearGradient>
<clipPath id="clip0_339_497">
<rect width="838" height="567" fill="white"/>
</clipPath>
</defs>
</svg>
