<svg width="838" height="446" viewBox="0 0 838 446" fill="none" xmlns="http://www.w3.org/2000/svg">
<g clip-path="url(#clip0_339_887)">
<path d="M779.553 284.166C781.944 286.981 786.725 287.383 789.912 284.166C793.1 280.949 792.701 276.123 789.912 273.71C787.123 270.895 782.342 270.895 779.553 273.71C776.764 276.927 776.764 281.753 779.553 284.166ZM779.952 256.418C777.163 258.831 776.764 263.657 779.952 266.874C782.741 269.689 787.522 269.689 790.311 266.874C793.1 264.059 793.498 259.635 790.311 256.418C786.725 253.201 782.342 253.603 779.952 256.418ZM807.443 266.472C810.232 263.657 810.232 259.233 807.443 256.418C805.053 253.603 800.272 253.201 797.483 256.418C794.694 259.233 794.694 263.657 797.483 266.472C800.67 269.689 805.053 268.884 807.443 266.472ZM789.912 301.86C792.303 299.447 792.701 295.023 789.912 291.806C786.725 288.589 782.342 289.393 779.952 291.806C777.561 294.219 776.764 298.643 779.952 301.86C783.139 305.077 787.522 304.273 789.912 301.86ZM772.381 284.166C774.772 281.753 775.17 277.329 772.381 274.112C769.194 270.895 764.811 271.699 762.421 274.112C760.03 276.525 759.233 280.949 762.421 284.166C765.608 287.383 769.991 286.579 772.381 284.166ZM807.443 291.806C805.053 289.393 800.67 288.589 797.483 291.806C794.694 294.621 795.092 299.045 797.483 301.86C799.873 304.273 804.256 304.675 807.045 301.86C810.232 299.045 809.834 294.219 807.443 291.806ZM762.819 291.806C760.428 294.219 760.03 298.643 762.819 301.458C765.608 304.273 769.991 303.87 772.381 301.458C774.772 299.045 775.17 294.621 772.381 291.806C769.194 288.991 764.811 289.393 762.819 291.806ZM780.35 248.375C782.741 250.788 786.725 251.593 789.912 248.375C792.701 245.56 792.303 241.137 789.912 238.724C787.123 235.909 783.139 235.909 780.35 238.724C777.561 241.539 777.561 245.963 780.35 248.375ZM807.045 248.375C809.436 245.963 809.834 241.539 807.045 238.724C804.654 236.311 800.272 235.909 797.483 238.724C794.694 241.539 795.092 245.963 797.483 248.375C800.67 251.593 805.053 250.788 807.045 248.375ZM824.576 266.069C826.967 263.657 827.365 259.233 824.576 256.418C822.185 254.005 817.803 253.603 815.014 256.418C812.225 259.233 812.623 263.657 815.014 266.069C818.201 269.287 822.584 268.482 824.576 266.069ZM815.412 301.458C817.803 303.87 822.185 304.273 824.576 301.458C826.967 299.045 827.365 294.621 824.576 292.208C821.787 289.393 817.404 289.796 815.014 292.208C813.021 294.621 812.623 299.045 815.412 301.458ZM754.85 274.514C752.061 271.699 748.077 272.102 745.686 274.514C742.897 277.329 743.296 281.351 745.686 284.166C748.077 286.579 752.061 286.981 754.85 284.166C757.241 280.949 757.241 276.927 754.85 274.514ZM780.35 319.152C782.342 321.565 786.725 321.967 789.514 319.152C792.303 316.337 791.905 312.315 789.514 309.903C786.725 307.088 782.741 307.49 780.35 309.903C777.561 312.315 777.959 316.739 780.35 319.152ZM807.045 319.152C809.436 316.739 809.834 312.717 807.045 309.903C804.654 307.49 800.67 307.088 797.881 309.903C795.092 312.717 795.49 316.739 797.881 319.152C800.67 321.967 804.654 321.565 807.045 319.152ZM763.217 309.903C760.827 312.315 760.428 316.337 763.217 319.152C765.608 321.565 769.592 321.967 772.381 319.152C774.772 316.739 775.17 312.717 772.381 309.903C769.194 307.088 765.21 307.892 763.217 309.903ZM745.288 301.458C747.679 303.87 751.663 304.273 754.452 301.458C756.842 299.045 757.241 295.023 754.452 292.208C751.663 289.393 747.679 289.796 745.288 292.208C743.296 294.621 742.897 298.643 745.288 301.458ZM815.412 239.126C813.021 241.539 812.623 245.56 815.412 248.375C817.803 250.788 821.787 251.19 824.576 248.375C826.967 245.963 827.365 241.941 824.576 239.126C821.787 236.311 817.404 237.116 815.412 239.126ZM789.514 230.279C791.905 228.269 792.303 224.247 789.514 221.432C787.123 219.019 783.139 219.019 780.748 221.432C778.358 223.845 777.959 227.866 780.748 230.279C783.537 233.094 787.522 232.692 789.514 230.279ZM841.709 283.361C844.099 280.949 844.498 277.329 841.709 274.514C839.318 272.102 835.334 272.102 832.943 274.514C830.552 276.927 830.154 280.949 832.943 283.361C835.732 286.579 839.716 285.774 841.709 283.361ZM824.576 318.75C826.967 316.337 827.365 312.717 824.576 309.903C822.185 307.49 818.201 307.49 815.811 309.903C813.42 312.315 813.021 316.337 815.811 318.75C818.6 321.967 822.185 321.162 824.576 318.75ZM841.709 292.208C839.716 290.198 835.732 289.796 832.943 292.208C830.552 295.023 830.951 298.643 832.943 301.055C835.334 303.066 838.92 303.468 841.709 301.055C844.099 298.643 844.099 294.621 841.709 292.208ZM754.452 318.75C756.842 316.739 756.842 312.717 754.452 310.305C752.061 307.892 748.475 307.892 745.686 310.305C743.296 312.717 743.296 316.337 745.686 318.75C748.475 321.565 752.061 321.162 754.452 318.75ZM789.116 336.444C791.108 334.433 791.506 330.412 789.116 327.999C786.725 325.586 782.741 325.988 780.748 327.999C778.756 330.009 778.358 334.031 780.748 336.444C783.537 339.259 787.123 338.454 789.116 336.444ZM736.921 283.361C738.913 281.351 739.311 277.329 736.921 274.917C734.53 272.504 730.546 272.906 728.554 274.917C726.562 276.927 726.163 280.949 728.554 283.361C730.944 286.176 734.929 285.372 736.921 283.361ZM798.279 336.444C800.272 338.454 804.256 338.856 806.647 336.444C809.037 334.031 809.037 330.009 806.647 327.999C804.256 325.586 800.272 325.988 798.279 327.999C795.889 330.412 795.889 334.031 798.279 336.444ZM833.342 247.973C835.334 249.984 839.318 250.788 841.709 247.973C844.099 245.56 844.099 241.941 841.709 239.528C839.318 237.116 835.334 237.116 833.342 239.528C830.951 241.941 830.951 245.56 833.342 247.973ZM815.811 230.279C817.803 232.29 821.787 232.692 824.178 230.279C826.568 227.866 826.568 223.845 824.178 221.834C821.787 219.421 817.803 219.824 815.811 221.834C813.42 224.247 813.42 227.866 815.811 230.279ZM771.585 327.999C769.592 325.988 766.006 325.184 763.217 327.999C760.827 330.412 761.225 334.433 763.217 336.444C765.608 338.856 769.194 338.856 771.585 336.444C773.975 334.031 773.975 330.009 771.585 327.999ZM841.709 318.75C843.701 316.739 844.099 313.12 841.709 310.305C839.318 307.892 835.732 307.892 833.342 310.305C831.349 312.315 830.951 316.337 833.342 318.75C835.732 321.162 839.716 320.76 841.709 318.75ZM815.811 336.444C817.803 338.454 821.389 338.856 823.779 336.444C826.17 334.031 825.771 330.412 823.779 328.401C821.389 325.988 817.803 326.39 815.811 328.401C813.818 330.412 813.42 334.031 815.811 336.444ZM858.841 265.265C860.833 263.255 861.232 259.635 858.841 257.222C856.451 254.81 853.263 254.81 850.873 257.222C848.88 259.233 848.482 262.852 850.873 265.265C853.662 268.08 857.247 267.276 858.841 265.265ZM806.248 212.183C808.24 210.172 808.639 206.553 806.248 204.14C804.256 201.727 800.67 201.727 798.279 204.14C796.287 206.151 795.889 209.77 798.279 212.183C801.069 214.998 804.654 214.194 806.248 212.183ZM754.053 336.041C756.046 334.031 756.444 330.412 754.053 327.999C751.663 325.586 748.475 325.988 746.085 327.999C744.093 330.009 743.694 333.629 746.085 336.041C748.475 338.856 752.061 338.052 754.053 336.041ZM736.522 318.347C738.515 316.337 738.913 312.717 736.522 310.305C734.132 307.892 730.944 307.892 728.554 310.305C726.562 312.315 726.163 315.935 728.554 318.347C730.944 321.162 734.53 320.358 736.522 318.347ZM833.342 221.834C831.349 223.845 830.951 227.464 833.342 229.877C835.732 232.29 839.318 231.888 841.31 229.877C843.302 227.866 843.701 224.247 841.31 221.834C838.92 219.421 835.334 220.226 833.342 221.834ZM850.873 293.013C848.88 295.023 848.482 298.643 850.873 301.055C852.865 303.066 856.451 303.468 858.841 301.055C860.833 299.045 861.232 295.426 858.841 293.013C856.451 290.198 852.865 291.002 850.873 293.013ZM788.717 353.736C790.709 351.725 791.108 348.508 788.717 346.095C786.725 344.084 783.139 344.084 781.147 346.095C779.155 348.106 778.756 351.725 781.147 353.736C783.537 356.148 787.123 355.746 788.717 353.736ZM823.779 212.183C825.771 210.172 826.17 206.553 823.779 204.542C821.787 202.532 818.201 202.532 816.209 204.542C814.217 206.553 814.217 210.172 816.209 212.183C818.6 214.596 822.185 214.194 823.779 212.183ZM858.841 247.571C860.833 245.56 861.232 242.343 858.841 239.931C856.849 237.92 853.263 237.92 851.271 239.931C849.279 241.941 848.88 245.56 851.271 247.571C853.662 249.984 856.849 249.582 858.841 247.571ZM798.678 346.095C796.686 347.704 796.287 351.323 798.678 353.736C801.069 356.148 804.256 355.746 806.248 353.736C808.24 351.725 808.639 348.508 806.248 346.095C803.858 343.682 800.272 344.084 798.678 346.095ZM833.74 328.401C831.748 330.009 831.349 333.629 833.74 336.041C836.131 338.454 839.318 338.052 841.31 336.041C843.302 334.031 843.701 330.814 841.31 328.401C838.92 325.988 835.334 326.39 833.74 328.401ZM736.522 229.877C738.515 227.866 738.913 224.649 736.522 222.236C734.132 219.824 730.546 220.226 728.952 222.236C727.358 224.247 726.562 227.464 728.952 229.877C731.343 232.29 734.53 231.888 736.522 229.877ZM746.483 212.183C748.077 214.194 751.663 214.596 754.053 212.183C756.444 209.77 756.046 206.553 754.053 204.542C752.061 202.532 748.475 202.532 746.483 204.542C744.093 206.955 744.093 210.172 746.483 212.183ZM711.421 300.653C713.015 302.664 716.601 303.066 718.991 300.653C721.382 298.241 720.984 295.023 718.991 293.013C716.999 291.002 713.413 291.002 711.421 293.013C709.031 295.426 709.429 298.643 711.421 300.653ZM763.616 353.736C765.21 355.746 768.795 356.148 771.186 353.736C773.577 351.323 773.178 348.106 771.186 346.095C769.194 344.084 765.608 344.084 763.616 346.095C761.624 348.508 761.624 351.725 763.616 353.736ZM858.841 310.707C856.849 308.696 853.263 308.696 851.271 310.707C849.279 312.717 849.279 316.337 851.271 318.347C852.865 319.956 856.451 320.76 858.841 318.347C860.833 315.935 860.435 312.717 858.841 310.707ZM736.124 336.041C738.116 334.031 738.116 330.814 736.124 328.803C734.132 326.792 730.546 326.792 728.554 328.803C726.562 330.814 726.562 334.031 728.554 336.041C731.343 338.454 734.53 337.65 736.124 336.041ZM823.779 353.736C825.771 351.725 826.17 348.508 823.779 346.497C821.389 344.084 818.201 344.889 816.607 346.497C814.615 348.106 814.217 351.725 816.607 353.736C818.201 355.746 821.787 355.746 823.779 353.736ZM718.593 247.571C720.585 245.56 720.984 242.343 718.593 240.333C716.202 237.92 713.015 238.724 711.421 240.333C709.429 241.941 709.031 245.56 711.421 247.571C713.413 249.582 716.601 249.18 718.593 247.571ZM840.912 204.542C838.92 202.532 835.732 202.532 833.74 204.542C831.748 206.553 831.748 210.172 833.74 211.781C835.334 213.389 838.521 214.194 840.912 211.781C843.302 209.77 842.904 206.553 840.912 204.542ZM858.443 222.236C856.451 220.226 853.263 220.226 851.271 222.236C849.279 224.247 849.279 227.866 851.271 229.475C852.865 231.083 856.052 231.888 858.443 229.475C860.833 227.464 860.435 224.247 858.443 222.236ZM753.655 353.333C755.647 351.323 755.647 348.106 753.655 346.095C752.061 344.486 748.874 343.682 746.483 346.095C744.093 348.508 744.89 351.725 746.483 353.333C748.475 355.746 751.663 355.344 753.655 353.333ZM718.593 317.945C720.585 315.935 720.585 312.717 718.593 310.707C716.999 309.098 713.812 308.294 711.421 310.707C709.031 313.12 709.827 316.337 711.421 317.945C713.413 319.956 716.601 319.956 718.593 317.945ZM875.974 282.557C877.966 280.949 877.966 277.329 875.974 275.319C873.982 273.308 871.193 273.308 868.802 275.319C866.81 277.329 866.81 280.546 868.802 282.557C871.193 284.97 874.38 284.568 875.974 282.557ZM764.014 187.25C762.022 188.859 762.022 192.076 764.014 194.489C766.006 196.097 768.795 196.5 770.788 194.489C772.78 192.478 772.78 189.261 770.788 187.25C768.795 184.838 765.608 185.24 764.014 187.25ZM851.669 335.639C853.263 337.248 856.451 337.65 858.443 335.639C860.435 333.629 860.037 330.412 858.443 328.803C856.451 326.792 853.263 326.792 851.669 328.803C849.279 330.814 849.677 334.031 851.669 335.639ZM840.912 346.497C839.318 344.889 836.131 344.486 834.138 346.497C832.146 348.508 832.545 351.725 834.138 353.333C836.131 354.942 838.92 355.344 840.912 353.333C842.904 351.323 842.505 348.106 840.912 346.497ZM781.545 364.191C779.952 365.8 779.553 369.017 781.545 371.027C783.537 373.038 786.326 373.038 788.319 371.027C789.912 369.419 790.311 366.202 788.319 364.191C786.326 362.18 783.139 362.583 781.545 364.191ZM694.289 264.863C695.882 266.472 698.671 266.874 701.062 264.863C703.054 262.852 702.656 259.635 701.062 258.027C699.07 256.016 696.281 256.418 694.289 258.027C692.296 260.037 692.296 262.852 694.289 264.863ZM875.575 311.109C873.583 309.5 870.794 309.5 868.802 311.109C867.208 313.12 867.208 315.935 869.2 317.945C870.794 319.554 873.583 319.956 875.974 317.543C877.568 315.532 877.568 312.717 875.575 311.109ZM718.195 328.803C716.601 327.194 713.812 326.792 711.82 328.803C709.827 330.814 710.226 334.031 711.82 335.639C713.413 337.248 716.601 337.65 718.195 335.639C720.187 333.629 720.187 330.412 718.195 328.803ZM735.726 346.497C734.132 344.889 731.343 344.486 729.351 346.497C727.359 348.508 727.757 351.725 729.351 353.333C730.944 354.942 734.132 355.344 735.726 353.333C737.718 351.323 737.319 348.106 735.726 346.497ZM858.044 211.781C859.638 210.172 860.036 206.955 858.044 205.347C856.451 203.738 853.662 203.336 851.669 205.347C849.677 207.357 850.076 210.172 851.669 211.781C853.662 213.792 856.451 213.389 858.044 211.781ZM770.788 371.027C772.381 369.419 772.78 366.202 770.788 364.191C769.194 362.583 766.405 362.18 764.413 364.191C762.421 366.202 762.819 369.017 764.413 371.027C766.405 373.038 769.194 372.636 770.788 371.027ZM816.607 364.191C815.014 365.8 814.615 368.615 816.607 370.625C818.6 372.636 821.389 372.636 822.982 370.625C824.576 369.017 824.974 366.202 822.982 364.191C820.99 362.18 818.201 362.985 816.607 364.191ZM869.2 229.073C870.794 230.681 873.583 231.083 875.575 229.073C877.568 227.062 877.169 224.247 875.575 222.639C873.583 220.628 870.794 221.03 869.2 222.639C867.607 224.649 867.607 227.464 869.2 229.073ZM834.138 193.685C835.732 195.293 838.521 195.695 840.513 193.685C842.505 191.674 842.107 188.859 840.513 187.25C838.521 185.24 835.732 185.642 834.138 187.25C832.545 189.261 832.545 192.076 834.138 193.685ZM718.195 211.379C719.788 209.77 720.187 206.955 718.195 204.944C716.601 203.336 713.812 202.934 711.82 204.944C709.827 206.955 710.226 209.77 711.82 211.379C713.812 213.389 716.601 212.987 718.195 211.379ZM700.664 317.543C702.257 315.935 702.656 313.12 700.664 311.109C699.07 309.5 696.281 309.098 694.289 311.109C692.296 313.12 692.695 315.935 694.289 317.543C696.281 319.554 699.07 319.152 700.664 317.543ZM858.044 352.931C859.638 351.323 860.036 348.508 858.044 346.497C856.451 344.889 853.662 344.486 851.669 346.497C849.677 348.508 850.076 351.323 851.669 352.931C853.662 354.942 856.451 354.54 858.044 352.931ZM717.796 352.931C719.39 351.323 719.788 348.91 717.796 346.899C716.202 345.291 713.812 344.889 711.82 346.899C710.226 348.508 710.226 351.323 711.82 352.931C713.812 354.942 716.601 354.138 717.796 352.931ZM700.664 229.073C702.257 227.464 702.656 225.051 700.664 223.041C699.07 221.432 696.679 221.03 694.687 223.041C693.093 224.649 693.093 227.464 694.687 229.073C696.679 231.083 699.07 230.279 700.664 229.073ZM729.749 370.625C730.944 372.234 733.733 372.234 735.327 370.625C736.921 369.017 736.522 366.202 735.327 364.995C734.132 363.387 731.343 362.985 729.749 364.995C727.757 366.604 728.155 369.017 729.749 370.625ZM700.265 329.205C699.07 327.597 696.281 327.194 694.687 329.205C692.695 331.216 693.492 333.629 694.687 334.835C695.882 336.041 698.671 336.444 700.265 334.835C702.257 333.227 701.859 330.814 700.265 329.205ZM682.734 281.753C683.929 280.546 684.726 278.134 682.734 276.123C681.14 274.514 678.75 274.514 677.156 276.123C675.562 277.731 675.562 280.144 677.156 281.753C679.148 283.764 681.539 283.361 682.734 281.753ZM677.156 258.429C675.562 259.635 675.562 262.45 677.156 264.059C678.75 265.667 681.14 265.667 682.734 264.059C684.328 262.45 684.328 260.037 682.734 258.429C681.14 256.82 678.75 257.222 677.156 258.429ZM875.177 352.529C876.771 350.921 876.771 348.508 875.177 347.301C873.982 346.095 871.591 345.291 869.997 347.301C868.404 348.91 868.802 351.323 869.997 352.931C871.193 354.138 873.583 354.138 875.177 352.529ZM695.085 205.749C693.492 206.955 693.492 209.368 695.085 210.977C696.679 212.585 699.07 212.183 700.265 210.977C701.46 209.77 701.859 207.357 700.265 205.749C698.671 204.14 696.281 204.14 695.085 205.749ZM857.646 370.223V364.995C857.646 364.995 853.662 363.387 852.466 364.995C850.873 366.604 850.873 369.017 852.466 370.223C854.06 372.234 856.451 371.43 857.646 370.223ZM677.554 241.137C676.359 242.343 675.961 244.756 677.554 246.365C679.148 247.973 681.14 247.973 682.734 246.365C683.929 245.158 684.328 242.745 682.734 241.137C681.14 239.528 678.75 239.931 677.554 241.137ZM712.617 364.995C711.421 366.202 711.023 368.615 712.617 369.821C713.812 371.027 716.202 371.43 717.398 369.821C718.593 368.615 718.593 366.202 717.398 364.995C715.804 363.387 713.812 363.789 712.617 364.995ZM695.085 347.301C693.89 348.508 693.492 350.921 695.085 352.127C696.281 353.333 698.671 353.736 700.265 352.127C701.46 350.921 701.46 348.508 700.265 347.301C698.273 345.693 696.281 346.095 695.085 347.301ZM682.336 223.443C681.14 222.236 679.148 221.834 677.554 223.443C675.961 225.051 676.359 227.062 677.554 228.269C679.148 229.877 681.14 229.475 682.336 228.269C683.929 227.062 683.929 225.051 682.336 223.443ZM677.953 334.433C679.148 335.639 681.14 335.639 682.336 334.433C683.531 333.227 683.531 331.216 682.336 330.009C681.14 328.803 679.148 328.401 677.953 330.009C676.359 331.618 676.758 333.629 677.953 334.433ZM699.468 369.419C700.664 368.213 700.664 366.604 699.468 365.398C698.273 364.191 696.679 364.191 695.484 365.398C694.289 366.604 694.687 368.615 695.484 369.419C697.078 370.625 698.671 370.625 699.468 369.419ZM681.937 348.106C681.14 346.899 679.148 346.899 678.351 348.106C677.156 349.312 677.554 350.921 678.351 351.725C679.148 352.529 680.742 352.931 681.937 351.725C683.133 350.518 682.734 348.91 681.937 348.106ZM745.686 239.126C743.296 241.137 742.897 245.158 745.686 247.973C748.475 250.788 752.46 250.386 754.452 247.973C756.444 245.56 756.842 241.941 754.452 239.126C751.663 236.311 747.679 237.116 745.686 239.126ZM728.155 265.667C730.148 267.678 734.132 268.482 736.522 265.667C738.913 263.255 738.913 259.233 736.522 257.222C734.132 254.81 730.148 255.212 728.155 257.222C726.163 259.635 726.163 263.255 728.155 265.667ZM754.053 230.279C756.046 228.269 756.444 224.649 754.053 221.834C751.663 219.421 748.077 219.421 745.686 221.834C743.694 223.845 743.296 227.866 745.686 230.279C748.475 232.692 752.061 232.29 754.053 230.279ZM728.554 239.528C726.562 241.539 726.163 245.56 728.554 247.571C730.546 249.582 734.132 249.984 736.522 247.571C738.913 245.158 738.913 241.539 736.522 239.528C734.132 237.116 730.546 237.518 728.554 239.528ZM789.116 212.183C791.108 210.172 791.108 206.151 789.116 204.14C787.123 202.13 783.537 201.727 781.147 204.14C778.756 206.553 779.155 210.172 781.147 212.183C783.537 214.596 787.123 214.596 789.116 212.183ZM763.616 204.14C761.624 206.151 761.225 209.77 763.616 212.183C765.608 214.194 769.194 214.596 771.585 212.183C773.577 210.172 773.975 206.553 771.585 204.14C769.194 201.727 765.608 202.532 763.616 204.14ZM718.991 282.959C720.984 280.949 721.382 277.731 718.991 275.319C716.999 273.308 713.413 273.308 711.421 275.319C709.429 277.329 709.031 280.949 711.421 282.959C713.812 285.372 716.999 284.97 718.991 282.959ZM711.421 257.625C709.429 259.233 709.031 262.852 711.421 265.265C713.812 267.678 716.999 267.276 718.991 265.265C720.984 263.255 721.382 260.037 718.991 257.625C716.601 255.212 713.015 255.614 711.421 257.625ZM806.248 194.087C808.24 192.478 808.24 189.261 806.248 186.848C804.256 184.838 801.069 184.838 799.076 186.848C797.084 188.859 797.084 192.076 799.076 194.087C801.467 196.097 804.654 195.695 806.248 194.087ZM700.664 300.251C702.257 298.643 702.656 295.426 700.664 293.817C699.07 292.208 696.281 291.806 694.289 293.817C692.296 295.828 692.695 298.643 694.289 300.653C696.281 302.262 699.07 301.86 700.664 300.251ZM682.734 294.219C681.539 292.611 678.75 292.611 677.156 294.219C675.562 295.828 675.961 298.241 677.156 299.849C678.351 301.055 680.742 301.458 682.734 299.849C684.328 297.838 684.328 295.426 682.734 294.219ZM682.734 311.913C681.539 310.707 679.547 310.305 677.554 311.913C675.961 313.522 676.359 315.935 677.554 317.141C679.148 318.75 681.14 318.347 682.734 317.141C683.929 315.532 683.929 313.12 682.734 311.913ZM699.867 192.076C701.062 190.87 701.062 188.859 699.867 187.653C698.671 186.446 696.679 186.446 695.484 187.653C694.289 188.859 694.289 190.87 695.484 192.076C696.679 192.88 698.671 192.88 699.867 192.076ZM681.937 210.574C683.133 209.368 683.133 207.357 681.937 206.151C680.742 204.944 678.75 204.944 677.554 206.151C676.359 207.357 676.359 209.368 677.554 210.574C678.75 211.781 680.742 211.781 681.937 210.574Z" fill="url(#paint0_linear_339_887)" fill-opacity="0.5"/>
<path d="M588.028 301.524C590.418 304.348 595.2 304.751 598.387 301.524C601.574 298.298 601.176 293.458 598.387 291.038C595.598 288.215 590.817 288.215 588.028 291.038C585.239 294.264 585.239 299.104 588.028 301.524ZM605.957 291.441C603.168 293.861 602.77 298.701 605.957 301.928C608.746 304.751 613.527 304.751 616.316 301.928C619.106 299.104 619.504 294.668 616.316 291.441C612.731 288.215 608.348 288.618 605.957 291.441ZM615.918 283.778C618.707 280.955 618.707 276.518 615.918 273.695C613.527 270.872 608.746 270.469 605.957 273.695C603.168 276.518 603.168 280.955 605.957 283.778C609.145 287.005 613.527 286.198 615.918 283.778ZM598.387 319.27C600.778 316.85 601.176 312.414 598.387 309.187C595.2 305.961 590.817 306.767 588.426 309.187C586.036 311.607 585.239 316.044 588.426 319.27C591.614 322.497 595.996 321.69 598.387 319.27ZM580.856 301.524C583.247 299.104 583.645 294.668 580.856 291.441C577.669 288.215 573.286 289.021 570.895 291.441C568.505 293.861 567.708 298.298 570.895 301.524C574.083 304.751 578.465 303.944 580.856 301.524ZM580.856 273.695C578.465 271.275 574.083 270.469 570.895 273.695C568.106 276.518 568.505 280.955 570.895 283.778C573.286 286.198 577.669 286.601 580.458 283.778C583.645 280.955 583.645 276.115 580.856 273.695ZM571.294 309.187C568.903 311.607 568.505 316.044 571.294 318.867C574.083 321.69 578.465 321.287 580.856 318.867C583.247 316.447 583.645 312.011 580.856 309.187C577.669 306.364 573.286 306.767 571.294 309.187ZM615.52 265.629C617.91 263.209 618.309 258.772 615.52 255.949C613.129 253.529 608.746 253.126 605.957 255.949C603.168 258.772 603.567 263.209 605.957 265.629C609.145 268.855 613.527 268.049 615.52 265.629ZM633.051 283.375C635.441 280.955 635.84 276.518 633.051 273.695C630.66 271.275 626.277 270.872 623.488 273.695C620.699 276.518 621.098 280.955 623.488 283.375C626.676 286.601 631.059 285.795 633.051 283.375ZM623.887 318.867C626.277 321.287 630.66 321.69 633.051 318.867C635.441 316.447 635.84 312.011 633.051 309.591C630.262 306.767 625.879 307.171 623.488 309.591C621.496 312.011 621.098 316.447 623.887 318.867ZM571.294 256.352C568.903 258.772 568.505 263.209 571.294 265.629C573.684 268.049 577.669 268.452 580.458 265.629C582.848 263.209 583.247 258.772 580.458 256.352C577.669 253.126 573.684 253.932 571.294 256.352ZM563.325 291.845C560.536 289.021 556.552 289.425 554.161 291.845C551.372 294.668 551.77 298.701 554.161 301.524C556.552 303.944 560.536 304.348 563.325 301.524C565.716 298.298 565.716 294.265 563.325 291.845ZM588.825 336.613C590.817 339.033 595.2 339.436 597.989 336.613C600.778 333.79 600.379 329.757 597.989 327.337C595.2 324.514 591.215 324.917 588.825 327.337C586.036 329.757 586.434 334.193 588.825 336.613ZM562.927 283.375C565.317 280.955 565.716 276.922 562.927 274.098C560.536 271.679 556.552 271.275 553.763 274.098C550.974 276.922 551.372 280.955 553.763 283.375C556.552 286.198 560.934 285.795 562.927 283.375ZM615.52 336.613C617.91 334.193 618.309 330.16 615.52 327.337C613.129 324.917 609.145 324.514 606.356 327.337C603.567 330.16 603.965 334.193 606.356 336.613C609.145 339.436 613.129 339.033 615.52 336.613ZM571.692 327.337C569.301 329.757 568.903 333.79 571.692 336.613C574.083 339.033 578.067 339.436 580.856 336.613C583.247 334.193 583.645 330.16 580.856 327.337C577.669 324.514 573.684 325.32 571.692 327.337ZM623.887 256.352C621.496 258.772 621.098 262.806 623.887 265.629C626.277 268.049 630.262 268.452 633.051 265.629C635.441 263.209 635.84 259.176 633.051 256.352C630.262 253.529 625.879 254.336 623.887 256.352ZM597.989 247.479C600.379 245.463 600.778 241.43 597.989 238.606C595.598 236.186 591.614 236.186 589.223 238.606C586.832 241.026 586.434 245.059 589.223 247.479C592.012 250.303 595.996 249.899 597.989 247.479ZM650.183 300.718C652.574 298.298 652.972 294.668 650.183 291.845C647.793 289.425 643.808 289.425 641.418 291.845C639.027 294.265 638.629 298.298 641.418 300.718C644.207 303.944 648.191 303.138 650.183 300.718ZM633.051 336.21C635.441 333.79 635.84 330.16 633.051 327.337C630.66 324.917 626.676 324.917 624.285 327.337C621.895 329.757 621.496 333.79 624.285 336.21C627.074 339.436 630.66 338.63 633.051 336.21ZM650.183 309.591C648.191 307.574 644.207 307.171 641.418 309.591C639.027 312.414 639.426 316.044 641.418 318.464C643.808 320.48 647.394 320.884 650.183 318.464C652.574 316.044 652.574 312.011 650.183 309.591ZM562.927 336.21C565.317 334.193 565.317 330.16 562.927 327.74C560.536 325.32 556.95 325.32 554.161 327.74C551.77 330.16 551.77 333.79 554.161 336.21C556.95 339.033 560.536 338.63 562.927 336.21ZM597.59 353.956C599.582 351.939 599.981 347.906 597.59 345.486C595.2 343.066 591.215 343.47 589.223 345.486C587.231 347.503 586.832 351.536 589.223 353.956C592.012 356.779 595.598 355.972 597.59 353.956ZM545.396 300.718C547.388 298.701 547.786 294.668 545.396 292.248C543.005 289.828 539.021 290.231 537.028 292.248C535.036 294.264 534.638 298.298 537.028 300.718C539.419 303.541 543.403 302.734 545.396 300.718ZM606.754 353.956C608.746 355.972 612.731 356.376 615.121 353.956C617.512 351.536 617.512 347.503 615.121 345.486C612.731 343.066 608.746 343.47 606.754 345.486C604.364 347.906 604.364 351.536 606.754 353.956ZM641.816 265.225C643.808 267.242 647.793 268.049 650.183 265.225C652.574 262.806 652.574 259.176 650.183 256.756C647.793 254.336 643.808 254.336 641.816 256.756C639.426 259.176 639.426 262.806 641.816 265.225ZM544.997 309.994C543.005 307.977 539.419 307.171 536.63 309.994C534.239 312.414 534.638 316.447 536.63 318.464C539.021 320.884 542.606 320.884 544.997 318.464C547.388 316.044 547.388 312.011 544.997 309.994ZM580.059 345.486C578.067 343.47 574.481 342.663 571.692 345.486C569.301 347.906 569.7 351.939 571.692 353.956C574.083 356.376 577.669 356.376 580.059 353.956C582.45 351.536 582.45 347.503 580.059 345.486ZM650.183 336.21C652.175 334.193 652.574 330.563 650.183 327.74C647.793 325.32 644.207 325.32 641.816 327.74C639.824 329.757 639.426 333.79 641.816 336.21C644.207 338.63 648.191 338.226 650.183 336.21ZM624.285 353.956C626.277 355.972 629.863 356.376 632.254 353.956C634.644 351.536 634.246 347.906 632.254 345.889C629.863 343.47 626.277 343.873 624.285 345.889C622.293 347.906 621.895 351.536 624.285 353.956ZM667.316 300.314C669.308 298.298 669.706 294.264 667.316 292.248C665.324 290.231 661.738 289.828 659.347 292.248C656.957 294.668 657.355 298.298 659.347 300.314C661.738 303.138 665.324 302.734 667.316 300.314ZM667.316 282.568C669.308 280.552 669.706 276.922 667.316 274.502C664.925 272.082 661.738 272.082 659.347 274.502C657.355 276.518 656.957 280.148 659.347 282.568C662.136 285.391 665.722 284.585 667.316 282.568ZM614.723 229.33C616.715 227.313 617.113 223.683 614.723 221.264C612.731 218.844 609.145 218.844 606.754 221.264C604.762 223.28 604.364 226.91 606.754 229.33C609.543 232.153 613.129 231.347 614.723 229.33ZM562.528 353.553C564.52 351.536 564.919 347.906 562.528 345.486C560.138 343.066 556.95 343.47 554.559 345.486C552.567 347.503 552.169 351.133 554.559 353.553C556.95 356.376 560.536 355.569 562.528 353.553ZM544.997 335.806C546.989 333.79 547.388 330.16 544.997 327.74C542.606 325.32 539.419 325.32 537.028 327.74C535.036 329.757 534.638 333.387 537.028 335.806C539.419 338.63 543.005 337.823 544.997 335.806ZM641.816 239.01C639.824 241.026 639.426 244.656 641.816 247.076C644.207 249.496 647.793 249.093 649.785 247.076C651.777 245.059 652.175 241.43 649.785 239.01C647.394 236.59 643.808 237.396 641.816 239.01ZM659.347 310.397C657.355 312.414 656.957 316.044 659.347 318.464C661.339 320.48 664.925 320.884 667.316 318.464C669.308 316.447 669.706 312.817 667.316 310.397C664.925 307.574 661.339 308.381 659.347 310.397ZM597.192 371.299C599.184 369.282 599.582 366.056 597.192 363.636C595.2 361.619 591.614 361.619 589.622 363.636C587.629 365.652 587.231 369.282 589.622 371.299C592.012 373.719 595.598 373.315 597.192 371.299ZM632.254 229.33C634.246 227.313 634.644 223.683 632.254 221.667C630.262 219.65 626.676 219.65 624.684 221.667C622.691 223.683 622.691 227.313 624.684 229.33C627.074 231.75 630.66 231.347 632.254 229.33ZM667.316 264.822C669.308 262.806 669.706 259.579 667.316 257.159C665.324 255.142 661.738 255.142 659.746 257.159C657.753 259.176 657.355 262.806 659.746 264.822C662.136 267.242 665.324 266.839 667.316 264.822ZM607.153 363.636C605.16 365.249 604.762 368.879 607.153 371.299C609.543 373.719 612.731 373.315 614.723 371.299C616.715 369.282 617.113 366.056 614.723 363.636C612.332 361.216 608.746 361.619 607.153 363.636ZM544.997 247.076C546.989 245.059 547.388 241.833 544.997 239.413C542.606 236.993 539.021 237.396 537.427 239.413C535.833 241.43 535.036 244.656 537.427 247.076C539.817 249.496 543.005 249.093 544.997 247.076ZM519.896 318.06C521.49 320.077 525.075 320.48 527.466 318.06C529.857 315.64 529.458 312.414 527.466 310.397C525.474 308.381 521.888 308.381 519.896 310.397C517.505 312.817 517.904 316.044 519.896 318.06ZM667.316 328.143C665.324 326.127 661.738 326.127 659.746 328.143C657.753 330.16 657.753 333.79 659.746 335.806C661.339 337.42 664.925 338.226 667.316 335.806C669.308 333.387 668.91 330.16 667.316 328.143ZM544.599 353.553C546.591 351.536 546.591 348.309 544.599 346.293C542.606 344.276 539.021 344.276 537.028 346.293C535.036 348.309 535.036 351.536 537.028 353.553C539.817 355.972 543.005 355.166 544.599 353.553ZM527.068 264.822C529.06 262.806 529.458 259.579 527.068 257.562C524.677 255.142 521.49 255.949 519.896 257.562C517.904 259.176 517.505 262.806 519.896 264.822C521.888 266.839 525.075 266.435 527.068 264.822ZM666.917 239.413C664.925 237.396 661.738 237.396 659.746 239.413C657.753 241.43 657.753 245.059 659.746 246.673C661.339 248.286 664.527 249.093 666.917 246.673C669.308 244.656 668.91 241.43 666.917 239.413ZM527.068 335.403C529.06 333.387 529.06 330.16 527.068 328.143C525.474 326.53 522.286 325.723 519.896 328.143C517.505 330.563 518.302 333.79 519.896 335.403C521.888 337.42 525.075 337.42 527.068 335.403ZM544.599 222.07C542.606 220.054 539.419 220.054 537.825 222.07C535.833 224.087 536.232 227.313 537.825 228.927C539.419 230.54 542.606 230.943 544.599 228.927C546.591 226.91 546.192 223.683 544.599 222.07ZM527.068 239.816C525.474 238.203 522.286 237.8 520.294 239.816C518.302 241.833 518.701 245.059 520.294 246.673C522.286 248.286 525.075 248.689 527.068 246.673C529.06 244.656 528.661 241.43 527.068 239.816ZM502.763 282.165C504.357 283.778 507.146 284.181 509.537 282.165C511.529 280.148 511.13 276.922 509.537 275.308C507.544 273.292 504.755 273.695 502.763 275.308C500.771 277.325 500.771 280.148 502.763 282.165ZM526.669 346.293C525.075 344.68 522.286 344.276 520.294 346.293C518.302 348.309 518.701 351.536 520.294 353.149C521.888 354.763 525.075 355.166 526.669 353.149C528.661 351.133 528.661 347.906 526.669 346.293ZM544.2 364.039C542.606 362.426 539.817 362.022 537.825 364.039C535.833 366.055 536.232 369.282 537.825 370.895C539.419 372.509 542.606 372.912 544.2 370.895C546.192 368.879 545.794 365.652 544.2 364.039ZM666.519 228.927C668.113 227.313 668.511 224.087 666.519 222.473C664.925 220.86 662.136 220.457 660.144 222.473C658.152 224.49 658.55 227.313 660.144 228.927C662.136 230.943 664.925 230.54 666.519 228.927ZM502.763 264.419C504.755 266.032 507.544 266.032 509.138 264.419C510.732 262.806 510.732 259.982 509.138 257.966C507.146 255.949 504.357 256.352 502.763 257.966C501.169 259.579 500.771 262.402 502.763 264.419ZM642.613 210.777C644.207 212.39 646.996 212.794 648.988 210.777C650.98 208.761 650.582 205.937 648.988 204.324C646.996 202.307 644.207 202.711 642.613 204.324C641.019 206.341 641.019 209.164 642.613 210.777ZM526.669 228.523C528.263 226.91 528.661 224.087 526.669 222.07C525.075 220.457 522.286 220.054 520.294 222.07C518.302 224.087 518.701 226.91 520.294 228.523C522.286 230.54 525.075 230.137 526.669 228.523ZM509.138 335C510.732 333.387 511.13 330.563 509.138 328.547C507.544 326.933 504.755 326.53 502.763 328.547C500.771 330.563 501.169 333.387 502.763 335C504.755 337.016 507.544 336.613 509.138 335ZM537.825 204.727C536.232 206.341 536.232 209.164 537.825 210.777C539.419 212.39 542.208 212.39 543.802 210.777C545.396 209.164 545.396 206.341 543.802 204.727C542.208 202.711 539.419 203.114 537.825 204.727ZM526.271 370.492C527.864 368.879 528.263 366.459 526.271 364.442C524.677 362.829 522.286 362.426 520.294 364.442C518.701 366.056 518.701 368.879 520.294 370.492C522.286 372.509 525.075 371.702 526.271 370.492ZM509.138 246.269C510.732 244.656 511.13 242.236 509.138 240.22C507.544 238.606 505.154 238.203 503.162 240.22C501.568 241.833 501.568 244.656 503.162 246.269C505.154 248.286 507.544 247.479 509.138 246.269ZM491.209 299.104C492.404 297.894 493.201 295.474 491.209 293.458C489.615 291.845 487.224 291.845 485.631 293.458C484.037 295.071 484.037 297.491 485.631 299.104C487.623 301.121 490.013 300.718 491.209 299.104ZM485.631 275.712C484.037 276.922 484.037 279.745 485.631 281.358C487.224 282.972 489.615 282.972 491.209 281.358C492.802 279.745 492.802 277.325 491.209 275.712C489.615 274.098 487.224 274.502 485.631 275.712ZM486.029 258.369C484.834 259.579 484.435 261.999 486.029 263.612C487.623 265.225 489.615 265.225 491.209 263.612C492.404 262.402 492.802 259.982 491.209 258.369C489.615 256.756 487.224 257.159 486.029 258.369ZM503.56 364.846C502.365 366.056 501.966 368.475 503.56 369.685C504.755 370.895 507.146 371.299 508.74 369.685C509.935 368.475 509.935 366.056 508.74 364.846C506.748 363.232 504.755 363.636 503.56 364.846ZM486.428 351.939C487.623 353.149 489.615 353.149 490.81 351.939C492.006 350.729 492.006 348.713 490.81 347.503C489.615 346.293 487.623 345.889 486.428 347.503C484.834 349.116 485.232 351.133 486.428 351.939ZM473.279 298.701C474.475 297.491 474.475 295.878 473.279 294.668C472.482 293.861 470.49 293.055 469.295 294.668C468.1 295.878 468.1 297.894 469.295 299.104C470.49 299.911 472.482 299.508 473.279 298.701ZM468.896 280.955C470.092 282.165 472.084 282.165 472.881 280.955C473.678 280.148 474.076 278.132 472.881 276.922C471.685 275.712 469.693 275.712 468.896 276.922C468.1 277.728 467.701 279.342 468.896 280.955ZM507.943 387.028C509.138 385.818 509.138 384.205 507.943 382.995C506.748 381.785 505.154 381.785 503.959 382.995C502.763 384.205 503.162 386.222 503.959 387.028C505.552 388.238 507.146 388.238 507.943 387.028ZM536.63 282.972C538.622 284.988 542.606 285.795 544.997 282.972C547.388 280.552 547.388 276.518 544.997 274.502C542.606 272.082 538.622 272.485 536.63 274.502C534.638 276.922 534.638 280.552 536.63 282.972ZM562.528 247.479C564.52 245.463 564.919 241.833 562.528 239.01C562.528 239.01 556.552 236.59 554.161 239.01C552.169 241.026 551.77 245.059 554.161 247.479C556.95 249.899 560.536 249.496 562.528 247.479ZM519.896 274.905C517.904 276.518 517.505 280.148 519.896 282.568C522.286 284.988 525.474 284.585 527.466 282.568C529.458 280.552 529.857 277.325 527.466 274.905C525.075 272.485 521.49 272.889 519.896 274.905ZM502.763 299.911C504.755 301.928 507.544 301.928 509.537 299.911C511.13 297.894 511.529 295.071 509.537 293.055C507.544 291.038 504.357 291.441 502.763 293.055C501.169 294.668 500.771 297.894 502.763 299.911ZM509.138 317.657C510.732 316.044 511.13 312.817 509.138 311.204C507.544 309.591 504.755 309.187 502.763 311.204C500.771 313.221 501.169 316.044 502.763 318.06C504.755 319.674 507.544 319.27 509.138 317.657ZM491.209 311.607C490.013 309.994 487.224 309.994 485.631 311.607C484.037 313.221 484.435 315.64 485.631 317.254C486.826 318.464 489.217 318.867 491.209 317.254C492.802 315.237 492.802 312.817 491.209 311.607ZM491.209 329.353C490.013 328.143 488.021 327.74 486.029 329.353C484.435 330.967 484.834 333.387 486.029 334.597C487.623 336.21 489.615 335.806 491.209 334.597C492.404 332.983 492.404 330.563 491.209 329.353ZM469.693 351.133C470.49 351.939 471.685 351.939 472.482 351.133C473.279 350.326 473.279 349.116 472.482 348.309C471.685 347.503 470.092 347.503 469.693 348.309C468.896 349.116 468.896 350.326 469.693 351.133ZM508.341 209.164C509.537 207.954 509.537 205.937 508.341 204.727C507.146 203.517 505.154 203.517 503.959 204.727C502.763 205.937 502.763 207.954 503.959 209.164C505.154 209.971 507.146 209.971 508.341 209.164Z" fill="url(#paint1_linear_339_887)" fill-opacity="0.5"/>
</g>
<defs>
<linearGradient id="paint0_linear_339_887" x1="768.521" y1="202.578" x2="768.521" y2="423.064" gradientUnits="userSpaceOnUse">
<stop stop-color="#F7B114"/>
<stop offset="0.2" stop-color="#F7B114"/>
<stop offset="0.541" stop-color="#62B67C"/>
<stop offset="1" stop-color="#62B67C"/>
</linearGradient>
<linearGradient id="paint1_linear_339_887" x1="576.996" y1="219.696" x2="576.996" y2="440.831" gradientUnits="userSpaceOnUse">
<stop stop-color="#F7B114"/>
<stop offset="0.2" stop-color="#F7B114"/>
<stop offset="0.541" stop-color="#62B67C"/>
<stop offset="1" stop-color="#62B67C"/>
</linearGradient>
<clipPath id="clip0_339_887">
<rect width="838" height="446" fill="white"/>
</clipPath>
</defs>
</svg>
