<svg width="210" height="68" viewBox="0 0 210 68" fill="none" xmlns="http://www.w3.org/2000/svg">
<g clip-path="url(#clip0_248_4603)">
<path d="M43.6827 35.9742C44.5534 36.9978 46.295 37.1441 47.456 35.9742C48.617 34.8043 48.4719 33.0495 47.456 32.172C46.4401 31.1484 44.6986 31.1484 43.6827 32.172C42.6668 33.3419 42.6668 35.0968 43.6827 35.9742ZM50.2134 32.3183C49.1975 33.1957 49.0524 34.9505 50.2134 36.1204C51.2293 37.1441 52.9708 37.1441 53.9867 36.1204C55.0026 35.0968 55.1478 33.4882 53.9867 32.3183C52.6806 31.1484 51.0842 31.2946 50.2134 32.3183ZM43.8278 25.8839C42.8119 26.7613 42.6668 28.5161 43.8278 29.686C44.8437 30.7097 46.5852 30.7097 47.6011 29.686C48.617 28.6624 48.7621 27.0538 47.6011 25.8839C46.295 24.714 44.6986 24.8602 43.8278 25.8839ZM53.8416 29.5398C54.8575 28.5161 54.8575 26.9075 53.8416 25.8839C52.9708 24.8602 51.2293 24.714 50.2134 25.8839C49.1975 26.9075 49.1975 28.5161 50.2134 29.5398C51.3744 30.7097 52.9708 30.4172 53.8416 29.5398ZM47.456 42.4086C48.3267 41.5312 48.4719 39.9226 47.456 38.7527C46.295 37.5828 44.6986 37.8753 43.8278 38.7527C42.957 39.6301 42.6668 41.2387 43.8278 42.4086C44.9888 43.5785 46.5852 43.286 47.456 42.4086ZM41.0704 35.9742C41.9411 35.0968 42.0862 33.4882 41.0704 32.3183C39.9093 31.1484 38.3129 31.4409 37.4422 32.3183C36.5714 33.1957 36.2811 34.8043 37.4422 35.9742C38.6032 37.1441 40.1996 36.8516 41.0704 35.9742ZM53.8416 38.7527C52.9708 37.8753 51.3744 37.5828 50.2134 38.7527C49.1975 39.7763 49.3426 41.3849 50.2134 42.4086C51.0842 43.286 52.6806 43.4323 53.6965 42.4086C54.8575 41.3849 54.7124 39.6301 53.8416 38.7527ZM41.0704 25.8839C40.1996 25.0065 38.6032 24.714 37.4422 25.8839C36.4263 26.9075 36.5714 28.5161 37.4422 29.5398C38.3129 30.4172 39.9093 30.5634 40.9252 29.5398C42.0863 28.5161 42.0862 26.7613 41.0704 25.8839ZM37.5873 38.7527C36.7165 39.6301 36.5714 41.2387 37.5873 42.2624C38.6032 43.286 40.1996 43.1398 41.0704 42.2624C41.9411 41.3849 42.0862 39.7763 41.0704 38.7527C39.9093 37.729 38.3129 37.8753 37.5873 38.7527ZM60.0821 32.3183C59.0662 31.2946 57.6149 31.2946 56.599 32.3183C55.5831 33.3419 55.7283 34.9505 56.599 35.828C57.4698 36.7054 59.0662 36.8516 60.0821 35.828C61.2431 34.8043 61.098 33.1957 60.0821 32.3183ZM43.9729 22.9591C44.8437 23.8366 46.295 24.129 47.456 22.9591C48.4719 21.9355 48.3267 20.3269 47.456 19.4495C46.4401 18.4258 44.9888 18.4258 43.9729 19.4495C42.957 20.4731 42.957 22.0817 43.9729 22.9591ZM53.6965 22.9591C54.5672 22.0817 54.7124 20.4731 53.6965 19.4495C52.8257 18.572 51.2293 18.4258 50.2134 19.4495C49.1975 20.4731 49.3426 22.0817 50.2134 22.9591C51.3744 24.129 52.9708 23.8366 53.6965 22.9591ZM60.0821 29.3935C60.9529 28.5161 61.098 26.9075 60.0821 25.8839C59.2113 25.0065 57.6149 24.8602 56.599 25.8839C55.5831 26.9075 55.7283 28.5161 56.599 29.3935C57.7601 30.5634 59.3565 30.271 60.0821 29.3935ZM56.7442 42.2624C57.6149 43.1398 59.2113 43.286 60.0821 42.2624C60.9529 41.3849 61.098 39.7763 60.0821 38.8989C59.0662 37.8753 57.4698 38.0215 56.599 38.8989C55.8734 39.7763 55.7283 41.3849 56.7442 42.2624ZM37.5873 19.5957C36.7165 20.4731 36.5714 22.0817 37.5873 22.9591C38.458 23.8366 39.9093 23.9828 40.9252 22.9591C41.796 22.0817 41.9411 20.4731 40.9252 19.5957C39.9093 18.4258 38.458 18.7183 37.5873 19.5957ZM34.6847 32.4645C33.6688 31.4409 32.2176 31.5871 31.3468 32.4645C30.3309 33.4882 30.476 34.9505 31.3468 35.9742C32.2176 36.8516 33.6688 36.9978 34.6847 35.9742C35.5555 34.8043 35.5555 33.3419 34.6847 32.4645ZM43.9729 48.6968C44.6985 49.5742 46.295 49.7204 47.3109 48.6968C48.3267 47.6731 48.1816 46.2108 47.3109 45.3333C46.295 44.3097 44.8437 44.4559 43.9729 45.3333C42.957 46.2108 43.1021 47.8193 43.9729 48.6968ZM34.5396 29.3935C35.4104 28.5161 35.5555 27.0538 34.5396 26.0301C33.6688 25.1527 32.2176 25.0065 31.2017 26.0301C30.1858 27.0538 30.3309 28.5161 31.2017 29.3935C32.2176 30.4172 33.814 30.271 34.5396 29.3935ZM53.6965 48.6968C54.5672 47.8193 54.7124 46.357 53.6965 45.3333C52.8257 44.4559 51.3744 44.3097 50.3585 45.3333C49.3426 46.357 49.4878 47.8193 50.3585 48.6968C51.3744 49.7204 52.8257 49.5742 53.6965 48.6968ZM37.7324 45.3333C36.8616 46.2108 36.7165 47.6731 37.7324 48.6968C38.6032 49.5742 40.0545 49.7204 41.0704 48.6968C41.9411 47.8193 42.0862 46.357 41.0704 45.3333C39.9093 44.3097 38.4581 44.6021 37.7324 45.3333ZM31.2017 42.2624C32.0724 43.1398 33.5237 43.286 34.5396 42.2624C35.4104 41.3849 35.5555 39.9226 34.5396 38.8989C33.5237 37.8753 32.0724 38.0215 31.2017 38.8989C30.476 39.7763 30.3309 41.2387 31.2017 42.2624ZM56.7442 19.5957C55.8734 20.4731 55.7283 21.9355 56.7442 22.9591C57.6149 23.8366 59.0662 23.9828 60.0821 22.9591C60.9529 22.0817 61.098 20.6194 60.0821 19.5957C59.0662 18.572 57.4698 18.8645 56.7442 19.5957ZM47.3109 16.3785C48.1816 15.6473 48.3267 14.1849 47.3109 13.1613C46.4401 12.2839 44.9888 12.2839 44.118 13.1613C43.2473 14.0387 43.1021 15.5011 44.118 16.3785C45.1339 17.4022 46.5852 17.2559 47.3109 16.3785ZM66.3226 35.6817C67.1934 34.8043 67.3385 33.4882 66.3226 32.4645C65.4518 31.5871 64.0005 31.5871 63.1298 32.4645C62.259 33.3419 62.1139 34.8043 63.1298 35.6817C64.1457 36.8516 65.597 36.5591 66.3226 35.6817ZM60.0821 48.5505C60.9529 47.6731 61.098 46.357 60.0821 45.3333C59.2113 44.4559 57.7601 44.4559 56.8893 45.3333C56.0185 46.2108 55.8734 47.6731 56.8893 48.5505C57.9052 49.7204 59.2113 49.428 60.0821 48.5505ZM63.1298 26.0301C62.259 26.9075 62.259 28.3699 63.1298 29.2473C64.0005 30.1247 65.4518 30.271 66.3226 29.2473C67.1934 28.3699 67.1934 26.9075 66.3226 26.0301C65.3067 25.1527 64.0005 25.2989 63.1298 26.0301ZM50.5037 16.3785C51.3744 17.2559 52.6806 17.2559 53.6965 16.3785C54.5672 15.5011 54.5672 14.0387 53.6965 13.1613C52.6806 12.1376 51.2293 12.4301 50.5037 13.1613C49.6329 14.0387 49.4878 15.5011 50.5037 16.3785ZM66.3226 38.8989C65.597 38.1677 64.1457 38.0215 63.1298 38.8989C62.259 39.9226 62.4041 41.2387 63.1298 42.1161C64.0005 42.8473 65.3067 42.9935 66.3226 42.1161C67.1934 41.2387 67.1934 39.7763 66.3226 38.8989ZM34.5396 48.5505C35.4104 47.8193 35.4104 46.357 34.5396 45.4796C33.6688 44.6021 32.3627 44.6021 31.3468 45.4796C30.476 46.357 30.476 47.6731 31.3468 48.5505C32.3627 49.5742 33.6688 49.428 34.5396 48.5505ZM47.1657 54.9849C47.8914 54.2538 48.0365 52.7914 47.1657 51.914C46.295 51.0366 44.8437 51.1828 44.118 51.914C43.3924 52.6452 43.2473 54.1075 44.118 54.9849C45.1339 56.0086 46.4401 55.7161 47.1657 54.9849ZM28.154 35.6817C28.8796 34.9505 29.0247 33.4882 28.154 32.6107C27.2832 31.7333 25.8319 31.8796 25.1063 32.6107C24.3806 33.3419 24.2355 34.8043 25.1063 35.6817C25.9771 36.7054 27.4283 36.4129 28.154 35.6817ZM50.5037 54.9849C51.2293 55.7161 52.6806 55.8624 53.5514 54.9849C54.4221 54.1075 54.4221 52.6452 53.5514 51.914C52.6806 51.0366 51.2293 51.1828 50.5037 51.914C49.6329 52.7914 49.6329 54.1075 50.5037 54.9849ZM63.2749 22.8129C64.0006 23.5441 65.4518 23.8366 66.3226 22.8129C67.1934 21.9355 67.1934 20.6194 66.3226 19.7419C65.4518 18.8645 64.0006 18.8645 63.2749 19.7419C62.4041 20.6194 62.4041 21.9355 63.2749 22.8129ZM56.8893 16.3785C57.6149 17.1097 59.0662 17.2559 59.937 16.3785C60.8077 15.5011 60.8077 14.0387 59.937 13.3075C59.0662 12.4301 57.6149 12.5763 56.8893 13.3075C56.0185 14.1849 56.0185 15.5011 56.8893 16.3785ZM28.0088 39.0452C27.2832 38.314 25.9771 38.0215 24.9612 39.0452C24.0904 39.9226 24.2355 41.3849 24.9612 42.1161C25.8319 42.9935 27.1381 42.9935 28.0088 42.1161C28.8796 41.2387 28.8796 39.7763 28.0088 39.0452ZM40.7801 51.914C40.0545 51.1828 38.7483 50.8903 37.7324 51.914C36.8616 52.7914 37.0068 54.2538 37.7324 54.9849C38.6032 55.8624 39.9093 55.8624 40.7801 54.9849C41.6509 54.1075 41.6509 52.6452 40.7801 51.914ZM66.3226 48.5505C67.0482 47.8193 67.1934 46.5032 66.3226 45.4796C65.4518 44.6021 64.1457 44.6021 63.2749 45.4796C62.5493 46.2108 62.4041 47.6731 63.2749 48.5505C64.1457 49.428 65.597 49.2817 66.3226 48.5505ZM56.8893 54.9849C57.6149 55.7161 58.9211 55.8624 59.7919 54.9849C60.6626 54.1075 60.5175 52.7914 59.7919 52.0602C58.9211 51.1828 57.6149 51.329 56.8893 52.0602C56.1637 52.7914 56.0185 54.1075 56.8893 54.9849ZM72.5631 35.5355C73.2887 34.8043 73.4339 33.3419 72.5631 32.6107C71.8375 31.8796 70.5313 31.7333 69.6605 32.6107C68.7898 33.4882 68.9349 34.8043 69.6605 35.5355C70.5313 36.5591 71.8375 36.4129 72.5631 35.5355ZM72.5631 29.1011C73.2887 28.3699 73.4339 27.0538 72.5631 26.1763C71.6923 25.2989 70.5313 25.2989 69.6605 26.1763C68.9349 26.9075 68.7898 28.2237 69.6605 29.1011C70.6764 30.1247 71.9826 29.8323 72.5631 29.1011ZM53.4062 9.79785C54.1319 9.06667 54.277 7.75054 53.4062 6.87312C52.6806 5.9957 51.3744 5.9957 50.5037 6.87312C49.778 7.6043 49.6329 8.92043 50.5037 9.79785C51.5196 10.8215 52.8257 10.529 53.4062 9.79785ZM34.3945 54.8387C35.1201 54.1075 35.2652 52.7914 34.3945 51.914C33.5237 51.0366 32.3627 51.1828 31.4919 51.914C30.7663 52.6452 30.6211 53.9613 31.4919 54.8387C32.3627 55.8624 33.6688 55.5699 34.3945 54.8387ZM28.0088 48.4043C28.7345 47.6731 28.8796 46.357 28.0088 45.4796C27.1381 44.6021 25.9771 44.6021 25.1063 45.4796C24.3806 46.2108 24.2355 47.5269 25.1063 48.4043C25.9771 49.4279 27.2832 49.1355 28.0088 48.4043ZM63.2749 13.3075C62.5493 14.0387 62.4041 15.3548 63.2749 16.2323C64.1457 17.1097 65.4518 16.9634 66.1775 16.2323C66.9031 15.5011 67.0482 14.1849 66.1775 13.3075C65.3067 12.4301 64.0006 12.7226 63.2749 13.3075ZM69.6605 39.1914C68.9349 39.9226 68.7898 41.2387 69.6605 42.1161C70.3862 42.8473 71.6923 42.9935 72.5631 42.1161C73.2887 41.3849 73.4339 40.0688 72.5631 39.1914C71.6923 38.1677 70.3862 38.4602 69.6605 39.1914ZM47.0206 61.2731C47.7462 60.5419 47.8914 59.372 47.0206 58.4946C46.295 57.7634 44.9888 57.7634 44.2632 58.4946C43.5375 59.2258 43.3924 60.5419 44.2632 61.2731C45.1339 62.1505 46.4401 62.0043 47.0206 61.2731ZM59.7919 9.79785C60.5175 9.06667 60.6626 7.75054 59.7919 7.01936C59.0662 6.28817 57.7601 6.28817 57.0344 7.01936C56.3088 7.75054 56.3088 9.06667 57.0344 9.79785C57.9052 10.6753 59.2113 10.529 59.7919 9.79785ZM72.5631 22.6667C73.2887 21.9355 73.4339 20.7656 72.5631 19.8882C71.8375 19.157 70.5313 19.157 69.8057 19.8882C69.08 20.6194 68.9349 21.9355 69.8057 22.6667C70.6764 23.5441 71.8375 23.3979 72.5631 22.6667ZM50.6488 58.4946C49.9232 59.0796 49.778 60.3957 50.6488 61.2731C51.5196 62.1505 52.6806 62.0043 53.4062 61.2731C54.1319 60.5419 54.277 59.372 53.4062 58.4946C52.5355 57.6172 51.2293 57.7634 50.6488 58.4946ZM63.42 52.0602C62.6944 52.6452 62.5493 53.9613 63.42 54.8387C64.2908 55.7161 65.4518 55.5699 66.1775 54.8387C66.9031 54.1075 67.0482 52.9376 66.1775 52.0602C65.3067 51.1828 64.0006 51.329 63.42 52.0602ZM28.0088 16.2323C28.7345 15.5011 28.8796 14.3312 28.0088 13.4538C27.1381 12.5763 25.8319 12.7226 25.2514 13.4538C24.6709 14.1849 24.3807 15.3548 25.2514 16.2323C26.1222 17.1097 27.2832 16.9634 28.0088 16.2323ZM31.637 9.79785C32.2176 10.529 33.5237 10.6753 34.3945 9.79785C35.2652 8.92043 35.1201 7.75054 34.3945 7.01936C33.6688 6.28817 32.3627 6.28817 31.637 7.01936C30.7663 7.89677 30.7663 9.06667 31.637 9.79785ZM18.8658 41.9699C19.4463 42.7011 20.7525 42.8473 21.6232 41.9699C22.494 41.0925 22.3489 39.9226 21.6232 39.1914C20.8976 38.4602 19.5914 38.4602 18.8658 39.1914C17.995 40.0688 18.1402 41.2387 18.8658 41.9699ZM37.8775 61.2731C38.4581 62.0043 39.7642 62.1505 40.635 61.2731C41.5057 60.3957 41.3606 59.2258 40.635 58.4946C39.9093 57.7634 38.6032 57.7634 37.8775 58.4946C37.1519 59.372 37.1519 60.5419 37.8775 61.2731ZM72.5631 45.6258C71.8375 44.8946 70.5313 44.8946 69.8057 45.6258C69.08 46.357 69.08 47.6731 69.8057 48.4043C70.3862 48.9892 71.6923 49.2817 72.5631 48.4043C73.2887 47.5269 73.1436 46.357 72.5631 45.6258ZM27.8637 54.8387C28.5894 54.1075 28.5894 52.9376 27.8637 52.2064C27.1381 51.4753 25.8319 51.4753 25.1063 52.2064C24.3806 52.9376 24.3806 54.1075 25.1063 54.8387C26.1222 55.7161 27.2832 55.4236 27.8637 54.8387ZM59.7919 61.2731C60.5175 60.5419 60.6626 59.372 59.7919 58.6409C58.9211 57.7634 57.7601 58.0559 57.1796 58.6409C56.4539 59.2258 56.3088 60.5419 57.1796 61.2731C57.7601 62.0043 59.0662 62.0043 59.7919 61.2731ZM21.4781 22.6667C22.2037 21.9355 22.3489 20.7656 21.4781 20.0344C20.6073 19.157 19.4463 19.4495 18.8658 20.0344C18.1402 20.6194 17.995 21.9355 18.8658 22.6667C19.5914 23.3979 20.7525 23.2516 21.4781 22.6667ZM66.0323 7.01936C65.3067 6.28817 64.1457 6.28817 63.42 7.01936C62.6944 7.75054 62.6944 9.06667 63.42 9.65161C64.0006 10.2366 65.1616 10.529 66.0323 9.65161C66.9031 8.92043 66.758 7.75054 66.0323 7.01936ZM72.418 13.4538C71.6923 12.7226 70.5313 12.7226 69.8057 13.4538C69.08 14.1849 69.08 15.5011 69.8057 16.086C70.3862 16.671 71.5472 16.9634 72.418 16.086C73.2887 15.3548 73.1436 14.1849 72.418 13.4538ZM34.2493 61.1269C34.975 60.3957 34.975 59.2258 34.2493 58.4946C33.6688 57.9097 32.5078 57.6172 31.637 58.4946C30.7663 59.372 31.0565 60.5419 31.637 61.1269C32.3627 62.0043 33.5237 61.8581 34.2493 61.1269ZM21.4781 48.2581C22.2037 47.5269 22.2037 46.357 21.4781 45.6258C20.8976 45.0409 19.7366 44.7484 18.8658 45.6258C17.995 46.5032 18.2853 47.6731 18.8658 48.2581C19.5914 48.9892 20.7525 48.9892 21.4781 48.2581ZM78.8036 35.3892C79.5292 34.8043 79.5292 33.4882 78.8036 32.757C78.078 32.0258 77.0621 32.0258 76.1913 32.757C75.4657 33.4882 75.4657 34.6581 76.1913 35.3892C77.0621 36.2667 78.2231 36.1204 78.8036 35.3892ZM38.0227 0.731184C37.297 1.31613 37.297 2.48602 38.0227 3.36344C38.7483 3.94839 39.7642 4.09462 40.4898 3.36344C41.2155 2.63226 41.2155 1.46237 40.4898 0.731184C39.7642 -0.146236 38.6032 8.9407e-07 38.0227 0.731184ZM69.9508 54.6925C70.5313 55.2774 71.6923 55.4237 72.418 54.6925C73.1436 53.9613 72.9985 52.7914 72.418 52.2064C71.6923 51.4753 70.5313 51.4753 69.9508 52.2064C69.08 52.9376 69.2252 54.1075 69.9508 54.6925ZM27.8637 7.16559C27.1381 6.43441 25.9771 6.43441 25.3965 7.16559C24.6709 7.89677 24.816 9.06667 25.3965 9.65161C25.9771 10.2366 27.1381 10.3828 27.8637 9.65161C28.5894 8.92043 28.4442 7.75054 27.8637 7.16559ZM21.4781 13.6C20.8976 13.0151 19.7366 12.8688 19.0109 13.6C18.2853 14.3312 18.4304 15.5011 19.0109 16.086C19.7366 16.671 20.7525 16.8172 21.4781 16.086C22.2037 15.3548 22.0586 14.1849 21.4781 13.6ZM66.0323 58.6409C65.4518 58.0559 64.2908 57.9097 63.5652 58.6409C62.8395 59.372 62.9847 60.5419 63.5652 61.1269C64.2908 61.7118 65.3067 61.8581 66.0323 61.1269C66.758 60.3957 66.6129 59.2258 66.0323 58.6409ZM44.4083 65.0753C43.8278 65.6602 43.6827 66.8301 44.4083 67.5613C45.1339 68.2925 46.1498 68.2925 46.8755 67.5613C47.456 66.9763 47.6011 65.8064 46.8755 65.0753C46.1498 64.3441 44.9888 64.4903 44.4083 65.0753ZM12.6253 28.9548C13.2058 29.5398 14.2217 29.686 15.0925 28.9548C15.8181 28.2237 15.673 27.0538 15.0925 26.4688C14.3668 25.7376 13.3509 25.8839 12.6253 26.4688C11.8997 27.2 11.8997 28.2237 12.6253 28.9548ZM78.6585 45.772C77.9328 45.1871 76.9169 45.1871 76.1913 45.772C75.6108 46.5032 75.6108 47.5269 76.3364 48.2581C76.9169 48.843 77.9328 48.9892 78.8036 48.1118C79.3841 47.3806 79.3841 46.357 78.6585 45.772ZM21.333 52.2064C20.7525 51.6215 19.7366 51.4753 19.0109 52.2064C18.2853 52.9376 18.4304 54.1075 19.0109 54.6925C19.5914 55.2774 20.7525 55.4237 21.333 54.6925C22.0586 53.9613 22.0586 52.7914 21.333 52.2064ZM27.7186 58.6409C27.1381 58.0559 26.1222 57.9097 25.3965 58.6409C24.6709 59.372 24.816 60.5419 25.3965 61.1269C25.9771 61.7118 27.1381 61.8581 27.7186 61.1269C28.4442 60.3957 28.2991 59.2258 27.7186 58.6409ZM72.2728 9.65161C72.8534 9.06667 72.9985 7.89677 72.2728 7.31183C71.6923 6.72688 70.6764 6.58065 69.9508 7.31183C69.2252 8.04301 69.3703 9.06667 69.9508 9.65161C70.6764 10.3828 71.6923 10.2366 72.2728 9.65161ZM40.4898 67.5613C41.0704 66.9763 41.2155 65.8064 40.4898 65.0753C39.9093 64.4903 38.8934 64.3441 38.1678 65.0753C37.4422 65.8064 37.5873 66.8301 38.1678 67.5613C38.8934 68.2925 39.9093 68.1462 40.4898 67.5613ZM12.6253 22.5204C13.3509 23.1054 14.3668 23.1054 14.9473 22.5204C15.5279 21.9355 15.5279 20.9118 14.9473 20.1806C14.2217 19.4495 13.2058 19.5957 12.6253 20.1806C12.0448 20.7656 11.8997 21.7892 12.6253 22.5204ZM57.1796 65.0753C56.599 65.6602 56.4539 66.6839 57.1796 67.415C57.9052 68.1462 58.9211 68.1462 59.5016 67.415C60.0821 66.8301 60.2272 65.8064 59.5016 65.0753C58.776 64.3441 57.7601 64.6366 57.1796 65.0753ZM76.3364 15.9398C76.9169 16.5247 77.9328 16.671 78.6585 15.9398C79.3841 15.2086 79.239 14.1849 78.6585 13.6C77.9328 12.8688 76.9169 13.0151 76.3364 13.6C75.7559 14.3312 75.7559 15.3548 76.3364 15.9398ZM63.5652 3.07097C64.1457 3.65591 65.1616 3.80215 65.8872 3.07097C66.6129 2.33979 66.4677 1.31613 65.8872 0.731184C65.1616 8.9407e-07 64.1457 0.146237 63.5652 0.731184C62.9847 1.46237 62.9847 2.48602 63.5652 3.07097ZM21.333 9.50538C21.9135 8.92043 22.0586 7.89677 21.333 7.16559C20.7525 6.58065 19.7366 6.43441 19.0109 7.16559C18.2853 7.89677 18.4304 8.92043 19.0109 9.50538C19.7366 10.2366 20.7525 10.0903 21.333 9.50538ZM14.9473 48.1118C15.5279 47.5269 15.673 46.5032 14.9473 45.772C14.3668 45.1871 13.3509 45.0409 12.6253 45.772C11.8997 46.5032 12.0448 47.5269 12.6253 48.1118C13.3509 48.843 14.3668 48.6968 14.9473 48.1118ZM72.2728 60.9806C72.8534 60.3957 72.9985 59.372 72.2728 58.6409C71.6923 58.0559 70.6764 57.9097 69.9508 58.6409C69.2252 59.372 69.3703 60.3957 69.9508 60.9806C70.6764 61.7118 71.6923 61.5656 72.2728 60.9806ZM25.3965 0.87742C24.816 1.46237 24.816 2.48602 25.3965 3.07097C25.9771 3.65591 26.993 3.65591 27.5735 3.07097C28.154 2.48602 28.154 1.46237 27.5735 0.87742C26.993 0.146238 25.9771 0.292474 25.3965 0.87742ZM21.1878 60.9806C21.7684 60.3957 21.9135 59.5183 21.1878 58.7871C20.6073 58.2021 19.7366 58.0559 19.0109 58.7871C18.4304 59.372 18.4304 60.3957 19.0109 60.9806C19.7366 61.7118 20.7525 61.4193 21.1878 60.9806ZM14.9473 15.9398C15.5279 15.3548 15.673 14.4774 14.9473 13.7462C14.3668 13.1613 13.4961 13.0151 12.7704 13.7462C12.1899 14.3312 12.1899 15.3548 12.7704 15.9398C13.4961 16.671 14.3668 16.3785 14.9473 15.9398ZM25.5417 67.415C25.9771 68 26.993 68 27.5735 67.415C28.154 66.8301 28.0088 65.8064 27.5735 65.3677C27.1381 64.7828 26.1222 64.6366 25.5417 65.3677C24.816 65.9527 24.9612 66.8301 25.5417 67.415ZM14.8022 52.3527C14.3668 51.7677 13.3509 51.6215 12.7704 52.3527C12.0448 53.0839 12.335 53.9613 12.7704 54.4C13.2058 54.8387 14.2217 54.9849 14.8022 54.4C15.5279 53.815 15.3827 52.9376 14.8022 52.3527ZM72.1277 0.87742C71.6923 0.292474 70.6764 0.292474 70.0959 0.87742C69.5154 1.6086 69.6605 2.48602 70.0959 2.92473C70.5313 3.36344 71.5472 3.50968 72.1277 2.92473C72.8534 2.33979 72.7082 1.46237 72.1277 0.87742ZM8.41659 35.0968C8.85197 34.6581 9.14223 33.7806 8.41659 33.0495C7.83608 32.4645 6.96531 32.4645 6.3848 33.0495C5.80429 33.6344 5.80429 34.5118 6.3848 35.0968C7.11044 35.828 7.9812 35.6817 8.41659 35.0968ZM6.3848 26.6151C5.80429 27.0538 5.80429 28.0774 6.3848 28.6624C6.96531 29.2473 7.83608 29.2473 8.41659 28.6624C8.9971 28.0774 8.9971 27.2 8.41659 26.6151C7.83608 26.0301 6.96531 26.1763 6.3848 26.6151ZM78.5133 60.8344C79.0938 60.2495 79.0938 59.372 78.5133 58.9333C78.078 58.4946 77.2072 58.2021 76.6267 58.9333C76.0462 59.5183 76.1913 60.3957 76.6267 60.9806C77.0621 61.4193 77.9328 61.4193 78.5133 60.8344ZM12.9156 7.45806C12.335 7.89677 12.335 8.77419 12.9156 9.35914C13.4961 9.94409 14.3668 9.79785 14.8022 9.35914C15.2376 8.92043 15.3827 8.04301 14.8022 7.45806C14.2217 6.87312 13.3509 6.87312 12.9156 7.45806ZM72.1277 67.2688C72.5631 66.8301 72.7082 65.9527 72.1277 65.3677C71.5472 64.7828 70.6764 64.7828 70.2411 65.3677C69.6605 65.9527 69.6605 66.8301 70.2411 67.2688C70.8216 68 71.6923 67.7075 72.1277 67.2688ZM6.52993 20.3269C6.09454 20.7656 5.94941 21.643 6.52993 22.228C7.11044 22.8129 7.83608 22.8129 8.41659 22.228C8.85197 21.7892 8.9971 20.9118 8.41659 20.3269C7.83608 19.7419 6.96531 19.8882 6.52993 20.3269ZM19.3012 65.3677C18.8658 65.8064 18.7207 66.6839 19.3012 67.1226C19.7366 67.5613 20.6073 67.7075 21.0427 67.1226C21.4781 66.6839 21.4781 65.8064 21.0427 65.3677C20.4622 64.7828 19.7366 64.929 19.3012 65.3677ZM12.9156 58.9333C12.4802 59.372 12.335 60.2495 12.9156 60.6882C13.3509 61.1269 14.2217 61.2731 14.8022 60.6882C15.2376 60.2495 15.2376 59.372 14.8022 58.9333C14.0766 58.3484 13.3509 58.4946 12.9156 58.9333ZM8.27146 13.8925C7.83608 13.4538 7.11044 13.3075 6.52993 13.8925C5.94941 14.4774 6.09454 15.2086 6.52993 15.6473C7.11044 16.2323 7.83608 16.086 8.27146 15.6473C8.85197 15.2086 8.85197 14.4774 8.27146 13.8925ZM6.67505 54.2538C7.11044 54.6925 7.83608 54.6925 8.27146 54.2538C8.70684 53.815 8.70684 53.0839 8.27146 52.6452C7.83608 52.2064 7.11044 52.0602 6.67505 52.6452C6.09454 53.2301 6.23967 53.9613 6.67505 54.2538ZM1.88583 34.9505C2.32122 34.5118 2.32122 33.9269 1.88583 33.4882C1.59558 33.1957 0.86994 32.9032 0.434556 33.4882C-0.000827417 33.9269 -0.000827417 34.6581 0.434556 35.0968C0.86994 35.3892 1.59558 35.243 1.88583 34.9505ZM0.289428 28.5161C0.724812 28.9548 1.45045 28.9548 1.74071 28.5161C2.03096 28.2237 2.17609 27.4925 1.74071 27.0538C1.30532 26.6151 0.579684 26.6151 0.289428 27.0538C-0.000827417 27.3462 -0.145955 27.9312 0.289428 28.5161ZM1.74071 39.7763C1.30532 39.3376 0.724812 39.3376 0.289428 39.7763C-0.145955 40.2151 -0.145955 40.9462 0.289428 41.2387C0.579684 41.5312 1.30532 41.6774 1.74071 41.2387C2.32122 40.8 2.17609 40.2151 1.74071 39.7763ZM14.512 66.9763C14.9473 66.5376 14.9473 65.9527 14.512 65.514C14.0766 65.0753 13.4961 65.0753 13.0607 65.514C12.6253 65.9527 12.7704 66.6839 13.0607 66.9763C13.6412 67.415 14.2217 67.415 14.512 66.9763ZM8.12633 59.2258C7.83608 58.7871 7.11044 58.7871 6.82018 59.2258C6.3848 59.6645 6.52993 60.2495 6.82018 60.5419C7.11044 60.8344 7.69095 60.9806 8.12633 60.5419C8.56172 60.1032 8.41659 59.5183 8.12633 59.2258ZM31.3468 19.5957C30.476 20.3269 30.3309 21.7892 31.3468 22.8129C32.3627 23.8366 33.814 23.6903 34.5396 22.8129C35.2652 21.9355 35.4104 20.6194 34.5396 19.5957C33.5237 18.572 32.0724 18.8645 31.3468 19.5957ZM37.7324 16.3785C38.4581 17.2559 39.9093 17.2559 40.9252 16.3785C41.796 15.5011 41.6509 14.0387 40.9252 13.1613C40.0545 12.2839 38.7483 12.2839 37.7324 13.1613C36.7165 14.1849 36.8616 15.6473 37.7324 16.3785ZM24.9612 29.2473C25.6868 29.9785 27.1381 30.271 28.0088 29.2473C28.8796 28.3699 28.8796 26.9075 28.0088 26.1763C27.1381 25.2989 25.6868 25.4452 24.9612 26.1763C24.2355 27.0538 24.2355 28.3699 24.9612 29.2473ZM34.3945 16.3785C35.1201 15.6473 35.2652 14.3312 34.3945 13.3075C33.5237 12.4301 32.2176 12.4301 31.3468 13.3075C30.6212 14.0387 30.476 15.5011 31.3468 16.3785C32.3627 17.2559 33.6688 17.1097 34.3945 16.3785ZM25.1063 19.7419C24.3806 20.4731 24.2355 21.9355 25.1063 22.6667C25.8319 23.3979 27.1381 23.5441 28.0088 22.6667C28.8796 21.7892 28.8796 20.4731 28.0088 19.7419C27.1381 18.8645 25.8319 19.0108 25.1063 19.7419ZM47.1657 9.79785C47.8914 9.06667 47.8914 7.6043 47.1657 6.87312C46.4401 6.14194 45.1339 5.9957 44.2632 6.87312C43.3924 7.75054 43.5375 9.06667 44.2632 9.79785C45.1339 10.6753 46.4401 10.6753 47.1657 9.79785ZM37.8775 6.87312C37.1519 7.6043 37.0068 8.92043 37.8775 9.79785C38.6032 10.529 39.9093 10.6753 40.7801 9.79785C41.5057 9.06667 41.6509 7.75054 40.7801 6.87312C39.9093 5.9957 38.6032 6.28817 37.8775 6.87312ZM21.6232 35.5355C22.3489 34.8043 22.494 33.6344 21.6232 32.757C20.8976 32.0258 19.5914 32.0258 18.8658 32.757C18.1402 33.4882 17.995 34.8043 18.8658 35.5355C19.7366 36.4129 20.8976 36.2667 21.6232 35.5355ZM18.8658 26.3226C18.1402 26.9075 17.995 28.2237 18.8658 29.1011C19.7366 29.9785 20.8976 29.8323 21.6232 29.1011C22.3489 28.3699 22.494 27.2 21.6232 26.3226C20.7525 25.4452 19.4463 25.5914 18.8658 26.3226ZM46.8755 3.21721C47.6011 2.63226 47.6011 1.46237 46.8755 0.584947C46.1498 -0.146236 44.9888 -0.146236 44.2632 0.584947C43.5375 1.31613 43.5375 2.48602 44.2632 3.21721C45.1339 4.09462 46.295 3.94839 46.8755 3.21721ZM53.4062 3.21721C54.1319 2.63226 54.1319 1.46237 53.4062 0.584947C52.6806 -0.146236 51.5196 -0.146236 50.7939 0.584947C50.0683 1.31613 50.0683 2.48602 50.7939 3.21721C51.6647 3.94839 52.8257 3.80215 53.4062 3.21721ZM12.6253 35.3892C13.3509 36.1204 14.3668 36.1204 15.0925 35.3892C15.673 34.6581 15.8181 33.6344 15.0925 32.9032C14.3668 32.172 13.2058 32.3183 12.6253 32.9032C12.0448 33.4882 11.8997 34.6581 12.6253 35.3892ZM14.9473 41.8237C15.5279 41.2387 15.673 40.0688 14.9473 39.4839C14.3668 38.8989 13.3509 38.7527 12.6253 39.4839C11.8997 40.2151 12.0448 41.2387 12.6253 41.9699C13.3509 42.5548 14.3668 42.4086 14.9473 41.8237ZM8.41659 39.6301C7.9812 39.0452 6.96531 39.0452 6.3848 39.6301C5.80429 40.215 5.94941 41.0925 6.3848 41.6774C6.82018 42.1161 7.69095 42.2624 8.41659 41.6774C8.9971 40.9462 8.9971 40.0688 8.41659 39.6301ZM8.41659 46.0645C7.9812 45.6258 7.25557 45.4796 6.52993 46.0645C5.94941 46.6495 6.09454 47.5269 6.52993 47.9656C7.11044 48.5505 7.83608 48.4043 8.41659 47.9656C8.85197 47.3806 8.85197 46.5032 8.41659 46.0645ZM0.579684 53.9613C0.86994 54.2538 1.30532 54.2538 1.59558 53.9613C1.88583 53.6688 1.88583 53.2301 1.59558 52.9376C1.30532 52.6452 0.724812 52.6452 0.579684 52.9376C0.289428 53.2301 0.289428 53.6688 0.579684 53.9613ZM14.6571 2.48602C15.0925 2.04731 15.0925 1.31613 14.6571 0.87742C14.2217 0.438711 13.4961 0.438711 13.0607 0.87742C12.6253 1.31613 12.6253 2.04731 13.0607 2.48602C13.4961 2.7785 14.2217 2.7785 14.6571 2.48602ZM8.12633 9.2129C8.56172 8.77419 8.56172 8.04301 8.12633 7.6043C7.69095 7.16559 6.96531 7.16559 6.52993 7.6043C6.09454 8.04301 6.09454 8.77419 6.52993 9.2129C6.96531 9.65161 7.69095 9.65161 8.12633 9.2129Z" fill="url(#paint0_linear_248_4603)"/>
<path d="M110.442 13.0151C110.442 11.9914 110.587 11.114 110.877 10.3828C111.167 9.50538 111.748 8.92044 112.328 8.18925C112.909 7.60431 113.635 7.1656 114.505 6.72689C115.376 6.43441 116.247 6.28818 117.118 6.28818C118.134 6.28818 119.004 6.43441 119.73 6.72689C120.601 7.01936 121.181 7.60431 121.907 8.18925C122.487 8.7742 122.923 9.50538 123.358 10.3828C123.648 11.2602 123.794 12.1376 123.794 13.0151V20.6194C123.794 21.643 123.648 22.5204 123.358 23.2516C123.068 24.129 122.487 24.714 121.907 25.4452C121.326 26.0301 120.601 26.4688 119.73 26.9075C118.859 27.2 117.988 27.3462 117.118 27.3462C116.102 27.3462 115.231 27.2 114.505 26.9075C113.635 26.6151 113.054 26.0301 112.328 25.4452C111.748 24.8602 111.313 24.129 110.877 23.2516C110.587 22.3742 110.442 21.4968 110.442 20.6194V13.0151ZM120.891 13.0151C120.891 12.4301 120.746 11.9914 120.601 11.5527C120.456 11.114 120.165 10.6753 119.73 10.2366C119.44 9.94409 119.004 9.65162 118.424 9.35915C117.988 9.21291 117.408 9.06667 116.973 9.06667C116.392 9.06667 115.957 9.21291 115.521 9.35915C115.086 9.65162 114.65 9.94409 114.215 10.2366C113.925 10.529 113.635 10.9677 113.344 11.5527C113.199 11.9914 113.054 12.5763 113.054 13.0151V20.6194C113.054 21.2043 113.199 21.643 113.344 22.0817C113.489 22.5204 113.78 22.9591 114.215 23.3979C114.505 23.6903 114.941 23.9828 115.521 24.2753C115.957 24.4215 116.537 24.5677 116.973 24.5677C117.553 24.5677 117.988 24.4215 118.424 24.2753C118.859 24.129 119.295 23.8366 119.73 23.3979C120.02 23.1054 120.31 22.6667 120.601 22.0817C120.746 21.643 120.891 21.0581 120.891 20.6194V13.0151ZM145.418 25.7376L151.078 7.1656C151.223 6.87312 151.513 6.58065 151.803 6.58065H153.545C153.835 6.58065 154.125 6.72689 154.27 7.1656L159.93 25.5914C160.221 26.4688 159.495 27.3462 158.624 27.3462C158.044 27.3462 157.463 26.9075 157.318 26.4688L156.012 22.228H149.481C149.481 22.228 149.336 22.228 149.336 22.3742L148.175 26.4688C148.03 27.0538 147.449 27.4925 146.724 27.4925H146.579C145.708 27.3462 145.127 26.6151 145.418 25.7376ZM150.207 19.4495H155.141C155.141 19.4495 155.286 19.4495 155.286 19.3032L152.819 11.4065C152.819 11.2602 152.674 11.2602 152.674 11.4065L150.207 19.4495ZM140.773 18.8645C140.483 18.2796 140.193 17.6946 139.758 17.4022C139.322 16.9634 139.032 16.671 138.597 16.3785C138.451 16.3785 138.451 16.2323 138.597 16.086C138.887 15.7936 139.322 15.6473 139.612 15.2086C139.903 14.9161 140.193 14.4774 140.338 14.0387C140.628 13.6 140.628 13.0151 140.628 12.2839C140.628 11.5527 140.483 10.6753 140.193 10.0903C139.903 9.35915 139.467 8.7742 139.032 8.33549C138.597 7.75054 137.871 7.31183 137.29 7.01936C136.565 6.72689 135.839 6.58065 135.113 6.58065H129.744C129.018 6.58065 128.292 7.1656 128.292 8.04302C128.292 8.7742 128.873 9.35915 129.599 9.35915H134.968C135.839 9.35915 136.565 9.65162 137 10.0903C137.726 10.6753 137.871 11.4065 137.871 12.2839C137.871 13.1613 137.581 13.8925 137.145 14.3312C136.565 14.9161 135.984 15.0624 135.113 15.0624H129.454C129.163 15.0624 128.873 15.3548 128.873 15.6473V24.129V26.3226C128.873 26.6151 129.163 26.9075 129.454 26.9075H135.404C136.275 26.9075 137 26.7613 137.726 26.4688C138.451 26.1763 139.032 25.7376 139.612 25.1527C140.193 24.5677 140.628 23.9828 140.919 23.2516C141.209 22.5204 141.354 21.7893 141.354 20.9118C141.209 20.3269 141.064 19.5957 140.773 18.8645ZM137.581 23.3979C137 23.9828 136.275 24.2753 135.259 24.2753H131.63C131.63 24.2753 131.63 24.2753 131.485 24.2753C131.485 24.2753 131.485 24.2753 131.485 24.129V17.9871C131.485 17.9871 131.485 17.9871 131.485 17.8409C131.485 17.8409 131.485 17.8409 131.63 17.8409H135.259C136.275 17.8409 137 18.1333 137.581 18.7183C138.161 19.3032 138.451 20.0344 138.451 21.0581C138.451 22.0817 138.161 22.8129 137.581 23.3979ZM104.346 42.1161C104.056 41.2387 103.476 40.6538 102.895 39.9226C102.315 39.3376 101.589 38.8989 100.718 38.4602C99.8474 38.1677 98.9767 38.0215 98.1059 38.0215C96.9449 38.0215 96.0741 38.1677 95.3485 38.6065C94.6228 39.0452 94.0423 39.4839 93.4618 39.9226C93.3167 40.0688 93.0264 40.3613 92.8813 40.5075C92.4459 41.0925 92.591 42.1161 93.1715 42.5548C93.7521 42.8473 94.4777 42.8473 94.9131 42.2624C94.9131 42.1161 95.0582 42.1161 95.0582 41.9699C95.3485 41.6774 95.6387 41.385 96.2192 41.0925C96.6546 40.8 97.2351 40.6538 97.9608 40.6538C98.5413 40.6538 98.9767 40.8 99.412 40.9462C99.8474 41.0925 100.283 41.385 100.718 41.8237C101.008 42.1161 101.299 42.5548 101.589 43.1398C101.734 43.5785 101.879 44.1634 101.879 44.6022V52.2065C101.879 52.7914 101.734 53.2301 101.589 53.6688C101.444 54.1075 101.154 54.5462 100.718 54.985C100.428 55.2774 99.9926 55.5699 99.412 55.8624C98.9767 56.0086 98.3962 56.1549 97.9608 56.1549C97.2351 56.1549 96.6546 56.0086 96.2192 55.7161C95.7839 55.4237 95.3485 55.1312 95.0582 54.8387C95.0582 54.6925 94.9131 54.6925 94.9131 54.5462C94.4777 53.9613 93.7521 53.9613 93.1715 54.2538C92.4459 54.6925 92.3008 55.7161 92.8813 56.3011C93.0264 56.4473 93.1716 56.7398 93.4618 56.886C93.8972 57.3247 94.4777 57.7634 95.3485 58.2022C96.0741 58.6409 97.09 58.7871 98.1059 58.7871C99.1218 58.7871 99.9926 58.6409 100.718 58.3484C101.589 58.0559 102.169 57.471 102.895 56.886C103.476 56.3011 103.911 55.5699 104.346 54.6925C104.637 53.8151 104.782 52.9376 104.782 52.0602V44.4559C104.927 43.871 104.637 42.9936 104.346 42.1161ZM139.322 58.7871H129.018C128.728 58.7871 128.583 58.4946 128.583 58.3484V38.8989C128.583 38.6065 128.873 38.4602 129.018 38.4602H139.322C140.048 38.4602 140.628 39.0452 140.628 39.7764C140.628 40.5075 140.048 41.0925 139.322 41.0925H131.485C131.34 41.0925 131.34 41.0925 131.34 41.2387V46.9419C131.34 47.0882 131.34 47.0882 131.485 47.0882H136.71C137.436 47.0882 138.016 47.6731 138.016 48.4043C138.016 49.1355 137.436 49.7204 136.71 49.7204H131.485C131.34 49.7204 131.34 49.7204 131.34 49.8667V55.7161C131.34 55.8624 131.34 55.8624 131.485 55.8624H139.322C140.048 55.8624 140.628 56.4473 140.628 57.1785C140.628 58.2022 140.048 58.7871 139.322 58.7871ZM155.141 44.1634C155.141 43.286 154.851 42.5548 154.27 41.9699C153.69 41.385 152.964 41.0925 152.093 41.0925H145.998C145.272 41.0925 144.692 40.5075 144.692 39.7764C144.692 39.0452 145.272 38.4602 145.998 38.4602H152.093C152.819 38.4602 153.69 38.6065 154.27 38.8989C154.996 39.1914 155.577 39.6301 156.157 40.2151C156.738 40.8 157.028 41.385 157.463 42.1161C157.753 42.8473 157.899 43.5785 157.899 44.3097C157.899 45.0409 157.753 45.9183 157.463 46.5032C157.173 47.2344 156.738 47.8194 156.157 48.4043C155.577 48.9893 154.996 49.2817 154.27 49.7204C153.545 50.0129 152.819 50.1591 152.093 50.1591H148.32C148.175 50.1591 148.175 50.3054 148.175 50.3054V57.7634C148.175 58.4946 147.594 59.0796 146.869 59.0796C146.143 59.0796 145.563 58.4946 145.563 57.7634V47.8194C145.563 47.5269 145.853 47.2344 146.143 47.2344H152.239C153.109 47.2344 153.835 46.9419 154.416 46.357C154.851 45.7721 155.141 45.0409 155.141 44.1634ZM179.668 57.1785V41.0925H178.797C178.071 41.0925 177.491 40.5075 177.491 39.7764C177.491 39.0452 178.071 38.4602 178.797 38.4602H181.99C182.28 38.4602 182.57 38.7527 182.57 39.0452V53.0839C182.57 53.2301 182.715 53.2301 182.715 53.0839L189.246 39.4839C189.536 38.8989 190.117 38.4602 190.843 38.4602C191.713 38.4602 192.439 39.1914 192.439 40.0688V57.7634C192.439 58.4946 191.858 59.0796 191.133 59.0796C190.407 59.0796 189.827 58.4946 189.827 57.7634V44.4559C189.827 44.3097 189.682 44.3097 189.682 44.4559L183.151 58.0559C182.861 58.6409 182.28 59.0796 181.554 59.0796C180.539 58.7871 179.668 58.0559 179.668 57.1785ZM120.31 39.4839V46.9419C120.31 47.0882 120.165 47.0882 120.165 47.0882H113.344C113.199 47.0882 113.199 46.9419 113.199 46.9419V39.4839C113.199 38.7527 112.619 38.1677 111.893 38.1677C111.167 38.1677 110.587 38.7527 110.587 39.4839V57.7634C110.587 58.4946 111.167 59.0796 111.893 59.0796C112.619 59.0796 113.199 58.4946 113.199 57.7634V50.1591C113.199 50.0129 113.344 50.0129 113.344 50.0129H120.165C120.31 50.0129 120.31 50.1591 120.31 50.1591V57.7634C120.31 58.4946 120.891 59.0796 121.617 59.0796C122.342 59.0796 122.923 58.4946 122.923 57.7634V39.4839C122.923 38.7527 122.342 38.1677 121.617 38.1677C121.036 38.0215 120.31 38.6065 120.31 39.4839ZM162.543 38.314C162.252 38.314 162.107 38.6065 162.107 38.7527V45.9183V57.6172C162.107 58.3484 162.688 58.9333 163.413 58.9333C164.139 58.9333 164.72 58.3484 164.72 57.6172V41.2387C164.72 41.0925 164.865 41.0925 164.865 41.0925H172.702C173.427 41.0925 174.008 40.5075 174.008 39.7764C174.008 39.0452 173.427 38.4602 172.702 38.4602H162.543V38.314ZM174.733 15.5011H170.525C169.654 15.5011 168.928 15.2086 168.348 14.6237C167.767 14.0387 167.477 13.3075 167.477 12.4301C167.477 11.5527 167.767 10.8215 168.348 10.2366C168.928 9.65162 169.654 9.35915 170.525 9.35915H176.765C177.491 9.35915 178.071 8.7742 178.071 7.89678C178.071 7.01936 177.491 6.43441 176.765 6.43441H170.525C169.799 6.43441 168.928 6.58065 168.348 6.87312C167.622 7.1656 167.042 7.60431 166.461 8.18925C165.881 8.7742 165.59 9.35915 165.155 10.0903C164.865 10.8215 164.72 11.5527 164.72 12.2839C164.72 13.3075 164.865 14.185 165.3 14.9161C165.735 15.6473 166.171 16.2323 166.751 16.671C167.332 17.1097 167.912 17.5484 168.638 17.8409C168.783 17.8409 168.783 17.9871 168.783 18.1333L165.01 25.2989C164.574 26.1763 165.155 27.2 166.171 27.2C166.751 27.2 167.187 26.9075 167.477 26.4688L171.686 18.2796C171.686 18.2796 171.686 18.2796 171.831 18.1333C171.831 18.1333 171.831 18.1333 171.976 18.1333H174.879C175.024 18.1333 175.024 18.2796 175.024 18.2796V25.7376C175.024 26.4688 175.604 27.0538 176.33 27.0538C177.055 27.0538 177.636 26.4688 177.636 25.7376V15.3548H174.733V15.5011ZM206.516 47.2344H202.308C201.437 47.2344 200.711 46.9419 200.131 46.357C199.55 45.7721 199.26 45.0409 199.26 44.1634C199.26 43.286 199.55 42.5548 200.131 41.9699C200.711 41.385 201.437 41.0925 202.308 41.0925H208.548C209.274 41.0925 209.854 40.5075 209.854 39.7764C209.854 39.0452 209.274 38.314 208.548 38.314H202.308C201.582 38.314 200.711 38.4602 200.131 38.7527C199.405 39.0452 198.825 39.4839 198.244 40.0688C197.664 40.6538 197.373 41.2387 196.938 41.9699C196.648 42.7011 196.503 43.4323 196.503 44.1634C196.503 45.1871 196.648 46.0645 197.083 46.7957C197.518 47.5269 197.954 48.1118 198.534 48.5505C199.115 48.9893 199.695 49.428 200.421 49.7204C200.566 49.7204 200.566 49.8667 200.566 50.0129L197.083 57.1785C196.648 58.0559 197.228 59.0796 198.244 59.0796C198.825 59.0796 199.26 58.7871 199.55 58.3484L203.469 50.1591C203.469 50.1591 203.469 50.1591 203.614 50.0129C203.614 50.0129 203.614 50.0129 203.759 50.0129H206.662C206.807 50.0129 206.807 50.1591 206.807 50.1591L206.952 57.6172C206.952 58.3484 207.532 58.9333 208.258 58.9333C208.984 58.9333 209.564 58.3484 209.564 57.6172L209.419 47.2344H206.516ZM94.9131 15.3548V13.7462V7.75054C94.9131 7.01936 94.3326 6.43441 93.6069 6.43441C92.8813 6.43441 92.3008 7.01936 92.3008 7.75054V9.35915V16.2323V25.8839C92.3008 26.6151 92.8813 27.2 93.6069 27.2C94.3326 27.2 94.9131 26.6151 94.9131 25.8839V20.0344V15.3548ZM103.476 6.28818C102.75 6.28818 102.169 6.87312 102.169 7.60431V13.6V20.0344V25.8839C102.169 26.6151 102.75 27.2 103.476 27.2C104.201 27.2 104.782 26.6151 104.782 25.8839V7.60431C104.927 7.01936 104.201 6.28818 103.476 6.28818Z" fill="black"/>
<path d="M97.2363 16.2323V49.5742C97.2363 50.3054 97.8168 50.8903 98.5425 50.8903C99.2681 50.8903 99.8486 50.3054 99.8486 49.5742V16.2323C99.8486 15.5011 99.2681 14.9161 98.5425 14.9161C97.8168 14.7699 97.2363 15.5011 97.2363 16.2323Z" fill="url(#paint1_linear_248_4603)"/>
</g>
<defs>
<linearGradient id="paint0_linear_248_4603" x1="39.6644" y1="6.30484" x2="39.6644" y2="86.4843" gradientUnits="userSpaceOnUse">
<stop stop-color="#F7B114"/>
<stop offset="0.2" stop-color="#F7B114"/>
<stop offset="0.541" stop-color="#62B67C"/>
<stop offset="1" stop-color="#62B67C"/>
</linearGradient>
<linearGradient id="paint1_linear_248_4603" x1="98.5706" y1="50.9224" x2="98.5706" y2="14.8408" gradientUnits="userSpaceOnUse">
<stop stop-color="#62B67C"/>
<stop offset="0.651" stop-color="#F7B114"/>
<stop offset="0.788" stop-color="#F7B114"/>
<stop offset="1" stop-color="#F7B114"/>
</linearGradient>
<clipPath id="clip0_248_4603">
<rect width="210" height="68" fill="white"/>
</clipPath>
</defs>
</svg>
