<svg id="svg-vk" viewBox="0 0 20 20" fill="none" xmlns="http://www.w3.org/2000/svg">
<path d="M5.65108e-05 9.6C-0.0124303 9.91217 5.65108e-05 10.4 5.65108e-05 10.4C5.65108e-05 14.92 4.23105 19.7616 9.50006 20C9.85117 20.0159 10.0879 20.0125 10.4001 20C15.6978 19.7881 20.0001 14.9267 20.0001 10.4C20.0001 10.4 20.0125 9.91217 20.0001 9.6C19.7881 4.3023 14.9268 0 10.4001 0H9.60006C5.08006 0 0.211964 4.3023 5.65108e-05 9.6ZM3.37339 6.08667H5.66673C5.74006 9.9 7.42006 11.5133 8.75339 11.8467V6.08667H10.9068V9.37333C12.2201 9.23333 13.6068 7.73333 14.0734 6.08H16.2201C16.0449 6.9358 15.6952 7.7463 15.1928 8.4609C14.6904 9.17551 14.0461 9.77888 13.3001 10.2333C14.1328 10.6476 14.8682 11.2338 15.4577 11.9532C16.0472 12.6726 16.4775 13.5088 16.7201 14.4067H14.3534C13.8468 12.8267 12.5801 11.6 10.9068 11.4333V14.4067H10.6401C6.08006 14.4067 3.48006 11.2867 3.37339 6.08667Z" fill="#5181B8"/>
</svg>
