<svg width="840" height="418" viewBox="0 0 840 418" fill="none" xmlns="http://www.w3.org/2000/svg">
<path d="M513.234 315.088C515.987 318.366 521.493 318.835 525.164 315.088C528.835 311.342 528.376 305.722 525.164 302.912C521.952 299.634 516.446 299.634 513.234 302.912C510.021 306.658 510.021 312.278 513.234 315.088ZM533.883 303.38C530.67 306.19 530.212 311.81 533.883 315.556C537.095 318.835 542.601 318.835 545.813 315.556C549.025 312.278 549.484 307.127 545.813 303.38C541.683 299.634 536.636 300.102 533.883 303.38ZM513.692 282.774C510.48 285.584 510.021 291.204 513.692 294.951C516.904 298.229 522.411 298.229 525.623 294.951C528.835 291.672 529.294 286.521 525.623 282.774C521.493 279.028 516.446 279.496 513.692 282.774ZM545.354 294.482C548.566 291.204 548.566 286.053 545.354 282.774C542.601 279.496 537.095 279.028 533.883 282.774C530.67 286.053 530.67 291.204 533.883 294.482C537.553 298.229 542.601 297.292 545.354 294.482ZM525.164 335.694C527.917 332.884 528.376 327.733 525.164 323.986C521.493 320.24 516.446 321.176 513.692 323.986C510.939 326.796 510.021 331.947 513.692 335.694C517.363 339.44 522.411 338.504 525.164 335.694ZM504.974 315.088C507.727 312.278 508.186 307.127 504.974 303.38C501.303 299.634 496.255 300.57 493.502 303.38C490.749 306.19 489.831 311.342 493.502 315.088C497.173 318.835 502.221 317.898 504.974 315.088ZM545.354 323.986C542.601 321.176 537.553 320.24 533.883 323.986C530.67 327.264 531.129 332.416 533.883 335.694C536.636 338.504 541.683 338.972 544.895 335.694C548.566 332.416 548.107 326.796 545.354 323.986ZM504.974 282.774C502.221 279.965 497.173 279.028 493.502 282.774C490.29 286.053 490.749 291.204 493.502 294.482C496.255 297.292 501.303 297.76 504.515 294.482C508.186 291.204 508.186 285.584 504.974 282.774ZM493.961 323.986C491.208 326.796 490.749 331.947 493.961 335.226C497.173 338.504 502.221 338.035 504.974 335.226C507.727 332.416 508.186 327.264 504.974 323.986C501.303 320.708 496.255 321.176 493.961 323.986ZM565.085 303.38C561.873 300.102 557.285 300.102 554.073 303.38C550.861 306.658 551.319 311.81 554.073 314.62C556.826 317.43 561.873 317.898 565.085 314.62C568.756 311.342 568.298 306.19 565.085 303.38ZM514.151 273.408C516.904 276.218 521.493 277.155 525.164 273.408C528.376 270.13 527.917 264.979 525.164 262.169C521.952 258.89 517.363 258.89 514.151 262.169C510.939 265.447 510.939 270.598 514.151 273.408ZM544.895 273.408C547.649 270.598 548.107 265.447 544.895 262.169C542.142 259.359 537.095 258.89 533.883 262.169C530.67 265.447 531.129 270.598 533.883 273.408C537.553 277.155 542.601 276.218 544.895 273.408ZM565.085 294.014C567.839 291.204 568.298 286.053 565.085 282.774C562.332 279.965 557.285 279.496 554.073 282.774C550.861 286.053 551.319 291.204 554.073 294.014C557.744 297.76 562.791 296.824 565.085 294.014ZM554.532 335.226C557.285 338.035 562.332 338.504 565.085 335.226C567.839 332.416 568.298 327.264 565.085 324.454C561.873 321.176 556.826 321.644 554.073 324.454C551.778 327.264 551.319 332.416 554.532 335.226ZM493.961 262.637C491.208 265.447 490.749 270.598 493.961 273.408C496.714 276.218 501.303 276.686 504.515 273.408C507.268 270.598 507.727 265.447 504.515 262.637C501.303 258.89 496.714 259.827 493.961 262.637ZM484.784 303.849C481.572 300.57 476.983 301.039 474.23 303.849C471.018 307.127 471.477 311.81 474.23 315.088C476.983 317.898 481.572 318.366 484.784 315.088C487.537 311.342 487.537 306.658 484.784 303.849ZM514.151 355.831C516.446 358.641 521.493 359.11 524.705 355.831C527.917 352.553 527.458 347.87 524.705 345.06C521.493 341.782 516.904 342.25 514.151 345.06C510.939 347.87 511.398 353.021 514.151 355.831ZM484.325 294.014C487.078 291.204 487.537 286.521 484.325 283.243C481.572 280.433 476.983 279.965 473.771 283.243C470.559 286.521 471.018 291.204 473.771 294.014C476.983 297.292 482.031 296.824 484.325 294.014ZM544.895 355.831C547.649 353.021 548.107 348.338 544.895 345.06C542.142 342.25 537.553 341.782 534.341 345.06C531.129 348.338 531.588 353.021 534.341 355.831C537.553 359.11 542.142 358.641 544.895 355.831ZM494.42 345.06C491.667 347.87 491.208 352.553 494.42 355.831C497.173 358.641 501.762 359.11 504.974 355.831C507.727 353.021 508.186 348.338 504.974 345.06C501.303 341.782 496.714 342.719 494.42 345.06ZM473.771 335.226C476.524 338.035 481.113 338.504 484.325 335.226C487.078 332.416 487.537 327.733 484.325 324.454C481.113 321.176 476.524 321.644 473.771 324.454C471.477 327.264 471.018 331.947 473.771 335.226ZM554.532 262.637C551.778 265.447 551.319 270.13 554.532 273.408C557.285 276.218 561.873 276.686 565.085 273.408C567.839 270.598 568.298 265.915 565.085 262.637C561.873 259.359 556.826 260.295 554.532 262.637ZM524.705 252.334C527.458 249.992 527.917 245.309 524.705 242.031C521.952 239.221 517.363 239.221 514.61 242.031C511.857 244.841 511.398 249.524 514.61 252.334C517.822 255.612 522.411 255.144 524.705 252.334ZM584.817 314.151C587.57 311.342 588.029 307.127 584.817 303.849C582.064 301.039 577.475 301.039 574.722 303.849C571.968 306.658 571.51 311.342 574.722 314.151C577.934 317.898 582.522 316.961 584.817 314.151ZM565.085 355.363C567.839 352.553 568.298 348.338 565.085 345.06C562.332 342.25 557.744 342.25 554.99 345.06C552.237 347.87 551.778 352.553 554.99 355.363C558.202 359.11 562.332 358.173 565.085 355.363ZM574.722 283.243C571.968 286.053 571.968 290.736 574.722 293.546C577.475 296.356 582.064 296.824 584.817 293.546C587.57 290.736 587.57 286.053 584.817 283.243C581.605 280.433 577.475 280.901 574.722 283.243ZM534.8 252.334C537.553 255.144 541.683 255.144 544.895 252.334C547.649 249.524 547.649 244.841 544.895 242.031C541.683 238.753 537.095 239.69 534.8 242.031C532.047 244.841 531.588 249.524 534.8 252.334ZM584.817 324.454C582.522 322.113 577.934 321.644 574.722 324.454C571.968 327.733 572.427 331.947 574.722 334.757C577.475 337.099 581.605 337.567 584.817 334.757C587.57 331.947 587.57 327.264 584.817 324.454ZM484.325 355.363C487.078 353.021 487.078 348.338 484.325 345.528C481.572 342.719 477.442 342.719 474.23 345.528C471.477 348.338 471.477 352.553 474.23 355.363C477.442 358.641 481.572 358.173 484.325 355.363ZM524.246 375.969C526.541 373.627 527 368.944 524.246 366.134C521.493 363.324 516.904 363.793 514.61 366.134C512.316 368.476 511.857 373.159 514.61 375.969C517.822 379.247 521.952 378.31 524.246 375.969ZM464.135 314.151C466.429 311.81 466.888 307.127 464.135 304.317C461.382 301.507 456.793 301.975 454.499 304.317C452.204 306.658 451.745 311.342 454.499 314.151C457.252 317.43 461.84 316.493 464.135 314.151ZM534.8 375.969C537.095 378.31 541.683 378.779 544.436 375.969C547.19 373.159 547.19 368.476 544.436 366.134C541.683 363.324 537.095 363.793 534.8 366.134C532.047 368.944 532.047 373.159 534.8 375.969ZM575.181 272.94C577.475 275.281 582.064 276.218 584.817 272.94C587.57 270.13 587.57 265.915 584.817 263.105C582.064 260.295 577.475 260.295 575.181 263.105C572.427 265.915 572.427 270.13 575.181 272.94ZM554.99 252.334C557.285 254.676 561.873 255.144 564.627 252.334C567.38 249.524 567.38 244.841 564.627 242.499C561.873 239.69 557.285 240.158 554.99 242.499C552.237 245.309 552.237 249.524 554.99 252.334ZM463.676 324.923C461.382 322.581 457.252 321.644 454.04 324.923C451.287 327.733 451.745 332.416 454.04 334.757C456.793 337.567 460.923 337.567 463.676 334.757C466.429 331.947 466.429 327.264 463.676 324.923ZM504.056 366.134C501.762 363.793 497.632 362.856 494.42 366.134C491.667 368.944 492.126 373.627 494.42 375.969C497.173 378.779 501.303 378.779 504.056 375.969C506.809 373.159 506.809 368.476 504.056 366.134ZM584.817 355.363C587.111 353.021 587.57 348.807 584.817 345.528C582.064 342.719 577.934 342.719 575.181 345.528C572.886 347.87 572.427 352.553 575.181 355.363C577.934 358.173 582.522 357.705 584.817 355.363ZM554.99 375.969C557.285 378.31 561.415 378.779 564.168 375.969C566.921 373.159 566.462 368.944 564.168 366.603C561.415 363.793 557.285 364.261 554.99 366.603C552.696 368.944 552.237 373.159 554.99 375.969ZM604.548 313.683C606.842 311.342 607.301 306.658 604.548 304.317C602.254 301.975 598.124 301.507 595.371 304.317C592.617 307.127 593.076 311.342 595.371 313.683C598.124 316.961 602.254 316.493 604.548 313.683ZM604.548 293.077C606.842 290.736 607.301 286.521 604.548 283.711C601.795 280.901 598.124 280.901 595.371 283.711C593.076 286.053 592.617 290.267 595.371 293.077C598.583 296.356 602.713 295.419 604.548 293.077ZM543.978 231.26C546.272 228.918 546.731 224.704 543.978 221.894C541.683 219.084 537.553 219.084 534.8 221.894C532.506 224.235 532.047 228.45 534.8 231.26C538.012 234.538 542.142 233.602 543.978 231.26ZM483.866 375.501C486.16 373.159 486.619 368.944 483.866 366.134C481.113 363.324 477.442 363.793 474.689 366.134C472.394 368.476 471.936 372.691 474.689 375.501C477.442 378.779 481.572 377.842 483.866 375.501ZM463.676 354.895C465.97 352.553 466.429 348.338 463.676 345.528C460.923 342.719 457.252 342.719 454.499 345.528C452.204 347.87 451.745 352.085 454.499 354.895C457.252 358.173 461.382 357.236 463.676 354.895ZM595.371 325.391C593.076 327.733 592.617 331.947 595.371 334.757C597.665 337.099 601.795 337.567 604.548 334.757C606.842 332.416 607.301 328.201 604.548 325.391C601.795 322.113 597.665 323.049 595.371 325.391ZM523.787 396.106C526.082 393.765 526.541 390.018 523.787 387.208C521.493 384.867 517.363 384.867 515.069 387.208C512.775 389.55 512.316 393.765 515.069 396.106C517.822 398.916 521.952 398.448 523.787 396.106ZM564.168 231.26C566.462 228.918 566.921 224.704 564.168 222.362C561.873 220.02 557.744 220.02 555.449 222.362C553.155 224.704 553.155 228.918 555.449 231.26C558.202 234.07 562.332 233.602 564.168 231.26ZM604.548 272.472C606.842 270.13 607.301 266.383 604.548 263.574C602.254 261.232 598.124 261.232 595.829 263.574C593.535 265.915 593.076 270.13 595.829 272.472C598.583 275.281 602.254 274.813 604.548 272.472ZM535.259 387.208C532.965 389.082 532.506 393.296 535.259 396.106C538.012 398.916 541.683 398.448 543.978 396.106C546.272 393.765 546.731 390.018 543.978 387.208C541.224 384.399 537.095 384.867 535.259 387.208ZM575.639 366.603C573.345 368.476 572.886 372.691 575.639 375.501C578.393 378.31 582.064 377.842 584.358 375.501C586.652 373.159 587.111 369.412 584.358 366.603C581.605 363.793 577.475 364.261 575.639 366.603ZM434.767 334.289C436.603 336.631 440.733 337.099 443.486 334.289C446.239 331.479 445.78 327.733 443.486 325.391C441.191 323.049 437.062 323.049 434.767 325.391C432.014 328.201 432.473 331.947 434.767 334.289ZM494.879 396.106C496.714 398.448 500.844 398.916 503.597 396.106C506.351 393.296 505.892 389.55 503.597 387.208C501.303 384.867 497.173 384.867 494.879 387.208C492.585 390.018 492.585 393.765 494.879 396.106ZM604.548 345.997C602.254 343.655 598.124 343.655 595.829 345.997C593.535 348.338 593.535 352.553 595.829 354.895C597.665 356.768 601.795 357.705 604.548 354.895C606.842 352.085 606.383 348.338 604.548 345.997ZM463.217 375.501C465.511 373.159 465.511 369.412 463.217 367.071C460.923 364.729 456.793 364.729 454.499 367.071C452.204 369.412 452.204 373.159 454.499 375.501C457.711 378.31 461.382 377.374 463.217 375.501ZM564.168 396.106C566.462 393.765 566.921 390.018 564.168 387.677C561.415 384.867 557.744 385.803 555.908 387.677C553.614 389.55 553.155 393.765 555.908 396.106C557.744 398.448 561.873 398.448 564.168 396.106ZM443.027 272.472C445.321 270.13 445.78 266.383 443.027 264.042C440.274 261.232 436.603 262.169 434.767 264.042C432.473 265.915 432.014 270.13 434.767 272.472C437.062 274.813 440.733 274.345 443.027 272.472ZM583.899 222.362C581.605 220.02 577.934 220.02 575.639 222.362C573.345 224.704 573.345 228.918 575.639 230.792C577.475 232.665 581.146 233.602 583.899 230.792C586.652 228.45 586.193 224.704 583.899 222.362ZM604.089 242.968C601.795 240.626 598.124 240.626 595.829 242.968C593.535 245.309 593.535 249.524 595.829 251.397C597.665 253.271 601.336 254.207 604.089 251.397C606.842 249.056 606.383 245.309 604.089 242.968ZM483.407 395.638C485.702 393.296 485.702 389.55 483.407 387.208C481.572 385.335 477.901 384.399 475.148 387.208C472.394 390.018 473.312 393.765 475.148 395.638C477.442 398.448 481.113 397.98 483.407 395.638ZM443.027 354.426C445.321 352.085 445.321 348.338 443.027 345.997C441.191 344.124 437.521 343.187 434.767 345.997C432.014 348.807 432.932 352.553 434.767 354.426C437.062 356.768 440.733 356.768 443.027 354.426ZM624.279 313.215C626.574 311.342 626.574 307.127 624.279 304.785C621.985 302.444 618.773 302.444 616.02 304.785C613.725 307.127 613.725 310.873 616.02 313.215C618.773 316.025 622.444 315.556 624.279 313.215ZM596.288 375.032C598.124 376.905 601.795 377.374 604.089 375.032C606.383 372.691 605.925 368.944 604.089 367.071C601.795 364.729 598.124 364.729 596.288 367.071C593.535 369.412 593.994 373.159 596.288 375.032ZM463.217 222.83C460.923 220.489 457.252 220.489 455.416 222.83C453.122 225.172 453.581 228.918 455.416 230.792C457.252 232.665 460.923 233.133 463.217 230.792C465.511 228.45 465.053 224.704 463.217 222.83ZM443.027 243.436C441.191 241.563 437.521 241.095 435.226 243.436C432.932 245.778 433.391 249.524 435.226 251.397C437.521 253.271 440.733 253.739 443.027 251.397C445.321 249.056 444.862 245.309 443.027 243.436ZM583.899 387.677C582.064 385.803 578.393 385.335 576.098 387.677C573.804 390.018 574.263 393.765 576.098 395.638C578.393 397.511 581.605 397.98 583.899 395.638C586.193 393.296 585.734 389.55 583.899 387.677ZM515.528 408.283C513.692 410.156 513.234 413.902 515.528 416.244C517.822 418.585 521.034 418.585 523.329 416.244C525.164 414.371 525.623 410.624 523.329 408.283C521.034 405.941 517.363 406.409 515.528 408.283ZM623.82 346.465C621.526 344.592 618.314 344.592 616.02 346.465C614.184 348.807 614.184 352.085 616.478 354.426C618.314 356.3 621.526 356.768 624.279 353.958C626.115 351.617 626.115 348.338 623.82 346.465ZM442.568 367.071C440.733 365.198 437.521 364.729 435.226 367.071C432.932 369.412 433.391 373.159 435.226 375.032C437.062 376.905 440.733 377.374 442.568 375.032C444.862 372.691 444.862 368.944 442.568 367.071ZM462.758 387.677C460.923 385.803 457.711 385.335 455.416 387.677C453.122 390.018 453.581 393.765 455.416 395.638C457.252 397.511 460.923 397.98 462.758 395.638C465.053 393.296 464.594 389.55 462.758 387.677ZM603.63 230.792C605.466 228.918 605.925 225.172 603.63 223.299C601.795 221.425 598.583 220.957 596.288 223.299C593.994 225.64 594.453 228.918 596.288 230.792C598.583 233.133 601.795 232.665 603.63 230.792ZM503.138 416.244C504.974 414.371 505.433 410.624 503.138 408.283C501.303 406.409 498.091 405.941 495.797 408.283C493.502 410.624 493.961 413.902 495.797 416.244C498.091 418.585 501.303 418.117 503.138 416.244ZM555.908 408.283C554.073 410.156 553.614 413.434 555.908 415.776C558.202 418.117 561.415 418.117 563.25 415.776C565.085 413.902 565.544 410.624 563.25 408.283C560.956 405.941 557.744 406.878 555.908 408.283ZM616.478 250.929C618.314 252.802 621.526 253.271 623.82 250.929C626.115 248.588 625.656 245.309 623.82 243.436C621.526 241.095 618.314 241.563 616.478 243.436C614.643 245.778 614.643 249.056 616.478 250.929ZM422.378 353.958C424.213 352.085 424.672 348.807 422.378 346.465C420.542 344.592 417.33 344.124 415.036 346.465C412.742 348.807 413.201 352.085 415.036 353.958C417.33 356.3 420.542 355.831 422.378 353.958ZM603.63 395.17C605.466 393.296 605.925 390.018 603.63 387.677C601.795 385.803 598.583 385.335 596.288 387.677C593.994 390.018 594.453 393.296 596.288 395.17C598.583 397.511 601.795 397.043 603.63 395.17ZM442.109 395.17C443.945 393.296 444.404 390.487 442.109 388.145C440.274 386.272 437.521 385.803 435.226 388.145C433.391 390.018 433.391 393.296 435.226 395.17C437.521 397.511 440.733 396.575 442.109 395.17ZM455.875 415.776C457.252 417.649 460.464 417.649 462.299 415.776C464.135 413.902 463.676 410.624 462.299 409.219C460.923 407.346 457.711 406.878 455.875 409.219C453.581 411.092 454.04 413.902 455.875 415.776ZM421.919 367.539C420.542 365.666 417.33 365.198 415.495 367.539C413.201 369.881 414.118 372.691 415.495 374.096C416.872 375.501 420.084 375.969 421.919 374.096C424.213 372.222 423.755 369.412 421.919 367.539ZM603.171 202.693C601.795 200.82 598.583 200.82 596.747 202.693C594.912 205.034 595.371 207.844 596.747 209.249C598.124 210.654 601.336 211.122 603.171 209.249C605.466 207.376 605.007 204.566 603.171 202.693ZM401.729 312.278C403.106 310.873 404.023 308.063 401.729 305.722C399.894 303.849 397.14 303.849 395.305 305.722C393.469 307.595 393.469 310.405 395.305 312.278C397.599 314.62 400.352 314.151 401.729 312.278ZM623.361 394.701C625.197 392.828 625.197 390.018 623.361 388.613C621.985 387.208 619.232 386.272 617.396 388.613C615.561 390.487 616.02 393.296 617.396 395.17C618.773 396.575 621.526 396.575 623.361 394.701ZM603.171 415.307C604.548 413.902 605.007 411.092 603.171 409.219C601.336 407.346 598.583 407.346 597.206 409.219C595.371 411.092 595.371 413.902 597.206 415.307C599.042 417.649 601.795 416.712 603.171 415.307ZM395.764 264.979C394.387 266.383 393.928 269.193 395.764 271.067C397.599 272.94 399.894 272.94 401.729 271.067C403.106 269.662 403.564 266.852 401.729 264.979C399.894 263.105 397.14 263.574 395.764 264.979ZM436.144 409.219C434.767 410.624 434.308 413.434 436.144 414.839C437.521 416.244 440.274 416.712 441.65 414.839C443.027 413.434 443.027 410.624 441.65 409.219C439.815 407.346 437.521 407.814 436.144 409.219ZM415.954 388.613C414.577 390.018 414.118 392.828 415.954 394.233C417.33 395.638 420.084 396.106 421.919 394.233C423.296 392.828 423.296 390.018 421.919 388.613C419.625 386.74 417.33 387.208 415.954 388.613ZM396.223 373.627C397.599 375.032 399.894 375.032 401.27 373.627C402.647 372.222 402.647 369.881 401.27 368.476C399.894 367.071 397.599 366.603 396.223 368.476C394.387 370.349 394.846 372.691 396.223 373.627ZM421.001 414.371C422.378 412.966 422.378 411.092 421.001 409.687C419.625 408.282 417.789 408.282 416.413 409.687C415.036 411.092 415.495 413.434 416.413 414.371C418.248 415.776 420.084 415.776 421.001 414.371ZM400.811 389.55C399.894 388.145 397.599 388.145 396.681 389.55C395.305 390.955 395.764 392.828 396.681 393.765C397.599 394.701 399.435 395.17 400.811 393.765C402.188 392.36 401.729 390.487 400.811 389.55ZM474.23 262.637C471.477 264.979 471.018 269.662 474.23 272.94C477.442 276.218 482.031 275.75 484.325 272.94C486.619 270.13 487.078 265.915 484.325 262.637C481.113 259.359 476.524 260.295 474.23 262.637ZM494.42 252.334C496.714 255.144 501.303 255.144 504.515 252.334C507.268 249.524 506.809 244.841 504.515 242.031C501.762 239.221 497.632 239.221 494.42 242.031C491.208 245.309 491.667 249.992 494.42 252.334ZM454.04 293.546C456.334 295.887 460.923 296.824 463.676 293.546C466.429 290.736 466.429 286.053 463.676 283.711C460.923 280.901 456.334 281.369 454.04 283.711C451.745 286.521 451.745 290.736 454.04 293.546ZM483.866 252.334C486.16 249.992 486.619 245.778 483.866 242.499C481.113 239.69 476.983 239.69 474.23 242.499C471.936 244.841 471.477 249.524 474.23 252.334C477.442 255.144 481.572 254.676 483.866 252.334ZM454.499 263.105C452.204 265.447 451.745 270.13 454.499 272.472C456.793 274.813 460.923 275.281 463.676 272.472C466.429 269.662 466.429 265.447 463.676 263.105C460.923 260.295 456.793 260.764 454.499 263.105ZM524.246 231.26C526.541 228.918 526.541 224.235 524.246 221.894C521.952 219.552 517.822 219.084 515.069 221.894C512.316 224.704 512.775 228.918 515.069 231.26C517.822 234.07 521.952 234.07 524.246 231.26ZM494.879 221.894C492.585 224.235 492.126 228.45 494.879 231.26C497.173 233.602 501.303 234.07 504.056 231.26C506.351 228.918 506.809 224.704 504.056 221.894C501.303 219.084 497.173 220.02 494.879 221.894ZM443.486 313.683C445.78 311.342 446.239 307.595 443.486 304.785C441.191 302.444 437.062 302.444 434.767 304.785C432.473 307.127 432.014 311.342 434.767 313.683C437.521 316.493 441.191 316.025 443.486 313.683ZM434.767 284.179C432.473 286.053 432.014 290.267 434.767 293.077C437.521 295.887 441.191 295.419 443.486 293.077C445.78 290.736 446.239 286.989 443.486 284.179C440.733 281.37 436.603 281.838 434.767 284.179ZM543.978 210.186C546.272 208.313 546.272 204.566 543.978 201.756C541.683 199.415 538.012 199.415 535.718 201.756C533.424 204.098 533.424 207.844 535.718 210.186C538.471 212.527 542.142 212.059 543.978 210.186ZM415.036 313.215C417.33 315.556 420.542 315.556 422.837 313.215C424.672 310.873 425.131 307.595 422.837 305.254C420.542 302.912 416.872 303.38 415.036 305.254C413.201 307.127 412.742 310.873 415.036 313.215ZM422.378 333.821C424.213 331.947 424.672 328.201 422.378 326.328C420.542 324.454 417.33 323.986 415.036 326.328C412.742 328.669 413.201 331.947 415.036 334.289C417.33 336.162 420.542 335.694 422.378 333.821ZM401.729 326.796C400.352 324.923 397.14 324.923 395.305 326.796C393.469 328.669 393.928 331.479 395.305 333.352C396.681 334.757 399.435 335.226 401.729 333.352C403.564 331.011 403.564 328.201 401.729 326.796ZM401.729 347.402C400.352 345.997 398.058 345.528 395.764 347.402C393.928 349.275 394.387 352.085 395.764 353.49C397.599 355.363 399.894 354.895 401.729 353.49C403.106 351.617 403.106 348.807 401.729 347.402ZM376.95 372.691C377.868 373.627 379.245 373.627 380.162 372.691C381.08 371.754 381.08 370.349 380.162 369.412C379.245 368.476 377.409 368.476 376.95 369.412C376.032 370.349 376.032 371.754 376.95 372.691Z" fill="url(#paint0_linear_2039_241)" fill-opacity="0.5"/>
<path d="M729.32 322.169C731.876 325.222 736.988 325.658 740.395 322.169C743.803 318.68 743.377 313.447 740.395 310.831C737.414 307.778 732.302 307.778 729.32 310.831C726.339 314.32 726.339 319.553 729.32 322.169ZM748.489 311.267C745.507 313.883 745.081 319.117 748.489 322.605C751.47 325.658 756.582 325.658 759.564 322.605C762.545 319.553 762.971 314.756 759.564 311.267C755.73 307.778 751.044 308.214 748.489 311.267ZM729.746 292.079C726.765 294.695 726.339 299.929 729.746 303.417C732.728 306.47 737.84 306.47 740.821 303.417C743.803 300.365 744.229 295.568 740.821 292.079C736.988 288.59 732.302 289.026 729.746 292.079ZM759.138 302.981C762.119 299.929 762.119 295.132 759.138 292.079C756.582 289.026 751.47 288.59 748.489 292.079C745.507 295.132 745.507 299.929 748.489 302.981C751.896 306.47 756.582 305.598 759.138 302.981ZM740.395 341.357C742.951 338.741 743.377 333.944 740.395 330.455C736.988 326.966 732.302 327.838 729.746 330.455C727.191 333.071 726.339 337.868 729.746 341.357C733.154 344.846 737.84 343.974 740.395 341.357ZM721.653 322.169C724.209 319.553 724.635 314.756 721.653 311.267C718.245 307.778 713.56 308.65 711.004 311.267C708.448 313.883 707.596 318.68 711.004 322.169C714.412 325.658 719.097 324.786 721.653 322.169ZM759.138 330.455C756.582 327.838 751.896 326.966 748.489 330.455C745.507 333.508 745.933 338.305 748.489 341.357C751.044 343.974 755.73 344.41 758.712 341.357C762.119 338.305 761.693 333.071 759.138 330.455ZM721.653 292.079C719.097 289.462 714.412 288.59 711.004 292.079C708.022 295.132 708.448 299.929 711.004 302.981C713.56 305.598 718.245 306.034 721.227 302.981C724.635 299.929 724.635 294.695 721.653 292.079ZM711.43 330.455C708.874 333.071 708.448 337.868 711.43 340.921C714.412 343.974 719.097 343.538 721.653 340.921C724.209 338.305 724.635 333.508 721.653 330.455C718.245 327.402 713.56 327.838 711.43 330.455ZM777.454 311.267C774.472 308.214 770.213 308.214 767.231 311.267C764.249 314.32 764.675 319.117 767.231 321.733C769.787 324.35 774.472 324.786 777.454 321.733C780.862 318.68 780.436 313.883 777.454 311.267ZM730.172 283.357C732.728 285.974 736.988 286.846 740.395 283.357C743.377 280.305 742.951 275.508 740.395 272.891C737.414 269.838 733.154 269.838 730.172 272.891C727.191 275.944 727.191 280.741 730.172 283.357ZM758.712 283.357C761.267 280.741 761.693 275.944 758.712 272.891C756.156 270.274 751.47 269.838 748.489 272.891C745.507 275.944 745.933 280.741 748.489 283.357C751.896 286.846 756.582 285.974 758.712 283.357ZM777.454 302.545C780.01 299.929 780.436 295.132 777.454 292.079C774.898 289.462 770.213 289.026 767.231 292.079C764.249 295.132 764.675 299.929 767.231 302.545C770.638 306.034 775.324 305.162 777.454 302.545ZM767.657 340.921C770.213 343.538 774.898 343.974 777.454 340.921C780.01 338.305 780.436 333.508 777.454 330.891C774.472 327.838 769.787 328.274 767.231 330.891C765.101 333.508 764.675 338.305 767.657 340.921ZM711.43 273.327C708.874 275.944 708.448 280.741 711.43 283.357C713.986 285.974 718.245 286.41 721.227 283.357C723.783 280.741 724.209 275.944 721.227 273.327C718.245 269.838 713.986 270.711 711.43 273.327ZM702.911 311.703C699.929 308.65 695.67 309.086 693.114 311.703C690.132 314.756 690.558 319.117 693.114 322.169C695.67 324.786 699.929 325.222 702.911 322.169C705.467 318.68 705.467 314.32 702.911 311.703ZM730.172 360.109C732.302 362.726 736.988 363.162 739.969 360.109C742.951 357.056 742.525 352.695 739.969 350.079C736.988 347.026 732.728 347.462 730.172 350.079C727.191 352.695 727.617 357.492 730.172 360.109ZM702.485 302.545C705.041 299.929 705.467 295.568 702.485 292.515C699.929 289.898 695.67 289.462 692.688 292.515C689.706 295.568 690.132 299.929 692.688 302.545C695.67 305.598 700.355 305.162 702.485 302.545ZM758.712 360.109C761.267 357.492 761.693 353.132 758.712 350.079C756.156 347.462 751.896 347.026 748.915 350.079C745.933 353.132 746.359 357.492 748.915 360.109C751.896 363.162 756.156 362.726 758.712 360.109ZM711.856 350.079C709.3 352.695 708.874 357.056 711.856 360.109C714.412 362.726 718.671 363.162 721.653 360.109C724.209 357.492 724.635 353.132 721.653 350.079C718.245 347.026 713.986 347.899 711.856 350.079ZM692.688 340.921C695.244 343.538 699.503 343.974 702.485 340.921C705.041 338.305 705.467 333.944 702.485 330.891C699.503 327.838 695.244 328.274 692.688 330.891C690.558 333.508 690.132 337.868 692.688 340.921ZM767.657 273.327C765.101 275.944 764.675 280.305 767.657 283.357C770.213 285.974 774.472 286.41 777.454 283.357C780.01 280.741 780.436 276.38 777.454 273.327C774.472 270.274 769.787 271.147 767.657 273.327ZM739.969 263.733C742.525 261.553 742.951 257.192 739.969 254.139C737.414 251.523 733.154 251.523 730.598 254.139C728.042 256.756 727.617 261.117 730.598 263.733C733.58 266.786 737.84 266.35 739.969 263.733ZM795.77 321.297C798.326 318.68 798.752 314.756 795.77 311.703C793.214 309.086 788.955 309.086 786.399 311.703C783.843 314.32 783.417 318.68 786.399 321.297C789.381 324.786 793.64 323.914 795.77 321.297ZM777.454 359.673C780.01 357.056 780.436 353.132 777.454 350.079C774.898 347.462 770.638 347.462 768.083 350.079C765.527 352.695 765.101 357.056 768.083 359.673C771.064 363.162 774.898 362.289 777.454 359.673ZM749.34 263.733C751.896 266.35 755.73 266.35 758.712 263.733C761.267 261.117 761.267 256.756 758.712 254.139C755.73 251.086 751.47 251.959 749.34 254.139C746.785 256.756 746.359 261.117 749.34 263.733ZM795.77 330.891C793.64 328.711 789.381 328.274 786.399 330.891C783.843 333.944 784.269 337.868 786.399 340.485C788.955 342.665 792.788 343.102 795.77 340.485C798.326 337.868 798.326 333.508 795.77 330.891ZM702.485 359.673C705.041 357.492 705.041 353.132 702.485 350.515C699.929 347.899 696.096 347.899 693.114 350.515C690.558 353.132 690.558 357.056 693.114 359.673C696.096 362.726 699.929 362.289 702.485 359.673ZM739.543 378.861C741.673 376.68 742.099 372.32 739.543 369.703C736.988 367.086 732.728 367.523 730.598 369.703C728.468 371.883 728.042 376.244 730.598 378.861C733.58 381.914 737.414 381.041 739.543 378.861ZM683.743 321.297C685.872 319.117 686.298 314.756 683.743 312.139C681.187 309.523 676.927 309.959 674.798 312.139C672.668 314.32 672.242 318.68 674.798 321.297C677.353 324.35 681.613 323.477 683.743 321.297ZM749.34 378.861C751.47 381.041 755.73 381.477 758.286 378.861C760.841 376.244 760.841 371.883 758.286 369.703C755.73 367.086 751.47 367.523 749.34 369.703C746.785 372.32 746.785 376.244 749.34 378.861ZM786.825 282.921C788.955 285.102 793.214 285.974 795.77 282.921C798.326 280.305 798.326 276.38 795.77 273.763C793.214 271.147 788.955 271.147 786.825 273.763C784.269 276.38 784.269 280.305 786.825 282.921ZM683.317 331.327C681.187 329.147 677.353 328.274 674.372 331.327C671.816 333.944 672.242 338.305 674.372 340.485C676.927 343.102 680.761 343.102 683.317 340.485C685.872 337.868 685.872 333.508 683.317 331.327ZM720.801 369.703C718.671 367.523 714.838 366.65 711.856 369.703C709.3 372.32 709.726 376.68 711.856 378.861C714.412 381.477 718.245 381.477 720.801 378.861C723.357 376.244 723.357 371.883 720.801 369.703ZM795.77 359.673C797.9 357.492 798.326 353.568 795.77 350.515C793.214 347.899 789.381 347.899 786.825 350.515C784.695 352.696 784.269 357.056 786.825 359.673C789.381 362.289 793.64 361.853 795.77 359.673ZM768.083 378.861C770.213 381.041 774.046 381.477 776.602 378.861C779.158 376.244 778.732 372.32 776.602 370.139C774.046 367.523 770.213 367.959 768.083 370.139C765.953 372.32 765.527 376.244 768.083 378.861ZM814.086 320.861C816.216 318.68 816.642 314.32 814.086 312.139C811.957 309.959 808.123 309.523 805.567 312.139C803.011 314.756 803.437 318.68 805.567 320.861C808.123 323.914 811.957 323.477 814.086 320.861ZM814.086 301.673C816.216 299.492 816.642 295.568 814.086 292.951C811.531 290.335 808.123 290.335 805.567 292.951C803.437 295.132 803.011 299.056 805.567 301.673C808.549 304.726 812.383 303.853 814.086 301.673ZM757.86 244.109C759.989 241.929 760.415 238.004 757.86 235.387C755.73 232.771 751.896 232.771 749.34 235.387C747.211 237.568 746.785 241.492 749.34 244.109C752.322 247.162 756.156 246.289 757.86 244.109ZM702.059 378.425C704.189 376.244 704.615 372.32 702.059 369.703C699.503 367.086 696.096 367.523 693.54 369.703C691.41 371.883 690.984 375.808 693.54 378.425C696.096 381.477 699.929 380.605 702.059 378.425ZM683.317 359.237C685.447 357.056 685.872 353.132 683.317 350.515C680.761 347.899 677.353 347.899 674.798 350.515C672.668 352.696 672.242 356.62 674.798 359.237C677.353 362.289 681.187 361.417 683.317 359.237ZM786.825 254.575C784.695 256.756 784.269 260.68 786.825 263.297C789.381 265.914 793.214 265.477 795.344 263.297C797.474 261.117 797.9 257.192 795.344 254.575C792.788 251.959 788.955 252.831 786.825 254.575ZM805.567 331.763C803.437 333.944 803.011 337.868 805.567 340.485C807.697 342.665 811.531 343.102 814.086 340.485C816.216 338.305 816.642 334.38 814.086 331.763C811.531 328.711 807.697 329.583 805.567 331.763ZM739.117 397.613C741.247 395.432 741.673 391.944 739.117 389.327C736.988 387.147 733.154 387.147 731.024 389.327C728.894 391.508 728.468 395.432 731.024 397.613C733.58 400.229 737.414 399.793 739.117 397.613ZM776.602 244.109C778.732 241.929 779.158 238.004 776.602 235.823C774.472 233.643 770.638 233.643 768.509 235.823C766.379 238.004 766.379 241.929 768.509 244.109C771.064 246.726 774.898 246.289 776.602 244.109ZM814.086 282.485C816.216 280.305 816.642 276.816 814.086 274.199C811.957 272.019 808.123 272.019 805.993 274.199C803.863 276.38 803.437 280.305 805.993 282.485C808.549 285.102 811.957 284.665 814.086 282.485ZM749.766 389.327C747.637 391.071 747.211 394.996 749.766 397.613C752.322 400.229 755.73 399.793 757.86 397.613C759.989 395.432 760.415 391.944 757.86 389.327C755.304 386.711 751.47 387.147 749.766 389.327ZM787.251 370.139C785.121 371.883 784.695 375.808 787.251 378.425C789.807 381.041 793.214 380.605 795.344 378.425C797.474 376.244 797.9 372.756 795.344 370.139C792.788 367.523 788.955 367.959 787.251 370.139ZM683.317 263.297C685.447 261.117 685.872 257.628 683.317 255.011C680.761 252.395 676.927 252.831 675.223 255.011C673.52 257.192 672.668 260.68 675.223 263.297C677.779 265.914 681.187 265.477 683.317 263.297ZM693.966 244.109C695.67 246.289 699.503 246.726 702.059 244.109C704.615 241.492 704.189 238.004 702.059 235.823C699.929 233.643 696.096 233.643 693.966 235.823C691.41 238.44 691.41 241.929 693.966 244.109ZM656.481 340.049C658.185 342.229 662.019 342.665 664.574 340.049C667.13 337.432 666.704 333.944 664.574 331.763C662.445 329.583 658.611 329.583 656.481 331.763C653.925 334.38 654.351 337.868 656.481 340.049ZM712.282 397.613C713.986 399.793 717.819 400.229 720.375 397.613C722.931 394.996 722.505 391.508 720.375 389.327C718.245 387.147 714.412 387.147 712.282 389.327C710.152 391.944 710.152 395.432 712.282 397.613ZM814.086 350.951C811.957 348.771 808.123 348.771 805.993 350.951C803.863 353.132 803.863 357.056 805.993 359.237C807.697 360.981 811.531 361.853 814.086 359.237C816.216 356.62 815.79 353.132 814.086 350.951ZM682.891 378.425C685.021 376.244 685.021 372.756 682.891 370.575C680.761 368.395 676.927 368.395 674.798 370.575C672.668 372.756 672.668 376.244 674.798 378.425C677.779 381.041 681.187 380.169 682.891 378.425ZM776.602 397.613C778.732 395.432 779.158 391.944 776.602 389.763C774.046 387.147 770.638 388.019 768.935 389.763C766.805 391.508 766.379 395.432 768.935 397.613C770.638 399.793 774.472 399.793 776.602 397.613ZM664.149 282.485C666.278 280.305 666.704 276.816 664.149 274.635C661.593 272.019 658.185 272.891 656.481 274.635C654.351 276.38 653.925 280.305 656.481 282.485C658.611 284.665 662.019 284.229 664.149 282.485ZM701.633 397.177C703.763 394.996 703.763 391.508 701.633 389.327C699.929 387.583 696.521 386.711 693.966 389.327C691.41 391.944 692.262 395.432 693.966 397.177C696.096 399.793 699.503 399.357 701.633 397.177ZM664.149 358.801C666.278 356.62 666.278 353.132 664.149 350.951C662.445 349.207 659.037 348.335 656.481 350.951C653.925 353.568 654.777 357.056 656.481 358.801C658.611 360.981 662.019 360.981 664.149 358.801ZM832.403 320.425C834.532 318.68 834.532 314.756 832.403 312.575C830.273 310.395 827.291 310.395 824.735 312.575C822.606 314.756 822.606 318.244 824.735 320.425C827.291 323.041 830.699 322.605 832.403 320.425ZM712.708 217.071C710.578 218.816 710.578 222.305 712.708 224.921C714.838 226.665 717.819 227.102 719.949 224.921C722.079 222.741 722.079 219.252 719.949 217.071C717.819 214.455 714.412 214.891 712.708 217.071ZM806.419 377.989C808.123 379.733 811.531 380.169 813.66 377.989C815.79 375.808 815.364 372.32 813.66 370.575C811.531 368.395 808.123 368.395 806.419 370.575C803.863 372.756 804.289 376.244 806.419 377.989ZM682.891 236.259C680.761 234.079 677.353 234.079 675.649 236.259C673.52 238.44 673.946 241.929 675.649 243.673C677.353 245.417 680.761 245.853 682.891 243.673C685.021 241.492 684.595 238.004 682.891 236.259ZM664.149 255.447C662.445 253.703 659.037 253.267 656.907 255.447C654.777 257.628 655.203 261.117 656.907 262.861C659.037 264.605 662.019 265.041 664.149 262.861C666.278 260.68 665.852 257.192 664.149 255.447ZM794.918 389.763C793.214 388.019 789.807 387.583 787.677 389.763C785.547 391.944 785.973 395.432 787.677 397.177C789.807 398.921 792.788 399.357 794.918 397.177C797.048 394.996 796.622 391.508 794.918 389.763ZM731.45 408.951C729.746 410.695 729.32 414.184 731.45 416.365C733.58 418.545 736.562 418.545 738.691 416.365C740.395 414.62 740.821 411.132 738.691 408.951C736.562 406.771 733.154 407.207 731.45 408.951ZM638.165 301.237C639.869 302.981 642.851 303.417 645.406 301.237C647.536 299.056 647.11 295.568 645.406 293.823C643.276 291.643 640.295 292.079 638.165 293.823C636.035 296.004 636.035 299.056 638.165 301.237ZM831.977 351.387C829.847 349.643 826.865 349.643 824.735 351.387C823.032 353.568 823.032 356.62 825.161 358.801C826.865 360.545 829.847 360.981 832.403 358.365C834.106 356.184 834.106 353.132 831.977 351.387ZM663.723 370.575C662.019 368.831 659.037 368.395 656.907 370.575C654.777 372.756 655.203 376.244 656.907 377.989C658.611 379.733 662.019 380.169 663.723 377.989C665.852 375.808 665.852 372.32 663.723 370.575ZM682.465 389.763C680.761 388.019 677.779 387.583 675.649 389.763C673.52 391.944 673.946 395.432 675.649 397.177C677.353 398.921 680.761 399.357 682.465 397.177C684.595 394.996 684.169 391.508 682.465 389.763ZM719.949 416.365C721.653 414.62 722.079 411.132 719.949 408.951C718.245 407.207 715.264 406.771 713.134 408.951C711.004 411.132 711.43 414.184 713.134 416.365C715.264 418.545 718.245 418.109 719.949 416.365ZM638.165 282.049C640.295 283.793 643.277 283.793 644.98 282.049C646.684 280.305 646.684 277.252 644.98 275.071C642.851 272.891 639.869 273.327 638.165 275.071C636.461 276.816 636.035 279.868 638.165 282.049ZM768.935 408.951C767.231 410.695 766.805 413.748 768.935 415.929C771.064 418.109 774.046 418.109 775.75 415.929C777.454 414.184 777.88 411.132 775.75 408.951C773.62 406.771 770.638 407.643 768.935 408.951ZM663.723 243.237C665.426 241.492 665.852 238.44 663.723 236.259C662.019 234.515 659.037 234.079 656.907 236.259C654.777 238.44 655.203 241.492 656.907 243.237C659.037 245.417 662.019 244.981 663.723 243.237ZM644.98 358.365C646.684 356.62 647.11 353.568 644.98 351.387C643.277 349.643 640.295 349.207 638.165 351.387C636.035 353.568 636.461 356.62 638.165 358.365C640.295 360.545 643.277 360.109 644.98 358.365ZM813.234 396.741C814.938 394.996 815.364 391.944 813.234 389.763C811.531 388.019 808.549 387.583 806.419 389.763C804.289 391.944 804.715 394.996 806.419 396.741C808.549 398.921 811.531 398.485 813.234 396.741ZM675.649 217.508C673.946 219.252 673.946 222.305 675.649 224.049C677.353 225.793 680.335 225.793 682.039 224.049C683.743 222.305 683.743 219.252 682.039 217.508C680.335 215.327 677.353 215.763 675.649 217.508ZM663.297 396.741C665 394.996 665.426 392.38 663.297 390.199C661.593 388.455 659.037 388.019 656.907 390.199C655.203 391.944 655.203 394.996 656.907 396.741C659.037 398.921 662.019 398.049 663.297 396.741ZM644.98 262.425C646.684 260.68 647.11 258.064 644.98 255.883C643.277 254.139 640.721 253.703 638.591 255.883C636.887 257.628 636.887 260.68 638.591 262.425C640.721 264.605 643.277 263.733 644.98 262.425ZM676.075 415.929C677.353 417.673 680.335 417.673 682.039 415.929C683.743 414.184 683.317 411.132 682.039 409.823C680.761 408.079 677.779 407.643 676.075 409.823C673.946 411.568 674.372 414.184 676.075 415.929ZM644.554 371.011C643.277 369.267 640.295 368.831 638.591 371.011C636.461 373.192 637.313 375.808 638.591 377.117C639.869 378.425 642.851 378.861 644.554 377.117C646.684 375.372 646.258 372.756 644.554 371.011ZM625.812 319.553C627.09 318.244 627.942 315.628 625.812 313.447C624.108 311.703 621.553 311.703 619.849 313.447C618.145 315.192 618.145 317.808 619.849 319.553C621.979 321.733 624.534 321.297 625.812 319.553ZM619.849 294.259C618.145 295.568 618.145 298.62 619.849 300.365C621.553 302.109 624.108 302.109 625.812 300.365C627.516 298.62 627.516 296.004 625.812 294.259C624.108 292.515 621.553 292.951 619.849 294.259ZM831.551 396.305C833.255 394.56 833.255 391.944 831.551 390.635C830.273 389.327 827.717 388.455 826.013 390.635C824.309 392.38 824.735 394.996 826.013 396.741C827.291 398.049 829.847 398.049 831.551 396.305ZM639.017 237.132C637.313 238.44 637.313 241.056 639.017 242.801C640.721 244.545 643.277 244.109 644.554 242.801C645.832 241.492 646.258 238.876 644.554 237.132C642.851 235.387 640.295 235.387 639.017 237.132ZM812.808 415.492C814.086 414.184 814.512 411.568 812.808 409.823C811.105 408.079 808.549 408.079 807.271 409.823C805.567 411.568 805.567 414.184 807.271 415.492C808.975 417.673 811.531 416.801 812.808 415.492ZM620.275 275.508C618.997 276.816 618.571 279.432 620.275 281.177C621.979 282.921 624.108 282.921 625.812 281.177C627.09 279.868 627.516 277.252 625.812 275.508C624.108 273.763 621.553 274.199 620.275 275.508ZM657.759 409.823C656.481 411.132 656.055 413.748 657.759 415.056C659.037 416.365 661.593 416.801 662.871 415.056C664.149 413.748 664.149 411.132 662.871 409.823C661.167 408.079 659.037 408.515 657.759 409.823ZM639.017 390.635C637.739 391.944 637.313 394.56 639.017 395.868C640.295 397.177 642.851 397.613 644.554 395.868C645.832 394.56 645.832 391.944 644.554 390.635C642.425 388.891 640.295 389.327 639.017 390.635ZM625.386 256.32C624.108 255.011 621.979 254.575 620.275 256.32C618.571 258.064 618.997 260.244 620.275 261.553C621.979 263.297 624.108 262.861 625.386 261.553C627.09 260.244 627.09 258.064 625.386 256.32ZM620.701 376.68C621.979 377.989 624.108 377.989 625.386 376.68C626.664 375.372 626.664 373.192 625.386 371.883C624.108 370.575 621.979 370.139 620.701 371.883C618.997 373.628 619.423 375.808 620.701 376.68ZM606.644 319.117C607.922 317.808 607.922 316.064 606.644 314.756C605.792 313.883 603.662 313.011 602.384 314.756C601.106 316.064 601.106 318.244 602.384 319.553C603.662 320.425 605.792 319.989 606.644 319.117ZM601.958 299.929C603.236 301.237 605.366 301.237 606.218 299.929C607.07 299.056 607.496 296.876 606.218 295.568C604.94 294.259 602.81 294.259 601.958 295.568C601.106 296.44 600.681 298.184 601.958 299.929ZM606.218 333.508C604.94 332.199 603.236 332.199 601.958 333.508C600.681 334.816 600.681 336.996 601.958 337.868C602.81 338.741 604.94 339.177 606.218 337.868C607.922 336.56 607.496 334.816 606.218 333.508ZM643.702 414.62C644.98 413.312 644.98 411.568 643.702 410.259C642.425 408.951 640.721 408.951 639.443 410.259C638.165 411.568 638.591 413.748 639.443 414.62C641.147 415.929 642.851 415.929 643.702 414.62ZM624.96 391.508C624.108 390.199 621.979 390.199 621.127 391.508C619.849 392.816 620.275 394.56 621.127 395.432C621.979 396.305 623.682 396.741 624.96 395.432C626.238 394.124 625.812 392.38 624.96 391.508ZM693.114 273.327C690.558 275.508 690.132 279.868 693.114 282.921C696.096 285.974 700.355 285.538 702.485 282.921C704.615 280.305 705.041 276.38 702.485 273.327C699.503 270.274 695.244 271.147 693.114 273.327ZM711.856 263.733C713.986 266.35 718.245 266.35 721.227 263.733C723.783 261.117 723.357 256.756 721.227 254.139C718.671 251.523 714.838 251.523 711.856 254.139C708.874 257.192 709.3 261.553 711.856 263.733ZM674.372 302.109C676.501 304.289 680.761 305.162 683.317 302.109C685.872 299.492 685.872 295.132 683.317 292.951C680.761 290.335 676.501 290.771 674.372 292.951C672.242 295.568 672.242 299.492 674.372 302.109ZM702.059 263.733C704.189 261.553 704.615 257.628 702.059 254.575C699.503 251.959 695.67 251.959 693.114 254.575C690.984 256.756 690.558 261.117 693.114 263.733C696.096 266.35 699.929 265.914 702.059 263.733ZM674.798 273.763C672.668 275.944 672.242 280.305 674.798 282.485C676.927 284.665 680.761 285.102 683.317 282.485C685.872 279.868 685.872 275.944 683.317 273.763C680.761 271.147 676.927 271.583 674.798 273.763ZM712.282 235.387C710.152 237.568 709.726 241.492 712.282 244.109C714.412 246.289 718.245 246.726 720.801 244.109C722.931 241.929 723.357 238.004 720.801 235.387C718.245 232.771 714.412 233.643 712.282 235.387ZM664.574 320.861C666.704 318.68 667.13 315.192 664.574 312.575C662.445 310.395 658.611 310.395 656.481 312.575C654.351 314.756 653.925 318.68 656.481 320.861C659.037 323.477 662.445 323.041 664.574 320.861ZM656.481 293.387C654.351 295.132 653.925 299.056 656.481 301.673C659.037 304.289 662.445 303.853 664.574 301.673C666.704 299.492 667.13 296.004 664.574 293.387C662.019 290.771 658.185 291.207 656.481 293.387ZM738.691 224.485C740.821 222.741 740.821 219.252 738.691 216.635C736.562 214.455 733.154 214.455 731.024 216.635C728.894 218.816 728.894 222.305 731.024 224.485C733.58 227.102 736.988 226.665 738.691 224.485ZM638.165 320.425C640.295 322.605 643.276 322.605 645.406 320.425C647.11 318.244 647.536 315.192 645.406 313.011C643.276 310.831 639.869 311.267 638.165 313.011C636.461 314.756 636.035 318.244 638.165 320.425ZM644.98 339.613C646.684 337.868 647.11 334.38 644.98 332.635C643.277 330.891 640.295 330.455 638.165 332.635C636.035 334.816 636.461 337.868 638.165 340.049C640.295 341.793 643.277 341.357 644.98 339.613ZM625.812 333.071C624.534 331.327 621.553 331.327 619.849 333.071C618.145 334.816 618.571 337.432 619.849 339.177C621.127 340.485 623.682 340.921 625.812 339.177C627.516 336.996 627.516 334.38 625.812 333.071ZM625.812 352.259C624.534 350.951 622.404 350.515 620.275 352.259C618.571 354.004 618.997 356.62 620.275 357.929C621.979 359.673 624.108 359.237 625.812 357.929C627.09 356.184 627.09 353.568 625.812 352.259ZM602.81 375.808C603.662 376.68 604.94 376.68 605.792 375.808C606.644 374.936 606.644 373.628 605.792 372.756C604.94 371.883 603.236 371.883 602.81 372.756C601.958 373.628 601.958 374.936 602.81 375.808ZM644.128 222.305C645.406 220.996 645.406 218.816 644.128 217.508C642.851 216.199 640.721 216.199 639.443 217.508C638.165 218.816 638.165 220.996 639.443 222.305C640.721 223.177 642.851 223.177 644.128 222.305ZM624.96 242.365C626.238 241.056 626.238 238.876 624.96 237.568C623.682 236.259 621.553 236.259 620.275 237.568C618.997 238.876 618.997 241.056 620.275 242.365C621.553 243.673 623.682 243.673 624.96 242.365Z" fill="url(#paint1_linear_2039_241)" fill-opacity="0.5"/>
<defs>
<linearGradient id="paint0_linear_2039_241" x1="500.528" y1="220.074" x2="500.528" y2="476.844" gradientUnits="userSpaceOnUse">
<stop stop-color="#F7B114"/>
<stop offset="0.2" stop-color="#F7B114"/>
<stop offset="0.541" stop-color="#62B67C"/>
<stop offset="1" stop-color="#62B67C"/>
</linearGradient>
<linearGradient id="paint1_linear_2039_241" x1="717.526" y1="233.693" x2="717.526" y2="472.795" gradientUnits="userSpaceOnUse">
<stop stop-color="#F7B114"/>
<stop offset="0.2" stop-color="#F7B114"/>
<stop offset="0.541" stop-color="#62B67C"/>
<stop offset="1" stop-color="#62B67C"/>
</linearGradient>
</defs>
</svg>
