<svg width="838" height="567" viewBox="0 0 838 567" fill="none" xmlns="http://www.w3.org/2000/svg">
<g clip-path="url(#clip0_320_1868)">
<path d="M676.714 332.102C678.852 334.622 683.129 334.982 685.981 332.102C688.832 329.221 688.476 324.901 685.981 322.74C683.486 320.22 679.209 320.22 676.714 322.74C674.219 325.621 674.219 329.941 676.714 332.102ZM677.07 307.258C674.575 309.418 674.219 313.739 677.07 316.62C679.565 319.14 683.842 319.14 686.337 316.62C688.832 314.099 689.189 310.139 686.337 307.258C683.129 304.378 679.209 304.738 677.07 307.258ZM701.664 316.259C704.159 313.739 704.159 309.778 701.664 307.258C699.525 304.738 695.248 304.378 692.753 307.258C690.258 309.778 690.258 313.739 692.753 316.259C695.605 319.14 699.525 318.42 701.664 316.259ZM685.981 347.944C688.12 345.784 688.476 341.823 685.981 338.943C683.129 336.062 679.209 336.783 677.07 338.943C674.931 341.103 674.219 345.064 677.07 347.944C679.922 350.825 683.842 350.105 685.981 347.944ZM670.298 332.102C672.436 329.941 672.793 325.981 670.298 323.1C667.446 320.22 663.525 320.94 661.387 323.1C659.248 325.261 658.535 329.221 661.387 332.102C664.238 334.982 668.159 334.262 670.298 332.102ZM701.664 338.943C699.525 336.783 695.605 336.062 692.753 338.943C690.258 341.463 690.615 345.424 692.753 347.944C694.892 350.105 698.813 350.465 701.308 347.944C704.159 345.424 703.803 341.103 701.664 338.943ZM661.743 338.943C659.605 341.103 659.248 345.064 661.743 347.584C664.238 350.105 668.159 349.744 670.298 347.584C672.436 345.424 672.793 341.463 670.298 338.943C667.446 336.422 663.525 336.783 661.743 338.943ZM677.426 300.057C679.565 302.217 683.129 302.937 685.981 300.057C688.476 297.537 688.12 293.576 685.981 291.416C683.486 288.895 679.922 288.895 677.426 291.416C674.931 293.936 674.931 297.897 677.426 300.057ZM701.308 300.057C703.446 297.897 703.803 293.936 701.308 291.416C699.169 289.255 695.248 288.895 692.753 291.416C690.258 293.936 690.615 297.897 692.753 300.057C695.605 302.937 699.525 302.217 701.308 300.057ZM716.991 315.899C719.129 313.739 719.486 309.778 716.991 307.258C714.852 305.098 710.931 304.738 708.436 307.258C705.941 309.778 706.298 313.739 708.436 315.899C711.288 318.78 715.209 318.06 716.991 315.899ZM708.793 347.584C710.931 349.744 714.852 350.105 716.991 347.584C719.129 345.424 719.486 341.463 716.991 339.303C714.496 336.783 710.575 337.143 708.436 339.303C706.654 341.463 706.298 345.424 708.793 347.584ZM654.615 323.461C652.12 320.94 648.555 321.3 646.417 323.461C643.922 325.981 644.278 329.581 646.417 332.102C648.555 334.262 652.12 334.622 654.615 332.102C656.753 329.221 656.753 325.621 654.615 323.461ZM677.426 363.426C679.209 365.587 683.129 365.947 685.624 363.426C688.12 360.906 687.763 357.306 685.624 355.145C683.129 352.625 679.565 352.985 677.426 355.145C674.931 357.306 675.288 361.266 677.426 363.426ZM701.308 363.426C703.446 361.266 703.803 357.666 701.308 355.145C699.169 352.985 695.605 352.625 693.11 355.145C690.615 357.666 690.971 361.266 693.11 363.426C695.605 365.947 699.169 365.587 701.308 363.426ZM662.1 355.145C659.961 357.306 659.605 360.906 662.1 363.426C664.238 365.587 667.803 365.947 670.298 363.426C672.436 361.266 672.793 357.666 670.298 355.145C667.446 352.625 663.882 353.345 662.1 355.145ZM646.06 347.584C648.199 349.744 651.763 350.105 654.258 347.584C656.397 345.424 656.753 341.823 654.258 339.303C651.763 336.783 648.199 337.143 646.06 339.303C644.278 341.463 643.922 345.064 646.06 347.584ZM708.793 291.776C706.654 293.936 706.298 297.537 708.793 300.057C710.931 302.217 714.496 302.577 716.991 300.057C719.129 297.897 719.486 294.296 716.991 291.776C714.496 289.255 710.575 289.976 708.793 291.776ZM685.624 283.855C687.763 282.054 688.12 278.454 685.624 275.933C683.486 273.773 679.922 273.773 677.783 275.933C675.644 278.094 675.288 281.694 677.783 283.855C680.278 286.375 683.842 286.015 685.624 283.855ZM732.318 331.382C734.456 329.221 734.813 325.981 732.318 323.461C730.179 321.3 726.615 321.3 724.476 323.461C722.337 325.621 721.981 329.221 724.476 331.382C726.971 334.262 730.535 333.542 732.318 331.382ZM716.991 363.066C719.129 360.906 719.486 357.666 716.991 355.145C714.852 352.985 711.288 352.985 709.149 355.145C707.011 357.306 706.654 360.906 709.149 363.066C711.644 365.947 714.852 365.227 716.991 363.066ZM732.318 339.303C730.535 337.503 726.971 337.143 724.476 339.303C722.337 341.823 722.694 345.064 724.476 347.224C726.615 349.024 729.822 349.384 732.318 347.224C734.456 345.064 734.456 341.463 732.318 339.303ZM654.258 363.066C656.397 361.266 656.397 357.666 654.258 355.505C652.12 353.345 648.912 353.345 646.417 355.505C644.278 357.666 644.278 360.906 646.417 363.066C648.912 365.587 652.12 365.227 654.258 363.066ZM685.268 378.909C687.05 377.109 687.407 373.508 685.268 371.348C683.129 369.187 679.565 369.547 677.783 371.348C676.001 373.148 675.644 376.748 677.783 378.909C680.278 381.429 683.486 380.709 685.268 378.909ZM638.575 331.382C640.357 329.581 640.714 325.981 638.575 323.821C636.436 321.66 632.872 322.02 631.09 323.821C629.308 325.621 628.951 329.221 631.09 331.382C633.228 333.902 636.793 333.182 638.575 331.382ZM693.466 378.909C695.248 380.709 698.813 381.069 700.951 378.909C703.09 376.748 703.09 373.148 700.951 371.348C698.813 369.187 695.248 369.547 693.466 371.348C691.327 373.508 691.327 376.748 693.466 378.909ZM724.832 299.697C726.615 301.497 730.179 302.217 732.318 299.697C734.456 297.537 734.456 294.296 732.318 292.136C730.179 289.976 726.615 289.976 724.832 292.136C722.694 294.296 722.694 297.537 724.832 299.697ZM709.149 283.855C710.931 285.655 714.496 286.015 716.634 283.855C718.773 281.694 718.773 278.094 716.634 276.293C714.496 274.133 710.931 274.493 709.149 276.293C707.011 278.454 707.011 281.694 709.149 283.855ZM669.585 371.348C667.803 369.547 664.595 368.827 662.1 371.348C659.961 373.508 660.318 377.109 662.1 378.909C664.238 381.069 667.446 381.069 669.585 378.909C671.723 376.748 671.723 373.148 669.585 371.348ZM732.318 363.066C734.1 361.266 734.456 358.026 732.318 355.505C730.179 353.345 726.971 353.345 724.832 355.505C723.05 357.306 722.694 360.906 724.832 363.066C726.971 365.227 730.535 364.867 732.318 363.066ZM709.149 378.909C710.931 380.709 714.139 381.069 716.278 378.909C718.417 376.748 718.06 373.508 716.278 371.708C714.139 369.547 710.931 369.907 709.149 371.708C707.367 373.508 707.011 376.748 709.149 378.909ZM747.644 315.179C749.426 313.379 749.783 310.139 747.644 307.978C745.506 305.818 742.654 305.818 740.516 307.978C738.733 309.778 738.377 313.019 740.516 315.179C743.011 317.7 746.218 316.98 747.644 315.179ZM700.595 267.652C702.377 265.852 702.733 262.611 700.595 260.451C698.813 258.291 695.605 258.291 693.466 260.451C691.684 262.251 691.327 265.492 693.466 267.652C695.961 270.173 699.169 269.452 700.595 267.652ZM653.902 378.549C655.684 376.748 656.04 373.508 653.902 371.348C651.763 369.187 648.912 369.547 646.773 371.348C644.991 373.148 644.634 376.388 646.773 378.549C648.912 381.069 652.12 380.349 653.902 378.549ZM638.219 362.706C640.001 360.906 640.357 357.666 638.219 355.505C636.08 353.345 633.228 353.345 631.09 355.505C629.308 357.306 628.951 360.546 631.09 362.706C633.228 365.227 636.436 364.507 638.219 362.706ZM724.832 276.293C723.05 278.094 722.694 281.334 724.832 283.495C726.971 285.655 730.179 285.295 731.961 283.495C733.743 281.694 734.1 278.454 731.961 276.293C729.822 274.133 726.615 274.853 724.832 276.293ZM740.516 340.023C738.733 341.823 738.377 345.064 740.516 347.224C742.298 349.024 745.506 349.384 747.644 347.224C749.426 345.424 749.783 342.183 747.644 340.023C745.506 337.503 742.298 338.223 740.516 340.023ZM684.912 394.391C686.694 392.591 687.05 389.71 684.912 387.55C683.129 385.75 679.922 385.75 678.139 387.55C676.357 389.35 676.001 392.591 678.139 394.391C680.278 396.551 683.486 396.191 684.912 394.391ZM716.278 267.652C718.06 265.852 718.417 262.611 716.278 260.811C714.496 259.011 711.288 259.011 709.506 260.811C707.723 262.611 707.723 265.852 709.506 267.652C711.644 269.813 714.852 269.452 716.278 267.652ZM747.644 299.337C749.426 297.537 749.783 294.656 747.644 292.496C745.862 290.696 742.654 290.696 740.872 292.496C739.09 294.296 738.733 297.537 740.872 299.337C743.011 301.497 745.862 301.137 747.644 299.337ZM693.823 387.55C692.04 388.99 691.684 392.231 693.823 394.391C695.961 396.551 698.813 396.191 700.595 394.391C702.377 392.591 702.733 389.71 700.595 387.55C698.456 385.39 695.248 385.75 693.823 387.55ZM725.189 371.708C723.407 373.148 723.05 376.388 725.189 378.549C727.327 380.709 730.179 380.349 731.961 378.549C733.743 376.748 734.1 373.868 731.961 371.708C729.822 369.547 726.615 369.907 725.189 371.708ZM638.219 283.495C640.001 281.694 640.357 278.814 638.219 276.654C636.08 274.493 632.872 274.853 631.446 276.654C630.021 278.454 629.308 281.334 631.446 283.495C633.585 285.655 636.436 285.295 638.219 283.495ZM647.129 267.652C648.555 269.452 651.763 269.813 653.902 267.652C656.04 265.492 655.684 262.611 653.902 260.811C652.12 259.011 648.912 259.011 647.129 260.811C644.991 262.971 644.991 265.852 647.129 267.652ZM615.763 346.864C617.189 348.664 620.397 349.024 622.535 346.864C624.674 344.704 624.318 341.823 622.535 340.023C620.753 338.223 617.545 338.223 615.763 340.023C613.625 342.183 613.981 345.064 615.763 346.864ZM662.456 394.391C663.882 396.191 667.09 396.551 669.228 394.391C671.367 392.231 671.011 389.35 669.228 387.55C667.446 385.75 664.238 385.75 662.456 387.55C660.674 389.71 660.674 392.591 662.456 394.391ZM747.644 355.865C745.862 354.065 742.654 354.065 740.872 355.865C739.09 357.666 739.09 360.906 740.872 362.706C742.298 364.147 745.506 364.867 747.644 362.706C749.426 360.546 749.07 357.666 747.644 355.865ZM637.862 378.549C639.644 376.748 639.644 373.868 637.862 372.068C636.08 370.268 632.872 370.268 631.09 372.068C629.308 373.868 629.308 376.748 631.09 378.549C633.585 380.709 636.436 379.989 637.862 378.549ZM716.278 394.391C718.06 392.591 718.417 389.71 716.278 387.91C714.139 385.75 711.288 386.47 709.862 387.91C708.08 389.35 707.723 392.591 709.862 394.391C711.288 396.191 714.496 396.191 716.278 394.391ZM622.179 299.337C623.961 297.537 624.318 294.656 622.179 292.856C620.04 290.696 617.189 291.416 615.763 292.856C613.981 294.296 613.625 297.537 615.763 299.337C617.545 301.137 620.397 300.777 622.179 299.337ZM731.605 260.811C729.822 259.011 726.971 259.011 725.189 260.811C723.407 262.611 723.407 265.852 725.189 267.292C726.615 268.732 729.466 269.452 731.605 267.292C733.743 265.492 733.387 262.611 731.605 260.811ZM747.288 276.654C745.506 274.853 742.654 274.853 740.872 276.654C739.09 278.454 739.09 281.694 740.872 283.134C742.298 284.575 745.149 285.295 747.288 283.134C749.426 281.334 749.07 278.454 747.288 276.654ZM653.545 394.031C655.327 392.231 655.327 389.35 653.545 387.55C652.12 386.11 649.268 385.39 647.129 387.55C644.991 389.71 645.704 392.591 647.129 394.031C648.912 396.191 651.763 395.831 653.545 394.031ZM622.179 362.346C623.961 360.546 623.961 357.666 622.179 355.865C620.753 354.425 617.902 353.705 615.763 355.865C613.625 358.026 614.337 360.906 615.763 362.346C617.545 364.147 620.397 364.147 622.179 362.346ZM762.971 330.662C764.753 329.221 764.753 325.981 762.971 324.181C761.189 322.38 758.694 322.38 756.555 324.181C754.773 325.981 754.773 328.861 756.555 330.662C758.694 332.822 761.545 332.462 762.971 330.662ZM662.813 245.329C661.03 246.769 661.03 249.649 662.813 251.81C664.595 253.25 667.09 253.61 668.872 251.81C670.654 250.01 670.654 247.129 668.872 245.329C667.09 243.169 664.238 243.529 662.813 245.329ZM741.228 378.189C742.654 379.629 745.506 379.989 747.288 378.189C749.07 376.388 748.714 373.508 747.288 372.068C745.506 370.268 742.654 370.268 741.228 372.068C739.09 373.868 739.446 376.748 741.228 378.189ZM731.605 387.91C730.179 386.47 727.327 386.11 725.545 387.91C723.763 389.71 724.119 392.591 725.545 394.031C727.327 395.471 729.822 395.831 731.605 394.031C733.387 392.231 733.03 389.35 731.605 387.91ZM678.496 403.753C677.07 405.193 676.714 408.073 678.496 409.873C680.278 411.674 682.773 411.674 684.555 409.873C685.981 408.433 686.337 405.553 684.555 403.753C682.773 401.952 679.922 402.312 678.496 403.753ZM600.436 314.819C601.862 316.259 604.357 316.619 606.496 314.819C608.278 313.019 607.922 310.139 606.496 308.698C604.714 306.898 602.219 307.258 600.436 308.698C598.654 310.499 598.654 313.019 600.436 314.819ZM762.615 356.225C760.832 354.785 758.337 354.785 756.555 356.225C755.129 358.026 755.129 360.546 756.912 362.346C758.337 363.787 760.832 364.147 762.971 361.986C764.397 360.186 764.397 357.666 762.615 356.225ZM621.823 372.068C620.397 370.628 617.902 370.268 616.12 372.068C614.337 373.868 614.694 376.748 616.12 378.189C617.545 379.629 620.397 379.989 621.823 378.189C623.605 376.388 623.605 373.508 621.823 372.068ZM637.506 387.91C636.08 386.47 633.585 386.11 631.803 387.91C630.021 389.71 630.377 392.591 631.803 394.031C633.228 395.471 636.08 395.831 637.506 394.031C639.288 392.231 638.931 389.35 637.506 387.91ZM746.931 267.292C748.357 265.852 748.714 262.971 746.931 261.531C745.506 260.091 743.011 259.731 741.228 261.531C739.446 263.332 739.803 265.852 741.228 267.292C743.011 269.092 745.506 268.732 746.931 267.292ZM668.872 409.873C670.298 408.433 670.654 405.553 668.872 403.753C667.446 402.312 664.951 401.952 663.169 403.753C661.387 405.553 661.743 408.073 663.169 409.873C664.951 411.674 667.446 411.314 668.872 409.873ZM709.862 403.753C708.436 405.193 708.08 407.713 709.862 409.513C711.644 411.314 714.139 411.314 715.565 409.513C716.991 408.073 717.347 405.553 715.565 403.753C713.783 401.952 711.288 402.672 709.862 403.753ZM756.912 282.774C758.337 284.215 760.832 284.575 762.615 282.774C764.397 280.974 764.04 278.454 762.615 277.014C760.832 275.213 758.337 275.573 756.912 277.014C755.486 278.814 755.486 281.334 756.912 282.774ZM725.545 251.09C726.971 252.53 729.466 252.89 731.248 251.09C733.03 249.289 732.674 246.769 731.248 245.329C729.466 243.529 726.971 243.889 725.545 245.329C724.119 247.129 724.119 249.649 725.545 251.09ZM621.823 266.932C623.248 265.492 623.605 262.971 621.823 261.171C620.397 259.731 617.902 259.371 616.12 261.171C614.337 262.971 614.694 265.492 616.12 266.932C617.902 268.732 620.397 268.372 621.823 266.932ZM606.139 361.986C607.565 360.546 607.922 358.026 606.139 356.225C604.714 354.785 602.219 354.425 600.436 356.225C598.654 358.026 599.011 360.546 600.436 361.986C602.219 363.787 604.714 363.426 606.139 361.986ZM746.931 393.671C748.357 392.231 748.714 389.71 746.931 387.91C745.506 386.47 743.011 386.11 741.228 387.91C739.446 389.71 739.803 392.231 741.228 393.671C743.011 395.471 745.506 395.111 746.931 393.671ZM621.466 393.671C622.892 392.231 623.248 390.07 621.466 388.27C620.04 386.83 617.902 386.47 616.12 388.27C614.694 389.71 614.694 392.231 616.12 393.671C617.902 395.471 620.397 394.751 621.466 393.671ZM606.139 282.774C607.565 281.334 607.922 279.174 606.139 277.374C604.714 275.933 602.575 275.573 600.793 277.374C599.367 278.814 599.367 281.334 600.793 282.774C602.575 284.575 604.714 283.855 606.139 282.774ZM632.159 409.513C633.228 410.954 635.724 410.954 637.149 409.513C638.575 408.073 638.219 405.553 637.149 404.473C636.08 403.032 633.585 402.672 632.159 404.473C630.377 405.913 630.733 408.073 632.159 409.513ZM605.783 372.428C604.714 370.988 602.219 370.628 600.793 372.428C599.011 374.228 599.724 376.388 600.793 377.469C601.862 378.549 604.357 378.909 605.783 377.469C607.565 376.028 607.209 373.868 605.783 372.428ZM590.1 329.941C591.169 328.861 591.882 326.701 590.1 324.901C588.674 323.461 586.535 323.461 585.11 324.901C583.684 326.341 583.684 328.501 585.11 329.941C586.892 331.742 589.03 331.382 590.1 329.941ZM585.11 309.058C583.684 310.139 583.684 312.659 585.11 314.099C586.535 315.539 588.674 315.539 590.1 314.099C591.526 312.659 591.526 310.499 590.1 309.058C588.674 307.618 586.535 307.978 585.11 309.058ZM762.258 393.311C763.684 391.871 763.684 389.71 762.258 388.63C761.189 387.55 759.05 386.83 757.624 388.63C756.199 390.07 756.555 392.231 757.624 393.671C758.694 394.751 760.832 394.751 762.258 393.311ZM601.149 261.891C599.724 262.971 599.724 265.132 601.149 266.572C602.575 268.012 604.714 267.652 605.783 266.572C606.852 265.492 607.209 263.332 605.783 261.891C604.357 260.451 602.219 260.451 601.149 261.891ZM746.575 409.153V404.473C746.575 404.473 743.011 403.032 741.941 404.473C740.516 405.913 740.516 408.073 741.941 409.153C743.367 410.954 745.506 410.234 746.575 409.153ZM585.466 293.576C584.397 294.656 584.04 296.817 585.466 298.257C586.892 299.697 588.674 299.697 590.1 298.257C591.169 297.177 591.526 295.016 590.1 293.576C588.674 292.136 586.535 292.496 585.466 293.576ZM616.832 404.473C615.763 405.553 615.407 407.713 616.832 408.793C617.902 409.873 620.04 410.233 621.11 408.793C622.179 407.713 622.179 405.553 621.11 404.473C619.684 403.032 617.902 403.392 616.832 404.473ZM601.149 388.63C600.08 389.71 599.724 391.871 601.149 392.951C602.219 394.031 604.357 394.391 605.783 392.951C606.852 391.871 606.852 389.71 605.783 388.63C604.001 387.19 602.219 387.55 601.149 388.63ZM589.743 277.734C588.674 276.654 586.892 276.293 585.466 277.734C584.04 279.174 584.397 280.974 585.466 282.054C586.892 283.495 588.674 283.135 589.743 282.054C591.169 280.974 591.169 279.174 589.743 277.734ZM585.823 377.109C586.892 378.189 588.674 378.189 589.743 377.109C590.813 376.028 590.813 374.228 589.743 373.148C588.674 372.068 586.892 371.708 585.823 373.148C584.397 374.588 584.753 376.388 585.823 377.109ZM605.07 408.433C606.139 407.353 606.139 405.913 605.07 404.833C604.001 403.753 602.575 403.753 601.506 404.833C600.436 405.913 600.793 407.713 601.506 408.433C602.931 409.513 604.357 409.513 605.07 408.433ZM589.387 389.35C588.674 388.27 586.892 388.27 586.179 389.35C585.11 390.431 585.466 391.871 586.179 392.591C586.892 393.311 588.318 393.671 589.387 392.591C590.456 391.511 590.1 390.07 589.387 389.35ZM646.417 291.776C644.278 293.576 643.922 297.177 646.417 299.697C648.912 302.217 652.476 301.857 654.258 299.697C656.04 297.537 656.397 294.296 654.258 291.776C651.763 289.255 648.199 289.976 646.417 291.776ZM630.733 315.539C632.516 317.34 636.08 318.06 638.219 315.539C640.357 313.379 640.357 309.778 638.219 307.978C636.08 305.818 632.516 306.178 630.733 307.978C628.951 310.139 628.951 313.379 630.733 315.539ZM653.902 283.855C655.684 282.054 656.04 278.814 653.902 276.293C651.763 274.133 648.555 274.133 646.417 276.293C644.634 278.094 644.278 281.694 646.417 283.855C648.912 286.015 652.12 285.655 653.902 283.855ZM631.09 292.136C629.308 293.936 628.951 297.537 631.09 299.337C632.872 301.137 636.08 301.497 638.219 299.337C640.357 297.177 640.357 293.936 638.219 292.136C636.08 289.976 632.872 290.336 631.09 292.136ZM685.268 267.652C687.05 265.852 687.05 262.251 685.268 260.451C683.486 258.651 680.278 258.291 678.139 260.451C676.001 262.611 676.357 265.852 678.139 267.652C680.278 269.813 683.486 269.813 685.268 267.652ZM662.456 260.451C660.674 262.251 660.318 265.492 662.456 267.652C664.238 269.452 667.446 269.813 669.585 267.652C671.367 265.852 671.723 262.611 669.585 260.451C667.446 258.291 664.238 259.011 662.456 260.451ZM622.535 331.022C624.318 329.221 624.674 326.341 622.535 324.181C620.753 322.38 617.545 322.38 615.763 324.181C613.981 325.981 613.625 329.221 615.763 331.022C617.902 333.182 620.753 332.822 622.535 331.022ZM615.763 308.338C613.981 309.778 613.625 313.019 615.763 315.179C617.902 317.34 620.753 316.98 622.535 315.179C624.318 313.379 624.674 310.499 622.535 308.338C620.397 306.178 617.189 306.538 615.763 308.338ZM700.595 251.45C702.377 250.01 702.377 247.129 700.595 244.969C698.813 243.169 695.961 243.169 694.179 244.969C692.397 246.769 692.397 249.649 694.179 251.45C696.318 253.25 699.169 252.89 700.595 251.45ZM606.139 346.504C607.565 345.064 607.922 342.183 606.139 340.743C604.714 339.303 602.219 338.943 600.436 340.743C598.654 342.543 599.011 345.064 600.436 346.864C602.219 348.304 604.714 347.944 606.139 346.504ZM590.1 341.103C589.03 339.663 586.535 339.663 585.11 341.103C583.684 342.543 584.04 344.704 585.11 346.144C586.179 347.224 588.318 347.584 590.1 346.144C591.526 344.344 591.526 342.183 590.1 341.103ZM590.1 356.946C589.03 355.865 587.248 355.505 585.466 356.946C584.04 358.386 584.397 360.546 585.466 361.626C586.892 363.066 588.674 362.706 590.1 361.626C591.169 360.186 591.169 358.026 590.1 356.946ZM605.426 249.649C606.496 248.569 606.496 246.769 605.426 245.689C604.357 244.609 602.575 244.609 601.506 245.689C600.436 246.769 600.436 248.569 601.506 249.649C602.575 250.37 604.357 250.37 605.426 249.649ZM589.387 266.212C590.456 265.132 590.456 263.332 589.387 262.251C588.318 261.171 586.535 261.171 585.466 262.251C584.397 263.332 584.397 265.132 585.466 266.212C586.535 267.292 588.318 267.292 589.387 266.212Z" fill="url(#paint0_linear_320_1868)" fill-opacity="0.5"/>
<path d="M505.376 347.644C507.515 350.172 511.792 350.533 514.644 347.644C517.495 344.755 517.139 340.422 514.644 338.255C512.148 335.727 507.871 335.727 505.376 338.255C502.881 341.144 502.881 345.477 505.376 347.644ZM521.416 338.616C518.921 340.783 518.564 345.116 521.416 348.005C523.911 350.533 528.188 350.533 530.683 348.005C533.178 345.477 533.535 341.505 530.683 338.616C527.475 335.727 523.554 336.088 521.416 338.616ZM530.327 331.755C532.822 329.227 532.822 325.255 530.327 322.727C528.188 320.199 523.911 319.838 521.416 322.727C518.921 325.255 518.921 329.227 521.416 331.755C524.267 334.644 528.188 333.922 530.327 331.755ZM514.644 363.533C516.782 361.366 517.139 357.394 514.644 354.505C511.792 351.616 507.871 352.338 505.733 354.505C503.594 356.672 502.881 360.644 505.733 363.533C508.584 366.422 512.505 365.699 514.644 363.533ZM498.96 347.644C501.099 345.477 501.455 341.505 498.96 338.616C496.109 335.727 492.188 336.449 490.049 338.616C487.911 340.783 487.198 344.755 490.049 347.644C492.901 350.533 496.822 349.811 498.96 347.644ZM498.96 322.727C496.822 320.56 492.901 319.838 490.049 322.727C487.554 325.255 487.911 329.227 490.049 331.755C492.188 333.922 496.109 334.283 498.604 331.755C501.455 329.227 501.455 324.894 498.96 322.727ZM490.406 354.505C488.267 356.672 487.911 360.644 490.406 363.172C492.901 365.699 496.822 365.338 498.96 363.172C501.099 361.005 501.455 357.033 498.96 354.505C496.109 351.977 492.188 352.338 490.406 354.505ZM529.97 315.505C532.109 313.338 532.465 309.366 529.97 306.838C527.832 304.671 523.911 304.31 521.416 306.838C518.921 309.366 519.277 313.338 521.416 315.505C524.267 318.394 528.188 317.672 529.97 315.505ZM545.653 331.394C547.792 329.227 548.148 325.255 545.653 322.727C543.515 320.56 539.594 320.199 537.099 322.727C534.604 325.255 534.96 329.227 537.099 331.394C539.95 334.283 543.871 333.56 545.653 331.394ZM537.455 363.172C539.594 365.338 543.515 365.699 545.653 363.172C547.792 361.005 548.148 357.033 545.653 354.866C543.158 352.338 539.238 352.699 537.099 354.866C535.317 357.033 534.96 361.005 537.455 363.172ZM490.406 307.199C488.267 309.366 487.911 313.338 490.406 315.505C492.545 317.672 496.109 318.033 498.604 315.505C500.743 313.338 501.099 309.366 498.604 307.199C496.109 304.31 492.545 305.033 490.406 307.199ZM483.277 338.977C480.782 336.449 477.218 336.81 475.079 338.977C472.584 341.505 472.941 345.116 475.079 347.644C477.218 349.811 480.782 350.172 483.277 347.644C485.416 344.755 485.416 341.144 483.277 338.977ZM506.089 379.061C507.871 381.227 511.792 381.588 514.287 379.061C516.782 376.533 516.426 372.922 514.287 370.755C511.792 368.227 508.228 368.588 506.089 370.755C503.594 372.922 503.95 376.894 506.089 379.061ZM482.921 331.394C485.059 329.227 485.416 325.616 482.921 323.088C480.782 320.922 477.218 320.56 474.723 323.088C472.228 325.616 472.584 329.227 474.723 331.394C477.218 333.922 481.139 333.56 482.921 331.394ZM529.97 379.061C532.109 376.894 532.465 373.283 529.97 370.755C527.832 368.588 524.267 368.227 521.772 370.755C519.277 373.283 519.634 376.894 521.772 379.061C524.267 381.588 527.832 381.227 529.97 379.061ZM490.762 370.755C488.624 372.922 488.267 376.533 490.762 379.061C492.901 381.227 496.465 381.588 498.96 379.061C501.099 376.894 501.455 373.283 498.96 370.755C496.109 368.227 492.545 368.949 490.762 370.755ZM537.455 307.199C535.317 309.366 534.96 312.977 537.455 315.505C539.594 317.672 543.158 318.033 545.653 315.505C547.792 313.338 548.148 309.727 545.653 307.199C543.158 304.671 539.238 305.394 537.455 307.199ZM514.287 299.255C516.426 297.449 516.782 293.838 514.287 291.31C512.148 289.144 508.584 289.144 506.445 291.31C504.307 293.477 503.95 297.088 506.445 299.255C508.941 301.783 512.505 301.421 514.287 299.255ZM560.98 346.922C563.119 344.755 563.475 341.505 560.98 338.977C558.842 336.81 555.277 336.81 553.139 338.977C551 341.144 550.643 344.755 553.139 346.922C555.634 349.811 559.198 349.088 560.98 346.922ZM545.653 378.7C547.792 376.533 548.148 373.283 545.653 370.755C543.515 368.588 539.95 368.588 537.812 370.755C535.673 372.922 535.317 376.533 537.812 378.7C540.307 381.588 543.515 380.866 545.653 378.7ZM560.98 354.866C559.198 353.061 555.634 352.699 553.139 354.866C551 357.394 551.356 360.644 553.139 362.811C555.277 364.616 558.485 364.977 560.98 362.811C563.119 360.644 563.119 357.033 560.98 354.866ZM482.921 378.7C485.059 376.894 485.059 373.283 482.921 371.116C480.782 368.949 477.574 368.949 475.079 371.116C472.941 373.283 472.941 376.533 475.079 378.7C477.574 381.227 480.782 380.866 482.921 378.7ZM513.931 394.588C515.713 392.783 516.069 389.172 513.931 387.005C511.792 384.838 508.228 385.2 506.445 387.005C504.663 388.811 504.307 392.422 506.445 394.588C508.941 397.116 512.148 396.394 513.931 394.588ZM467.238 346.922C469.02 345.116 469.376 341.505 467.238 339.338C465.099 337.172 461.535 337.533 459.752 339.338C457.97 341.144 457.614 344.755 459.752 346.922C461.891 349.449 465.455 348.727 467.238 346.922ZM522.129 394.588C523.911 396.394 527.475 396.755 529.614 394.588C531.752 392.422 531.752 388.811 529.614 387.005C527.475 384.838 523.911 385.2 522.129 387.005C519.99 389.172 519.99 392.422 522.129 394.588ZM553.495 315.144C555.277 316.949 558.842 317.672 560.98 315.144C563.119 312.977 563.119 309.727 560.98 307.56C558.842 305.394 555.277 305.394 553.495 307.56C551.356 309.727 551.356 312.977 553.495 315.144ZM466.881 355.227C465.099 353.422 461.891 352.699 459.396 355.227C457.257 357.394 457.614 361.005 459.396 362.811C461.535 364.977 464.743 364.977 466.881 362.811C469.02 360.644 469.02 357.033 466.881 355.227ZM498.247 387.005C496.465 385.2 493.257 384.477 490.762 387.005C488.624 389.172 488.98 392.783 490.762 394.588C492.901 396.755 496.109 396.755 498.247 394.588C500.386 392.422 500.386 388.811 498.247 387.005ZM560.98 378.7C562.762 376.894 563.119 373.644 560.98 371.116C558.842 368.949 555.634 368.949 553.495 371.116C551.713 372.922 551.356 376.533 553.495 378.7C555.634 380.866 559.198 380.505 560.98 378.7ZM537.812 394.588C539.594 396.394 542.802 396.755 544.941 394.588C547.079 392.422 546.723 389.172 544.941 387.366C542.802 385.2 539.594 385.561 537.812 387.366C536.03 389.172 535.673 392.422 537.812 394.588ZM576.307 346.561C578.089 344.755 578.445 341.144 576.307 339.338C574.525 337.533 571.317 337.172 569.178 339.338C567.04 341.505 567.396 344.755 569.178 346.561C571.317 349.088 574.525 348.727 576.307 346.561ZM576.307 330.672C578.089 328.866 578.445 325.616 576.307 323.449C574.168 321.283 571.317 321.283 569.178 323.449C567.396 325.255 567.04 328.505 569.178 330.672C571.673 333.199 574.881 332.477 576.307 330.672ZM529.257 283.005C531.04 281.199 531.396 277.949 529.257 275.782C527.475 273.616 524.267 273.616 522.129 275.782C520.346 277.588 519.99 280.838 522.129 283.005C524.624 285.532 527.832 284.81 529.257 283.005ZM482.564 394.227C484.347 392.422 484.703 389.172 482.564 387.005C480.426 384.838 477.574 385.2 475.436 387.005C473.653 388.811 473.297 392.061 475.436 394.227C477.574 396.755 480.782 396.033 482.564 394.227ZM466.881 378.338C468.663 376.533 469.02 373.283 466.881 371.116C464.743 368.949 461.891 368.949 459.752 371.116C457.97 372.922 457.614 376.172 459.752 378.338C461.891 380.866 465.099 380.144 466.881 378.338ZM553.495 291.671C551.713 293.477 551.356 296.727 553.495 298.894C555.634 301.06 558.842 300.699 560.624 298.894C562.406 297.088 562.762 293.838 560.624 291.671C558.485 289.505 555.277 290.227 553.495 291.671ZM569.178 355.588C567.396 357.394 567.04 360.644 569.178 362.811C570.96 364.616 574.168 364.977 576.307 362.811C578.089 361.005 578.445 357.755 576.307 355.588C574.168 353.061 570.96 353.783 569.178 355.588ZM513.574 410.116C515.356 408.311 515.713 405.422 513.574 403.255C511.792 401.45 508.584 401.45 506.802 403.255C505.02 405.061 504.663 408.311 506.802 410.116C508.941 412.283 512.148 411.922 513.574 410.116ZM544.941 283.005C546.723 281.199 547.079 277.949 544.941 276.144C543.158 274.338 539.95 274.338 538.168 276.144C536.386 277.949 536.386 281.199 538.168 283.005C540.307 285.171 543.515 284.81 544.941 283.005ZM576.307 314.783C578.089 312.977 578.445 310.088 576.307 307.921C574.525 306.116 571.317 306.116 569.535 307.921C567.752 309.727 567.396 312.977 569.535 314.783C571.673 316.949 574.525 316.588 576.307 314.783ZM522.485 403.255C520.703 404.7 520.347 407.95 522.485 410.116C524.624 412.283 527.475 411.922 529.257 410.116C531.04 408.311 531.396 405.422 529.257 403.255C527.119 401.088 523.911 401.45 522.485 403.255ZM466.881 298.894C468.663 297.088 469.02 294.199 466.881 292.033C464.743 289.866 461.535 290.227 460.109 292.033C458.683 293.838 457.97 296.727 460.109 298.894C462.248 301.06 465.099 300.699 466.881 298.894ZM444.426 362.449C445.851 364.255 449.059 364.616 451.198 362.449C453.337 360.283 452.98 357.394 451.198 355.588C449.416 353.783 446.208 353.783 444.426 355.588C442.287 357.755 442.644 360.644 444.426 362.449ZM576.307 371.477C574.525 369.672 571.317 369.672 569.535 371.477C567.752 373.283 567.752 376.533 569.535 378.338C570.96 379.783 574.168 380.505 576.307 378.338C578.089 376.172 577.733 373.283 576.307 371.477ZM466.525 394.227C468.307 392.422 468.307 389.533 466.525 387.727C464.743 385.922 461.535 385.922 459.752 387.727C457.97 389.533 457.97 392.422 459.752 394.227C462.248 396.394 465.099 395.672 466.525 394.227ZM450.842 314.783C452.624 312.977 452.98 310.088 450.842 308.283C448.703 306.116 445.851 306.838 444.426 308.283C442.644 309.727 442.287 312.977 444.426 314.783C446.208 316.588 449.059 316.227 450.842 314.783ZM575.95 292.033C574.168 290.227 571.317 290.227 569.535 292.033C567.752 293.838 567.752 297.088 569.535 298.533C570.96 299.977 573.812 300.699 575.95 298.533C578.089 296.727 577.733 293.838 575.95 292.033ZM450.842 377.977C452.624 376.172 452.624 373.283 450.842 371.477C449.416 370.033 446.564 369.311 444.426 371.477C442.287 373.644 443 376.533 444.426 377.977C446.208 379.783 449.059 379.783 450.842 377.977ZM466.525 276.505C464.743 274.699 461.891 274.699 460.465 276.505C458.683 278.31 459.04 281.199 460.465 282.644C461.891 284.088 464.743 284.449 466.525 282.644C468.307 280.838 467.95 277.949 466.525 276.505ZM450.842 292.394C449.416 290.949 446.564 290.588 444.782 292.394C443 294.199 443.356 297.088 444.782 298.533C446.564 299.977 449.059 300.338 450.842 298.533C452.624 296.727 452.267 293.838 450.842 292.394ZM429.099 330.31C430.525 331.755 433.02 332.116 435.158 330.31C436.941 328.505 436.584 325.616 435.158 324.172C433.376 322.366 430.881 322.727 429.099 324.172C427.317 325.977 427.317 328.505 429.099 330.31ZM450.485 387.727C449.059 386.283 446.564 385.922 444.782 387.727C443 389.533 443.356 392.422 444.782 393.866C446.208 395.311 449.059 395.672 450.485 393.866C452.267 392.061 452.267 389.172 450.485 387.727ZM466.168 403.616C464.743 402.172 462.247 401.811 460.465 403.616C458.683 405.422 459.04 408.311 460.465 409.755C461.891 411.2 464.743 411.561 466.168 409.755C467.95 407.95 467.594 405.061 466.168 403.616ZM575.594 282.644C577.02 281.199 577.376 278.31 575.594 276.866C574.168 275.421 571.673 275.06 569.891 276.866C568.109 278.671 568.465 281.199 569.891 282.644C571.673 284.449 574.168 284.088 575.594 282.644ZM429.099 314.421C430.881 315.866 433.376 315.866 434.802 314.421C436.228 312.977 436.228 310.449 434.802 308.644C433.02 306.838 430.525 307.199 429.099 308.644C427.673 310.088 427.317 312.616 429.099 314.421ZM554.208 266.394C555.634 267.838 558.129 268.199 559.911 266.394C561.693 264.588 561.337 262.06 559.911 260.616C558.129 258.81 555.634 259.171 554.208 260.616C552.782 262.421 552.782 264.949 554.208 266.394ZM450.485 282.282C451.911 280.838 452.267 278.31 450.485 276.505C449.059 275.06 446.564 274.699 444.782 276.505C443 278.31 443.356 280.838 444.782 282.282C446.564 284.088 449.059 283.727 450.485 282.282ZM434.802 377.616C436.228 376.172 436.584 373.644 434.802 371.838C433.376 370.394 430.881 370.033 429.099 371.838C427.317 373.644 427.673 376.172 429.099 377.616C430.881 379.422 433.376 379.061 434.802 377.616ZM460.465 260.977C459.04 262.421 459.04 264.949 460.465 266.394C461.891 267.838 464.386 267.838 465.812 266.394C467.238 264.949 467.238 262.421 465.812 260.977C464.386 259.171 461.891 259.532 460.465 260.977ZM450.129 409.394C451.554 407.95 451.911 405.783 450.129 403.977C448.703 402.533 446.564 402.172 444.782 403.977C443.356 405.422 443.356 407.95 444.782 409.394C446.564 411.2 449.059 410.477 450.129 409.394ZM434.802 298.171C436.228 296.727 436.584 294.56 434.802 292.755C433.376 291.31 431.238 290.949 429.455 292.755C428.03 294.199 428.03 296.727 429.455 298.171C431.238 299.977 433.376 299.255 434.802 298.171ZM418.762 345.477C419.832 344.394 420.545 342.227 418.762 340.422C417.337 338.977 415.198 338.977 413.772 340.422C412.347 341.866 412.347 344.033 413.772 345.477C415.554 347.283 417.693 346.922 418.762 345.477ZM413.772 324.533C412.347 325.616 412.347 328.144 413.772 329.588C415.198 331.033 417.337 331.033 418.762 329.588C420.188 328.144 420.188 325.977 418.762 324.533C417.337 323.088 415.198 323.449 413.772 324.533ZM414.129 309.005C413.059 310.088 412.703 312.255 414.129 313.699C415.554 315.144 417.337 315.144 418.762 313.699C419.832 312.616 420.188 310.449 418.762 309.005C417.337 307.56 415.198 307.921 414.129 309.005ZM429.812 404.338C428.743 405.422 428.386 407.589 429.812 408.672C430.881 409.755 433.02 410.116 434.446 408.672C435.515 407.589 435.515 405.422 434.446 404.338C432.663 402.894 430.881 403.255 429.812 404.338ZM414.485 392.783C415.554 393.866 417.337 393.866 418.406 392.783C419.475 391.7 419.475 389.894 418.406 388.811C417.337 387.727 415.554 387.366 414.485 388.811C413.059 390.255 413.416 392.061 414.485 392.783ZM402.723 345.116C403.792 344.033 403.792 342.588 402.723 341.505C402.01 340.783 400.228 340.06 399.158 341.505C398.089 342.588 398.089 344.394 399.158 345.477C400.228 346.199 402.01 345.838 402.723 345.116ZM398.802 329.227C399.871 330.31 401.653 330.31 402.366 329.227C403.079 328.505 403.436 326.699 402.366 325.616C401.297 324.533 399.515 324.533 398.802 325.616C398.089 326.338 397.733 327.783 398.802 329.227ZM433.733 424.2C434.802 423.116 434.802 421.672 433.733 420.589C432.663 419.505 431.238 419.505 430.168 420.589C429.099 421.672 429.455 423.477 430.168 424.2C431.594 425.283 433.02 425.283 433.733 424.2ZM459.396 331.033C461.178 332.838 464.743 333.56 466.881 331.033C469.02 328.866 469.02 325.255 466.881 323.449C464.743 321.283 461.178 321.644 459.396 323.449C457.614 325.616 457.614 328.866 459.396 331.033ZM482.564 299.255C484.347 297.449 484.703 294.199 482.564 291.671C482.564 291.671 477.218 289.505 475.079 291.671C473.297 293.477 472.941 297.088 475.079 299.255C477.574 301.421 480.782 301.06 482.564 299.255ZM444.426 323.81C442.644 325.255 442.287 328.505 444.426 330.672C446.564 332.838 449.416 332.477 451.198 330.672C452.98 328.866 453.337 325.977 451.198 323.81C449.059 321.644 445.851 322.005 444.426 323.81ZM429.099 346.199C430.881 348.005 433.376 348.005 435.158 346.199C436.584 344.394 436.941 341.866 435.158 340.06C433.376 338.255 430.525 338.616 429.099 340.06C427.673 341.505 427.317 344.394 429.099 346.199ZM434.802 362.088C436.228 360.644 436.584 357.755 434.802 356.311C433.376 354.866 430.881 354.505 429.099 356.311C427.317 358.116 427.673 360.644 429.099 362.449C430.881 363.894 433.376 363.533 434.802 362.088ZM418.762 356.672C417.693 355.227 415.198 355.227 413.772 356.672C412.347 358.116 412.703 360.283 413.772 361.727C414.842 362.811 416.98 363.172 418.762 361.727C420.188 359.922 420.188 357.755 418.762 356.672ZM418.762 372.561C417.693 371.477 415.911 371.116 414.129 372.561C412.703 374.005 413.059 376.172 414.129 377.255C415.554 378.7 417.337 378.338 418.762 377.255C419.832 375.811 419.832 373.644 418.762 372.561ZM399.515 392.061C400.228 392.783 401.297 392.783 402.01 392.061C402.723 391.338 402.723 390.255 402.01 389.533C401.297 388.811 399.871 388.811 399.515 389.533C398.802 390.255 398.802 391.338 399.515 392.061ZM434.089 264.949C435.158 263.866 435.158 262.06 434.089 260.977C433.02 259.894 431.238 259.894 430.168 260.977C429.099 262.06 429.099 263.866 430.168 264.949C431.238 265.671 433.02 265.671 434.089 264.949Z" fill="url(#paint1_linear_320_1868)" fill-opacity="0.5"/>
<path d="M863.806 347.876C865.945 350.397 870.222 350.757 873.074 347.876C875.925 344.996 875.569 340.675 873.074 338.515C870.579 335.995 866.301 335.995 863.806 338.515C861.311 341.396 861.311 345.716 863.806 347.876ZM879.846 338.875C877.351 341.035 876.994 345.356 879.846 348.237C882.341 350.757 886.618 350.757 889.113 348.237C891.608 345.716 891.965 341.756 889.113 338.875C885.905 335.995 881.985 336.355 879.846 338.875ZM888.757 332.034C891.252 329.514 891.252 325.553 888.757 323.033C886.618 320.512 882.341 320.152 879.846 323.033C877.351 325.553 877.351 329.514 879.846 332.034C882.697 334.915 886.618 334.194 888.757 332.034ZM873.074 363.719C875.212 361.558 875.569 357.598 873.074 354.717C870.222 351.837 866.301 352.557 864.163 354.717C862.024 356.878 861.311 360.838 864.163 363.719C867.014 366.599 870.935 365.879 873.074 363.719ZM888.757 354.717C886.618 352.557 882.697 351.837 879.846 354.717C877.351 357.238 877.707 361.198 879.846 363.719C881.985 365.879 885.905 366.239 888.4 363.719C891.252 361.198 890.895 356.878 888.757 354.717ZM857.391 323.033C855.252 320.872 851.331 320.152 848.48 323.033C845.985 325.553 846.341 329.514 848.48 332.034C850.618 334.194 854.539 334.554 857.034 332.034C859.886 329.514 859.886 325.193 857.391 323.033ZM848.836 354.717C846.697 356.878 846.341 360.838 848.836 363.359C851.331 365.879 855.252 365.519 857.391 363.359C859.529 361.198 859.886 357.238 857.391 354.717C854.539 352.197 850.618 352.557 848.836 354.717ZM904.084 338.875C901.589 336.355 898.024 336.355 895.529 338.875C893.034 341.396 893.391 345.356 895.529 347.516C897.668 349.677 901.589 350.037 904.084 347.516C906.935 344.996 906.579 341.035 904.084 338.875ZM864.519 315.832C866.658 317.992 870.222 318.712 873.074 315.832C875.569 313.311 875.212 309.351 873.074 307.19C870.579 304.67 867.014 304.67 864.519 307.19C862.024 309.711 862.024 313.671 864.519 315.832ZM888.4 315.832C890.539 313.671 890.895 309.711 888.4 307.19C886.262 305.03 882.341 304.67 879.846 307.19C877.351 309.711 877.707 313.671 879.846 315.832C882.697 318.712 886.618 317.992 888.4 315.832ZM904.084 331.674C906.222 329.514 906.579 325.553 904.084 323.033C901.945 320.872 898.024 320.512 895.529 323.033C893.034 325.553 893.391 329.514 895.529 331.674C898.381 334.554 902.301 333.834 904.084 331.674ZM848.836 307.55C846.697 309.711 846.341 313.671 848.836 315.832C850.975 317.992 854.539 318.352 857.034 315.832C859.173 313.671 859.529 309.711 857.034 307.55C854.539 304.67 850.975 305.39 848.836 307.55ZM841.707 339.235C839.212 336.715 835.648 337.075 833.509 339.235C831.014 341.756 831.371 345.356 833.509 347.876C835.648 350.037 839.212 350.397 841.707 347.876C843.846 344.996 843.846 341.396 841.707 339.235ZM864.519 379.201C866.301 381.361 870.222 381.722 872.717 379.201C875.212 376.681 874.856 373.08 872.717 370.92C870.222 368.4 866.658 368.76 864.519 370.92C862.024 373.08 862.381 377.041 864.519 379.201ZM841.351 331.674C843.49 329.514 843.846 325.913 841.351 323.393C839.212 321.232 835.648 320.872 833.153 323.393C830.658 325.913 831.014 329.514 833.153 331.674C835.648 334.194 839.569 333.834 841.351 331.674ZM888.4 379.201C890.539 377.041 890.895 373.44 888.4 370.92C886.262 368.76 882.697 368.4 880.202 370.92C877.707 373.44 878.064 377.041 880.202 379.201C882.697 381.722 886.262 381.361 888.4 379.201ZM849.193 370.92C847.054 373.08 846.697 376.681 849.193 379.201C851.331 381.361 854.895 381.722 857.391 379.201C859.529 377.041 859.886 373.44 857.391 370.92C854.539 368.4 850.975 369.12 849.193 370.92ZM833.153 363.359C835.292 365.519 838.856 365.879 841.351 363.359C843.49 361.198 843.846 357.598 841.351 355.078C838.856 352.557 835.292 352.917 833.153 355.078C831.371 357.238 831.014 360.838 833.153 363.359ZM895.886 307.55C893.747 309.711 893.391 313.311 895.886 315.832C898.024 317.992 901.589 318.352 904.084 315.832C906.222 313.671 906.579 310.071 904.084 307.55C901.589 305.03 897.668 305.75 895.886 307.55ZM872.717 299.629C874.856 297.829 875.212 294.228 872.717 291.708C870.579 289.548 867.014 289.548 864.876 291.708C862.737 293.868 862.381 297.469 864.876 299.629C867.371 302.15 870.935 301.79 872.717 299.629ZM919.41 347.156C921.549 344.996 921.905 341.756 919.41 339.235C917.272 337.075 913.707 337.075 911.569 339.235C909.43 341.396 909.074 344.996 911.569 347.156C914.064 350.037 917.628 349.317 919.41 347.156ZM904.084 378.841C906.222 376.681 906.579 373.44 904.084 370.92C901.945 368.76 898.381 368.76 896.242 370.92C894.103 373.08 893.747 376.681 896.242 378.841C898.737 381.722 901.945 381.001 904.084 378.841ZM880.559 299.629C882.697 301.79 885.905 301.79 888.4 299.629C890.539 297.469 890.539 293.868 888.4 291.708C885.905 289.188 882.341 289.908 880.559 291.708C878.42 293.868 878.064 297.469 880.559 299.629ZM919.41 355.078C917.628 353.277 914.064 352.917 911.569 355.078C909.43 357.598 909.787 360.838 911.569 362.999C913.707 364.799 916.915 365.159 919.41 362.999C921.549 360.838 921.549 357.238 919.41 355.078ZM841.351 378.841C843.49 377.041 843.49 373.44 841.351 371.28C839.212 369.12 836.004 369.12 833.509 371.28C831.371 373.44 831.371 376.681 833.509 378.841C836.004 381.361 839.212 381.001 841.351 378.841ZM872.361 394.683C874.143 392.883 874.499 389.283 872.361 387.122C870.222 384.962 866.658 385.322 864.876 387.122C863.093 388.923 862.737 392.523 864.876 394.683C867.371 397.204 870.579 396.484 872.361 394.683ZM825.668 347.156C827.45 345.356 827.806 341.756 825.668 339.595C823.529 337.435 819.965 337.795 818.183 339.595C816.4 341.395 816.044 344.996 818.183 347.156C820.321 349.677 823.886 348.957 825.668 347.156ZM880.559 394.683C882.341 396.484 885.905 396.844 888.044 394.683C890.183 392.523 890.183 388.923 888.044 387.122C885.905 384.962 882.341 385.322 880.559 387.122C878.42 389.283 878.42 392.523 880.559 394.683ZM911.925 315.472C913.707 317.272 917.272 317.992 919.41 315.472C921.549 313.311 921.549 310.071 919.41 307.91C917.272 305.75 913.707 305.75 911.925 307.91C909.787 310.071 909.787 313.311 911.925 315.472ZM825.311 355.438C823.529 353.637 820.321 352.917 817.826 355.438C815.688 357.598 816.044 361.198 817.826 362.999C819.965 365.159 823.173 365.159 825.311 362.999C827.45 360.838 827.45 357.238 825.311 355.438ZM856.678 387.122C854.895 385.322 851.688 384.602 849.193 387.122C847.054 389.283 847.41 392.883 849.193 394.683C851.331 396.844 854.539 396.844 856.678 394.683C858.816 392.523 858.816 388.923 856.678 387.122ZM919.41 378.841C921.193 377.041 921.549 373.8 919.41 371.28C917.272 369.12 914.064 369.12 911.925 371.28C910.143 373.08 909.787 376.681 911.925 378.841C914.064 381.001 917.628 380.641 919.41 378.841ZM896.242 394.683C898.024 396.484 901.232 396.844 903.371 394.683C905.509 392.523 905.153 389.283 903.371 387.482C901.232 385.322 898.024 385.682 896.242 387.482C894.46 389.283 894.103 392.523 896.242 394.683ZM934.737 330.954C936.519 329.154 936.876 325.913 934.737 323.753C932.598 321.593 929.747 321.593 927.608 323.753C925.826 325.553 925.47 328.794 927.608 330.954C930.103 333.474 933.311 332.754 934.737 330.954ZM887.688 283.427C889.47 281.627 889.826 278.386 887.688 276.226C885.905 274.065 882.697 274.065 880.559 276.226C878.777 278.026 878.42 281.267 880.559 283.427C883.054 285.947 886.262 285.227 887.688 283.427ZM840.994 394.323C842.777 392.523 843.133 389.283 840.994 387.122C838.856 384.962 836.004 385.322 833.866 387.122C832.084 388.923 831.727 392.163 833.866 394.323C836.004 396.844 839.212 396.124 840.994 394.323ZM825.311 378.481C827.094 376.681 827.45 373.44 825.311 371.28C823.173 369.12 820.321 369.12 818.183 371.28C816.4 373.08 816.044 376.321 818.183 378.481C820.321 381.001 823.529 380.281 825.311 378.481ZM911.925 292.068C910.143 293.868 909.787 297.109 911.925 299.269C914.064 301.43 917.272 301.069 919.054 299.269C920.836 297.469 921.193 294.228 919.054 292.068C916.915 289.908 913.707 290.628 911.925 292.068ZM927.608 355.798C925.826 357.598 925.47 360.838 927.608 362.999C929.391 364.799 932.598 365.159 934.737 362.999C936.519 361.198 936.876 357.958 934.737 355.798C932.598 353.277 929.391 353.997 927.608 355.798ZM872.004 410.166C873.787 408.365 874.143 405.485 872.004 403.325C870.222 401.524 867.014 401.524 865.232 403.325C863.45 405.125 863.094 408.365 865.232 410.166C867.371 412.326 870.579 411.966 872.004 410.166ZM903.371 283.427C905.153 281.627 905.509 278.386 903.371 276.586C901.589 274.786 898.381 274.786 896.598 276.586C894.816 278.386 894.816 281.627 896.598 283.427C898.737 285.587 901.945 285.227 903.371 283.427ZM934.737 315.112C936.519 313.311 936.876 310.431 934.737 308.271C932.955 306.47 929.747 306.47 927.965 308.271C926.183 310.071 925.826 313.311 927.965 315.112C930.103 317.272 932.955 316.912 934.737 315.112ZM880.915 403.325C879.133 404.765 878.777 408.005 880.915 410.166C883.054 412.326 885.905 411.966 887.688 410.166C889.47 408.365 889.826 405.485 887.688 403.325C885.549 401.164 882.341 401.524 880.915 403.325ZM912.282 387.482C910.499 388.923 910.143 392.163 912.282 394.323C914.42 396.484 917.272 396.124 919.054 394.323C920.836 392.523 921.193 389.643 919.054 387.482C916.915 385.322 913.707 385.682 912.282 387.482ZM825.311 299.269C827.094 297.469 827.45 294.589 825.311 292.428C823.173 290.268 819.965 290.628 818.539 292.428C817.113 294.228 816.4 297.109 818.539 299.269C820.678 301.43 823.529 301.069 825.311 299.269ZM802.856 362.639C804.282 364.439 807.49 364.799 809.628 362.639C811.767 360.478 811.41 357.598 809.628 355.798C807.846 353.997 804.638 353.997 802.856 355.798C800.717 357.958 801.074 360.838 802.856 362.639ZM849.549 410.166C850.975 411.966 854.183 412.326 856.321 410.166C858.46 408.005 858.103 405.125 856.321 403.325C854.539 401.524 851.331 401.524 849.549 403.325C847.767 405.485 847.767 408.365 849.549 410.166ZM934.737 371.64C932.955 369.84 929.747 369.84 927.965 371.64C926.183 373.44 926.183 376.681 927.965 378.481C929.391 379.921 932.598 380.641 934.737 378.481C936.519 376.321 936.163 373.44 934.737 371.64ZM824.955 394.323C826.737 392.523 826.737 389.643 824.955 387.842C823.173 386.042 819.965 386.042 818.183 387.842C816.4 389.643 816.4 392.523 818.183 394.323C820.678 396.484 823.529 395.764 824.955 394.323ZM903.371 410.166C905.153 408.365 905.509 405.485 903.371 403.685C901.232 401.524 898.381 402.245 896.955 403.685C895.173 405.125 894.816 408.365 896.955 410.166C898.381 411.966 901.589 411.966 903.371 410.166ZM809.272 315.112C811.054 313.311 811.41 310.431 809.272 308.631C807.133 306.47 804.282 307.19 802.856 308.631C801.074 310.071 800.717 313.311 802.856 315.112C804.638 316.912 807.49 316.552 809.272 315.112ZM934.381 292.428C932.598 290.628 929.747 290.628 927.965 292.428C926.183 294.228 926.183 297.469 927.965 298.909C929.391 300.349 932.242 301.069 934.381 298.909C936.519 297.109 936.163 294.228 934.381 292.428ZM840.638 409.806C842.42 408.005 842.42 405.125 840.638 403.325C839.212 401.885 836.361 401.164 834.222 403.325C832.084 405.485 832.796 408.365 834.222 409.806C836.004 411.966 838.856 411.606 840.638 409.806ZM950.064 346.436C951.846 344.996 951.846 341.756 950.064 339.955C948.282 338.155 945.787 338.155 943.648 339.955C941.866 341.756 941.866 344.636 943.648 346.436C945.787 348.597 948.638 348.237 950.064 346.436ZM849.905 261.104C848.123 262.544 848.123 265.424 849.905 267.584C851.688 269.025 854.183 269.385 855.965 267.584C857.747 265.784 857.747 262.904 855.965 261.104C854.183 258.943 851.331 259.303 849.905 261.104ZM928.321 393.963C929.747 395.404 932.598 395.764 934.381 393.963C936.163 392.163 935.806 389.283 934.381 387.842C932.598 386.042 929.747 386.042 928.321 387.842C926.183 389.643 926.539 392.523 928.321 393.963ZM824.955 276.946C823.173 275.146 820.321 275.146 818.895 276.946C817.113 278.746 817.47 281.627 818.895 283.067C820.321 284.507 823.173 284.867 824.955 283.067C826.737 281.267 826.381 278.386 824.955 276.946ZM809.272 292.788C807.846 291.348 804.995 290.988 803.212 292.788C801.43 294.589 801.787 297.469 803.212 298.909C804.995 300.349 807.49 300.709 809.272 298.909C811.054 297.109 810.697 294.228 809.272 292.788ZM918.697 403.685C917.272 402.245 914.42 401.885 912.638 403.685C910.856 405.485 911.212 408.365 912.638 409.806C914.42 411.246 916.915 411.606 918.697 409.806C920.48 408.005 920.123 405.125 918.697 403.685ZM865.589 419.527C864.163 420.967 863.806 423.848 865.589 425.648C867.371 427.448 869.866 427.448 871.648 425.648C873.074 424.208 873.43 421.327 871.648 419.527C869.866 417.727 867.014 418.087 865.589 419.527ZM787.529 330.594C788.955 332.034 791.45 332.394 793.589 330.594C795.371 328.794 795.014 325.913 793.589 324.473C791.806 322.673 789.311 323.033 787.529 324.473C785.747 326.273 785.747 328.794 787.529 330.594ZM949.707 372C947.925 370.56 945.43 370.56 943.648 372C942.222 373.8 942.222 376.321 944.004 378.121C945.43 379.561 947.925 379.921 950.064 377.761C951.49 375.961 951.49 373.44 949.707 372ZM808.915 387.842C807.49 386.402 804.995 386.042 803.212 387.842C801.43 389.643 801.787 392.523 803.212 393.963C804.638 395.404 807.49 395.764 808.915 393.963C810.697 392.163 810.697 389.283 808.915 387.842ZM824.598 403.685C823.173 402.245 820.678 401.885 818.895 403.685C817.113 405.485 817.47 408.365 818.895 409.806C820.321 411.246 823.173 411.606 824.598 409.806C826.381 408.005 826.024 405.125 824.598 403.685ZM934.024 283.067C935.45 281.627 935.806 278.746 934.024 277.306C932.598 275.866 930.103 275.506 928.321 277.306C926.539 279.106 926.895 281.627 928.321 283.067C930.103 284.867 932.598 284.507 934.024 283.067ZM855.965 425.648C857.391 424.208 857.747 421.327 855.965 419.527C854.539 418.087 852.044 417.727 850.262 419.527C848.48 421.327 848.836 423.848 850.262 425.648C852.044 427.448 854.539 427.088 855.965 425.648ZM787.529 314.752C789.311 316.192 791.806 316.192 793.232 314.752C794.658 313.311 794.658 310.791 793.232 308.991C791.45 307.19 788.955 307.55 787.529 308.991C786.103 310.431 785.747 312.951 787.529 314.752ZM896.955 419.527C895.529 420.967 895.173 423.488 896.955 425.288C898.737 427.088 901.232 427.088 902.658 425.288C904.084 423.848 904.44 421.327 902.658 419.527C900.876 417.727 898.381 418.447 896.955 419.527ZM944.004 298.549C945.43 299.989 947.925 300.349 949.707 298.549C951.49 296.749 951.133 294.228 949.707 292.788C947.925 290.988 945.43 291.348 944.004 292.788C942.579 294.589 942.579 297.109 944.004 298.549ZM912.638 266.864C914.064 268.305 916.559 268.665 918.341 266.864C920.123 265.064 919.767 262.544 918.341 261.104C916.559 259.303 914.064 259.663 912.638 261.104C911.212 262.904 911.212 265.424 912.638 266.864ZM808.915 282.707C810.341 281.267 810.697 278.746 808.915 276.946C807.49 275.506 804.995 275.146 803.212 276.946C801.43 278.746 801.787 281.267 803.212 282.707C804.995 284.507 807.49 284.147 808.915 282.707ZM793.232 377.761C794.658 376.321 795.014 373.8 793.232 372C791.806 370.56 789.311 370.2 787.529 372C785.747 373.8 786.103 376.321 787.529 377.761C789.311 379.561 791.806 379.201 793.232 377.761ZM934.024 409.446C935.45 408.005 935.806 405.485 934.024 403.685C932.598 402.245 930.103 401.885 928.321 403.685C926.539 405.485 926.895 408.005 928.321 409.446C930.103 411.246 932.598 410.886 934.024 409.446ZM818.895 261.464C817.47 262.904 817.47 265.424 818.895 266.864C820.321 268.305 822.816 268.305 824.242 266.864C825.668 265.424 825.668 262.904 824.242 261.464C822.816 259.663 820.321 260.023 818.895 261.464ZM808.559 409.446C809.985 408.005 810.341 405.845 808.559 404.045C807.133 402.605 804.995 402.245 803.212 404.045C801.787 405.485 801.787 408.005 803.212 409.446C804.995 411.246 807.49 410.526 808.559 409.446ZM793.232 298.549C794.658 297.109 795.014 294.949 793.232 293.148C791.806 291.708 789.668 291.348 787.886 293.148C786.46 294.589 786.46 297.109 787.886 298.549C789.668 300.349 791.806 299.629 793.232 298.549ZM819.252 425.288C820.321 426.728 822.816 426.728 824.242 425.288C825.668 423.848 825.311 421.327 824.242 420.247C823.173 418.807 820.678 418.447 819.252 420.247C817.47 421.687 817.826 423.848 819.252 425.288ZM792.876 388.202C791.806 386.762 789.311 386.402 787.886 388.202C786.103 390.003 786.816 392.163 787.886 393.243C788.955 394.323 791.45 394.683 792.876 393.243C794.658 391.803 794.301 389.643 792.876 388.202ZM777.193 345.716C778.262 344.636 778.975 342.476 777.193 340.675C775.767 339.235 773.628 339.235 772.202 340.675C770.777 342.116 770.777 344.276 772.202 345.716C773.985 347.516 776.123 347.156 777.193 345.716ZM772.202 324.833C770.777 325.913 770.777 328.434 772.202 329.874C773.628 331.314 775.767 331.314 777.193 329.874C778.618 328.434 778.618 326.273 777.193 324.833C775.767 323.393 773.628 323.753 772.202 324.833ZM949.351 409.086C950.777 407.645 950.777 405.485 949.351 404.405C948.282 403.325 946.143 402.605 944.717 404.405C943.291 405.845 943.648 408.005 944.717 409.446C945.787 410.526 947.925 410.526 949.351 409.086ZM788.242 277.666C786.816 278.746 786.816 280.906 788.242 282.347C789.668 283.787 791.806 283.427 792.876 282.347C793.945 281.267 794.301 279.106 792.876 277.666C791.45 276.226 789.311 276.226 788.242 277.666ZM933.668 424.928C934.737 423.848 935.093 421.687 933.668 420.247C932.242 418.807 930.103 418.807 929.034 420.247C927.608 421.687 927.608 423.848 929.034 424.928C930.46 426.728 932.598 426.008 933.668 424.928ZM772.559 309.351C771.49 310.431 771.133 312.591 772.559 314.031C773.985 315.472 775.767 315.472 777.193 314.031C778.262 312.951 778.618 310.791 777.193 309.351C775.767 307.91 773.628 308.271 772.559 309.351ZM803.925 420.247C802.856 421.327 802.499 423.488 803.925 424.568C804.995 425.648 807.133 426.008 808.202 424.568C809.272 423.488 809.272 421.327 808.202 420.247C806.777 418.807 804.995 419.167 803.925 420.247ZM788.242 404.405C787.173 405.485 786.816 407.645 788.242 408.726C789.311 409.806 791.45 410.166 792.876 408.726C793.945 407.645 793.945 405.485 792.876 404.405C791.094 402.965 789.311 403.325 788.242 404.405ZM776.836 293.508C775.767 292.428 773.985 292.068 772.559 293.508C771.133 294.949 771.49 296.749 772.559 297.829C773.985 299.269 775.767 298.909 776.836 297.829C778.262 296.749 778.262 294.949 776.836 293.508ZM772.915 392.883C773.985 393.963 775.767 393.963 776.836 392.883C777.905 391.803 777.905 390.003 776.836 388.923C775.767 387.842 773.985 387.482 772.915 388.923C771.49 390.363 771.846 392.163 772.915 392.883ZM792.163 424.208C793.232 423.128 793.232 421.687 792.163 420.607C791.094 419.527 789.668 419.527 788.598 420.607C787.529 421.687 787.886 423.488 788.598 424.208C790.024 425.288 791.45 425.288 792.163 424.208ZM776.48 405.125C775.767 404.045 773.985 404.045 773.272 405.125C772.202 406.205 772.559 407.645 773.272 408.366C773.985 409.086 775.41 409.446 776.48 408.366C777.549 407.285 777.193 405.845 776.48 405.125ZM833.509 307.55C831.371 309.351 831.014 312.951 833.509 315.472C836.004 317.992 839.569 317.632 841.351 315.472C843.133 313.311 843.49 310.071 841.351 307.55C838.856 305.03 835.292 305.75 833.509 307.55ZM849.193 299.629C850.975 301.79 854.539 301.79 857.034 299.629C859.173 297.469 858.816 293.868 857.034 291.708C854.895 289.548 851.688 289.548 849.193 291.708C846.697 294.228 847.054 297.829 849.193 299.629ZM817.826 331.314C819.608 333.114 823.173 333.834 825.311 331.314C827.45 329.154 827.45 325.553 825.311 323.753C823.173 321.593 819.608 321.953 817.826 323.753C816.044 325.913 816.044 329.154 817.826 331.314ZM840.994 299.629C842.777 297.829 843.133 294.589 840.994 292.068C838.856 289.908 835.648 289.908 833.509 292.068C831.727 293.868 831.371 297.469 833.509 299.629C836.004 301.79 839.212 301.43 840.994 299.629ZM872.361 283.427C874.143 281.627 874.143 278.026 872.361 276.226C870.579 274.425 867.371 274.065 865.232 276.226C863.094 278.386 863.45 281.627 865.232 283.427C867.371 285.587 870.579 285.587 872.361 283.427ZM809.628 346.796C811.41 344.996 811.767 342.116 809.628 339.955C807.846 338.155 804.638 338.155 802.856 339.955C801.074 341.756 800.717 344.996 802.856 346.796C804.995 348.957 807.846 348.597 809.628 346.796ZM802.856 324.113C801.074 325.553 800.717 328.794 802.856 330.954C804.995 333.114 807.846 332.754 809.628 330.954C811.41 329.154 809.628 324.113 809.628 324.113C807.49 321.953 804.282 322.313 802.856 324.113ZM887.688 267.224C889.47 265.784 889.47 262.904 887.688 260.743C885.905 258.943 883.054 258.943 881.272 260.743C879.49 262.544 879.49 265.424 881.272 267.224C883.41 269.025 886.262 268.665 887.688 267.224ZM787.529 346.436C789.311 348.237 791.806 348.237 793.589 346.436C795.014 344.636 795.371 342.116 793.589 340.315C791.806 338.515 788.955 338.875 787.529 340.315C786.103 341.756 785.747 344.636 787.529 346.436ZM793.232 362.279C794.658 360.838 795.014 357.958 793.232 356.518C791.806 355.078 789.311 354.717 787.529 356.518C785.747 358.318 786.103 360.838 787.529 362.639C789.311 364.079 791.806 363.719 793.232 362.279ZM777.193 356.878C776.123 355.438 773.628 355.438 772.202 356.878C770.777 358.318 771.133 360.478 772.202 361.919C773.272 362.999 775.41 363.359 777.193 361.919C778.618 360.118 778.618 357.958 777.193 356.878ZM777.193 372.72C776.123 371.64 774.341 371.28 772.559 372.72C771.133 374.16 771.49 376.321 772.559 377.401C773.985 378.841 775.767 378.481 777.193 377.401C778.262 375.961 778.262 373.8 777.193 372.72ZM792.519 265.424C793.589 264.344 793.589 262.544 792.519 261.464C791.45 260.383 789.668 260.383 788.598 261.464C787.529 262.544 787.529 264.344 788.598 265.424C789.668 266.144 791.45 266.144 792.519 265.424ZM776.48 281.987C777.549 280.906 777.549 279.106 776.48 278.026C775.41 276.946 773.628 276.946 772.559 278.026C771.49 279.106 771.49 280.906 772.559 281.987C773.628 283.067 775.41 283.067 776.48 281.987Z" fill="url(#paint2_linear_320_1868)" fill-opacity="0.5"/>
</g>
<defs>
<linearGradient id="paint0_linear_320_1868" x1="666.845" y1="259.052" x2="666.845" y2="456.464" gradientUnits="userSpaceOnUse">
<stop stop-color="#F7B114"/>
<stop offset="0.2" stop-color="#F7B114"/>
<stop offset="0.541" stop-color="#62B67C"/>
<stop offset="1" stop-color="#62B67C"/>
</linearGradient>
<linearGradient id="paint1_linear_320_1868" x1="495.507" y1="274.379" x2="495.507" y2="472.372" gradientUnits="userSpaceOnUse">
<stop stop-color="#F7B114"/>
<stop offset="0.2" stop-color="#F7B114"/>
<stop offset="0.541" stop-color="#62B67C"/>
<stop offset="1" stop-color="#62B67C"/>
</linearGradient>
<linearGradient id="paint2_linear_320_1868" x1="853.937" y1="274.827" x2="853.937" y2="472.239" gradientUnits="userSpaceOnUse">
<stop stop-color="#F7B114"/>
<stop offset="0.2" stop-color="#F7B114"/>
<stop offset="0.541" stop-color="#62B67C"/>
<stop offset="1" stop-color="#62B67C"/>
</linearGradient>
<clipPath id="clip0_320_1868">
<rect width="838" height="567" fill="white"/>
</clipPath>
</defs>
</svg>
